%TF.GenerationSoftware,KiCad,Pcbnew,7.0.9-7.0.9~ubuntu22.04.1*%
%TF.CreationDate,2023-11-20T19:54:57+05:30*%
%TF.ProjectId,MAP4,4d415034-2e6b-4696-9361-645f70636258,1*%
%TF.SameCoordinates,Original*%
%TF.FileFunction,Soldermask,Top*%
%TF.FilePolarity,Negative*%
%FSLAX46Y46*%
G04 Gerber Fmt 4.6, Leading zero omitted, Abs format (unit mm)*
G04 Created by KiCad (PCBNEW 7.0.9-7.0.9~ubuntu22.04.1) date 2023-11-20 19:54:57*
%MOMM*%
%LPD*%
G01*
G04 APERTURE LIST*
%ADD10C,0.000000*%
%ADD11C,1.800000*%
%ADD12O,12.400000X3.400000*%
%ADD13C,1.600000*%
%ADD14C,2.500000*%
G04 APERTURE END LIST*
D10*
G36*
X144399409Y-68501825D02*
G01*
X142912130Y-68999820D01*
X141358301Y-69147403D01*
X139805690Y-69320537D01*
X136706308Y-69707272D01*
X133050147Y-69486920D01*
X129390757Y-69328360D01*
X125728874Y-69223059D01*
X122065235Y-69162481D01*
X114735632Y-69141356D01*
X107407840Y-69196709D01*
X107350588Y-69198397D01*
X107294347Y-69202290D01*
X107239125Y-69208332D01*
X107184930Y-69216470D01*
X107131769Y-69226648D01*
X107079653Y-69238812D01*
X107028588Y-69252907D01*
X106978583Y-69268880D01*
X106929647Y-69286674D01*
X106881788Y-69306237D01*
X106835013Y-69327512D01*
X106789332Y-69350446D01*
X106744753Y-69374984D01*
X106701283Y-69401071D01*
X106658932Y-69428653D01*
X106617707Y-69457675D01*
X106597490Y-69402953D01*
X106575072Y-69349042D01*
X106550414Y-69296013D01*
X106523476Y-69243935D01*
X106494221Y-69192879D01*
X106462610Y-69142914D01*
X106428605Y-69094111D01*
X106392166Y-69046539D01*
X106353255Y-69000268D01*
X106311835Y-68955369D01*
X106267865Y-68911912D01*
X106221309Y-68869966D01*
X106172126Y-68829602D01*
X106120279Y-68790890D01*
X106065729Y-68753899D01*
X106008438Y-68718700D01*
X105948612Y-68685606D01*
X105886475Y-68655649D01*
X105822242Y-68628834D01*
X105756123Y-68605165D01*
X105688332Y-68584648D01*
X105619081Y-68567289D01*
X105548584Y-68553091D01*
X105477054Y-68542061D01*
X105404702Y-68534202D01*
X105331742Y-68529521D01*
X105258386Y-68528022D01*
X105184848Y-68529711D01*
X105111340Y-68534592D01*
X105038075Y-68542671D01*
X104965265Y-68553952D01*
X104893124Y-68568441D01*
X104821864Y-68586142D01*
X104751698Y-68607061D01*
X104682839Y-68631203D01*
X104615499Y-68658573D01*
X104549891Y-68689176D01*
X104486229Y-68723017D01*
X104424725Y-68760101D01*
X104365591Y-68800434D01*
X104309040Y-68844019D01*
X104255286Y-68890863D01*
X104204541Y-68940970D01*
X104157017Y-68994346D01*
X104112928Y-69050995D01*
X104072487Y-69110923D01*
X104035905Y-69174134D01*
X104003396Y-69240634D01*
X103876969Y-69548728D01*
X103771740Y-69858702D01*
X103687258Y-70169968D01*
X103623070Y-70481936D01*
X103578723Y-70794018D01*
X103553766Y-71105626D01*
X103547746Y-71416172D01*
X103560210Y-71725067D01*
X103590706Y-72031722D01*
X103638782Y-72335550D01*
X103703985Y-72635961D01*
X103785864Y-72932368D01*
X103883965Y-73224181D01*
X103997836Y-73510813D01*
X104127025Y-73791675D01*
X104271080Y-74066179D01*
X104271080Y-95590446D01*
X109116258Y-95590446D01*
X109161080Y-95686638D01*
X109211352Y-95779149D01*
X109266983Y-95867632D01*
X109327886Y-95951736D01*
X109393972Y-96031115D01*
X109465152Y-96105420D01*
X109541338Y-96174302D01*
X109622440Y-96237413D01*
X109708371Y-96294403D01*
X109799041Y-96344926D01*
X109894362Y-96388632D01*
X109994245Y-96425173D01*
X110098602Y-96454200D01*
X110207343Y-96475365D01*
X110263330Y-96482890D01*
X110320380Y-96488320D01*
X110378482Y-96491609D01*
X110437625Y-96492715D01*
X110489333Y-96491718D01*
X110541238Y-96488537D01*
X110593264Y-96483213D01*
X110645334Y-96475789D01*
X110697373Y-96466310D01*
X110749306Y-96454818D01*
X110801056Y-96441356D01*
X110852547Y-96425967D01*
X110903705Y-96408694D01*
X110954452Y-96389580D01*
X111004714Y-96368669D01*
X111054414Y-96346002D01*
X111103477Y-96321624D01*
X111151827Y-96295578D01*
X111246083Y-96238650D01*
X111291839Y-96207855D01*
X111336578Y-96175564D01*
X111380225Y-96141819D01*
X111422705Y-96106664D01*
X111463940Y-96070141D01*
X111503856Y-96032294D01*
X111542377Y-95993165D01*
X111579427Y-95952798D01*
X111614930Y-95911236D01*
X111648810Y-95868521D01*
X111680992Y-95824697D01*
X111711400Y-95779807D01*
X111739957Y-95733894D01*
X111766589Y-95687001D01*
X111791219Y-95639170D01*
X111813772Y-95590446D01*
X112808022Y-95590446D01*
X112829706Y-95635970D01*
X112851928Y-95681469D01*
X112874808Y-95726931D01*
X112898460Y-95772346D01*
X112931205Y-95829148D01*
X112968673Y-95885388D01*
X113010483Y-95940763D01*
X113056249Y-95994976D01*
X113105588Y-96047726D01*
X113158117Y-96098713D01*
X113213451Y-96147638D01*
X113271207Y-96194201D01*
X113331001Y-96238102D01*
X113392448Y-96279041D01*
X113455166Y-96316718D01*
X113518771Y-96350834D01*
X113582878Y-96381089D01*
X113647103Y-96407183D01*
X113711064Y-96428817D01*
X113774376Y-96445689D01*
X113820847Y-96455625D01*
X113866820Y-96464153D01*
X113912326Y-96471295D01*
X113957397Y-96477070D01*
X114002063Y-96481500D01*
X114046356Y-96484605D01*
X114090307Y-96486404D01*
X114133947Y-96486919D01*
X114177307Y-96486170D01*
X114220419Y-96484177D01*
X114263314Y-96480960D01*
X114306023Y-96476541D01*
X114348577Y-96470938D01*
X114391007Y-96464174D01*
X114433345Y-96456268D01*
X114475621Y-96447240D01*
X114574287Y-96466496D01*
X114673957Y-96481198D01*
X114774425Y-96491307D01*
X114875483Y-96496785D01*
X114976921Y-96497593D01*
X115078534Y-96493694D01*
X115180112Y-96485048D01*
X115281447Y-96471617D01*
X115382333Y-96453363D01*
X115482561Y-96430248D01*
X115581923Y-96402232D01*
X115680211Y-96369278D01*
X115777218Y-96331347D01*
X115872735Y-96288401D01*
X115966555Y-96240401D01*
X116058470Y-96187309D01*
X116106860Y-96156740D01*
X116153896Y-96125148D01*
X116199584Y-96092561D01*
X116243933Y-96059005D01*
X116286951Y-96024506D01*
X116328644Y-95989091D01*
X116369021Y-95952787D01*
X116408090Y-95915621D01*
X116445857Y-95877619D01*
X116482332Y-95838807D01*
X116517521Y-95799214D01*
X116551433Y-95758865D01*
X116584074Y-95717787D01*
X116615454Y-95676006D01*
X116645578Y-95633551D01*
X116674456Y-95590446D01*
X122150608Y-95590446D01*
X122206982Y-95644259D01*
X122265633Y-95694177D01*
X122326403Y-95740244D01*
X122389133Y-95782501D01*
X122453665Y-95820990D01*
X122519841Y-95855754D01*
X122587503Y-95886836D01*
X122656493Y-95914276D01*
X122726653Y-95938119D01*
X122797824Y-95958404D01*
X122869848Y-95975176D01*
X122942567Y-95988476D01*
X123015823Y-95998347D01*
X123089457Y-96004830D01*
X123163312Y-96007968D01*
X123237230Y-96007803D01*
X123311052Y-96004378D01*
X123384619Y-95997734D01*
X123457775Y-95987914D01*
X123530359Y-95974961D01*
X123602216Y-95958915D01*
X123673186Y-95939820D01*
X123743110Y-95917718D01*
X123811832Y-95892651D01*
X123879193Y-95864662D01*
X123945034Y-95833792D01*
X124009197Y-95800083D01*
X124071525Y-95763579D01*
X124131859Y-95724321D01*
X124190040Y-95682351D01*
X124245912Y-95637712D01*
X124299314Y-95590446D01*
X134212404Y-95590446D01*
X134227239Y-95699858D01*
X134248545Y-95807267D01*
X134276359Y-95912267D01*
X134310720Y-96014454D01*
X134351666Y-96113420D01*
X134399234Y-96208762D01*
X134425513Y-96254946D01*
X134453462Y-96300073D01*
X134483086Y-96344090D01*
X134514389Y-96386947D01*
X134547376Y-96428594D01*
X134582052Y-96468980D01*
X134618421Y-96508053D01*
X134656488Y-96545765D01*
X134696259Y-96582063D01*
X134737737Y-96616897D01*
X134780927Y-96650217D01*
X134825835Y-96681971D01*
X134872465Y-96712109D01*
X134920821Y-96740581D01*
X134970909Y-96767335D01*
X135022733Y-96792321D01*
X135076297Y-96815488D01*
X135131608Y-96836786D01*
X135188668Y-96856164D01*
X135247484Y-96873571D01*
X135313911Y-96889674D01*
X135381755Y-96902181D01*
X135450810Y-96911141D01*
X135520870Y-96916603D01*
X135591727Y-96918616D01*
X135663176Y-96917230D01*
X135735009Y-96912493D01*
X135807021Y-96904454D01*
X135879005Y-96893164D01*
X135950755Y-96878670D01*
X136022064Y-96861022D01*
X136092725Y-96840269D01*
X136162532Y-96816460D01*
X136231279Y-96789644D01*
X136298760Y-96759872D01*
X136364766Y-96727190D01*
X136429094Y-96691649D01*
X136491534Y-96653298D01*
X136551882Y-96612186D01*
X136609931Y-96568363D01*
X136665474Y-96521876D01*
X136718305Y-96472775D01*
X136768218Y-96421111D01*
X136815005Y-96366930D01*
X136858461Y-96310283D01*
X136898378Y-96251220D01*
X136934552Y-96189788D01*
X136966774Y-96126037D01*
X136994838Y-96060016D01*
X137018539Y-95991775D01*
X137037669Y-95921362D01*
X137052023Y-95848827D01*
X137057572Y-95816295D01*
X137063625Y-95783895D01*
X137076754Y-95719363D01*
X137090437Y-95654967D01*
X137103700Y-95590446D01*
X139075155Y-95590446D01*
X139095120Y-95630856D01*
X139116004Y-95670861D01*
X139137812Y-95710445D01*
X139160545Y-95749592D01*
X139184207Y-95788287D01*
X139208801Y-95826514D01*
X139234330Y-95864257D01*
X139260797Y-95901500D01*
X139288205Y-95938228D01*
X139316556Y-95974424D01*
X139345854Y-96010073D01*
X139376103Y-96045159D01*
X139407304Y-96079666D01*
X139439461Y-96113579D01*
X139472577Y-96146881D01*
X139506655Y-96179557D01*
X139530664Y-96201607D01*
X139554991Y-96223100D01*
X139579624Y-96244043D01*
X139604555Y-96264445D01*
X139629775Y-96284314D01*
X139655276Y-96303657D01*
X139707080Y-96340801D01*
X139759895Y-96375940D01*
X139813648Y-96409139D01*
X139868268Y-96440464D01*
X139923681Y-96469978D01*
X139987741Y-96512171D01*
X140053512Y-96552045D01*
X140120974Y-96589504D01*
X140190101Y-96624450D01*
X140260873Y-96656785D01*
X140296868Y-96671942D01*
X140333265Y-96686410D01*
X140370062Y-96700177D01*
X140407255Y-96713230D01*
X140444842Y-96725557D01*
X140482820Y-96737146D01*
X140556864Y-96757272D01*
X140631483Y-96774491D01*
X140782111Y-96800332D01*
X140934024Y-96814915D01*
X141086544Y-96818484D01*
X141238991Y-96811287D01*
X141390685Y-96793568D01*
X141540948Y-96765572D01*
X141689100Y-96727546D01*
X141834462Y-96679736D01*
X141976353Y-96622385D01*
X142114096Y-96555741D01*
X142247010Y-96480048D01*
X142374416Y-96395553D01*
X142495636Y-96302501D01*
X142609988Y-96201137D01*
X142716795Y-96091707D01*
X142768512Y-96032428D01*
X142817547Y-95972076D01*
X142863923Y-95910706D01*
X142907667Y-95848370D01*
X142948804Y-95785123D01*
X142987359Y-95721017D01*
X143023358Y-95656107D01*
X143056826Y-95590446D01*
X150157682Y-95590446D01*
X150181378Y-95652502D01*
X150208644Y-95712698D01*
X150239324Y-95770991D01*
X150273263Y-95827338D01*
X150310306Y-95881697D01*
X150350297Y-95934025D01*
X150393081Y-95984281D01*
X150438502Y-96032421D01*
X150486405Y-96078403D01*
X150536635Y-96122184D01*
X150643452Y-96202975D01*
X150757710Y-96274453D01*
X150878166Y-96336279D01*
X151003575Y-96388112D01*
X151132696Y-96429613D01*
X151264284Y-96460441D01*
X151397096Y-96480256D01*
X151529889Y-96488719D01*
X151661419Y-96485489D01*
X151726321Y-96479383D01*
X151790442Y-96470226D01*
X151853625Y-96457976D01*
X151915716Y-96442590D01*
X152003191Y-96415759D01*
X152086704Y-96384610D01*
X152166278Y-96349313D01*
X152241935Y-96310039D01*
X152313698Y-96266957D01*
X152381591Y-96220238D01*
X152445635Y-96170053D01*
X152505854Y-96116570D01*
X152562269Y-96059961D01*
X152614905Y-96000395D01*
X152663783Y-95938043D01*
X152708927Y-95873075D01*
X152750359Y-95805661D01*
X152788101Y-95735972D01*
X152822177Y-95664176D01*
X152852610Y-95590446D01*
X155728918Y-95590446D01*
X155728918Y-72725174D01*
X155960136Y-72545691D01*
X156075144Y-72456020D01*
X156187807Y-72366024D01*
X156263398Y-72298844D01*
X156331359Y-72227103D01*
X156391835Y-72151198D01*
X156444971Y-72071523D01*
X156490912Y-71988475D01*
X156529803Y-71902448D01*
X156561788Y-71813838D01*
X156587012Y-71723041D01*
X156605620Y-71630452D01*
X156617758Y-71536467D01*
X156623569Y-71441481D01*
X156623199Y-71345890D01*
X156616793Y-71250089D01*
X156604495Y-71154473D01*
X156586450Y-71059439D01*
X156562804Y-70965382D01*
X156533701Y-70872697D01*
X156499285Y-70781780D01*
X156459703Y-70693027D01*
X156415097Y-70606832D01*
X156365615Y-70523591D01*
X156311399Y-70443700D01*
X156252596Y-70367555D01*
X156189350Y-70295550D01*
X156121805Y-70228082D01*
X156050108Y-70165546D01*
X155974402Y-70108336D01*
X155894832Y-70056850D01*
X155811544Y-70011483D01*
X155724682Y-69972629D01*
X155634390Y-69940684D01*
X155540815Y-69916045D01*
X155263745Y-69857250D01*
X154986587Y-69801978D01*
X154709343Y-69750168D01*
X154432013Y-69701758D01*
X154154596Y-69656686D01*
X153877093Y-69614889D01*
X153599504Y-69576305D01*
X153321829Y-69540872D01*
X153225875Y-69447552D01*
X153123231Y-69363493D01*
X153014592Y-69289106D01*
X152900657Y-69224801D01*
X152782123Y-69170988D01*
X152721349Y-69148145D01*
X152659687Y-69128079D01*
X152597224Y-69110841D01*
X152534047Y-69096483D01*
X152470243Y-69085056D01*
X152405899Y-69076611D01*
X152341103Y-69071200D01*
X152275942Y-69068873D01*
X152210503Y-69069683D01*
X152144873Y-69073680D01*
X152079139Y-69080916D01*
X152013388Y-69091443D01*
X151947708Y-69105310D01*
X151882186Y-69122570D01*
X151816908Y-69143275D01*
X151751963Y-69167474D01*
X151687437Y-69195220D01*
X151623418Y-69226564D01*
X151559992Y-69261557D01*
X151497247Y-69300251D01*
X151435269Y-69342697D01*
X151374147Y-69388945D01*
X151057788Y-69378647D01*
X150741344Y-69372400D01*
X150424817Y-69370250D01*
X150108207Y-69372243D01*
X149791515Y-69378423D01*
X149474744Y-69388834D01*
X149157894Y-69403523D01*
X148840967Y-69422533D01*
X148859560Y-69329812D01*
X148872187Y-69236037D01*
X148878964Y-69141542D01*
X148880007Y-69046661D01*
X148875432Y-68951731D01*
X148865354Y-68857085D01*
X148849891Y-68763057D01*
X148829158Y-68669984D01*
X148803271Y-68578198D01*
X148772346Y-68488036D01*
X148736499Y-68399831D01*
X148695847Y-68313918D01*
X148650505Y-68230632D01*
X148600589Y-68150308D01*
X148546216Y-68073280D01*
X148487501Y-67999883D01*
X158138075Y-67999883D01*
X158138075Y-98000118D01*
X101861925Y-98000118D01*
X101861925Y-67999883D01*
X145885076Y-67999883D01*
X144399409Y-68501825D01*
G37*
D11*
%TO.C,D1*%
X115970000Y-94400000D03*
X113430000Y-94400000D03*
%TD*%
%TO.C,D2*%
X142320000Y-94400000D03*
X139780000Y-94400000D03*
%TD*%
D12*
%TO.C,P2*%
X130000000Y-69200000D03*
%TD*%
D13*
%TO.C,R1*%
X110100000Y-84536000D03*
X110100000Y-92664000D03*
%TD*%
%TO.C,R2*%
X147200000Y-83036000D03*
X147200000Y-91164000D03*
%TD*%
D14*
%TO.C,BT1*%
X116000000Y-82000000D03*
X118200000Y-82000000D03*
X138100000Y-82000000D03*
X143000000Y-82000000D03*
%TD*%
M02*
