%TF.GenerationSoftware,KiCad,Pcbnew,7.0.9-7.0.9~ubuntu22.04.1*%
%TF.CreationDate,2023-11-20T19:54:57+05:30*%
%TF.ProjectId,MAP4,4d415034-2e6b-4696-9361-645f70636258,1*%
%TF.SameCoordinates,Original*%
%TF.FileFunction,Copper,L1,Top*%
%TF.FilePolarity,Positive*%
%FSLAX46Y46*%
G04 Gerber Fmt 4.6, Leading zero omitted, Abs format (unit mm)*
G04 Created by KiCad (PCBNEW 7.0.9-7.0.9~ubuntu22.04.1) date 2023-11-20 19:54:57*
%MOMM*%
%LPD*%
G01*
G04 APERTURE LIST*
%TA.AperFunction,ComponentPad*%
%ADD10C,1.800000*%
%TD*%
%TA.AperFunction,ComponentPad*%
%ADD11O,12.400000X3.400000*%
%TD*%
%TA.AperFunction,ComponentPad*%
%ADD12C,1.600000*%
%TD*%
%TA.AperFunction,ComponentPad*%
%ADD13C,2.500000*%
%TD*%
%TA.AperFunction,Conductor*%
%ADD14C,1.000000*%
%TD*%
G04 APERTURE END LIST*
D10*
%TO.P,D1,1,A*%
%TO.N,/3V*%
X115970000Y-94400000D03*
%TO.P,D1,2,K*%
%TO.N,/LED_red*%
X113430000Y-94400000D03*
%TD*%
%TO.P,D2,1,A*%
%TO.N,/3V*%
X142320000Y-94400000D03*
%TO.P,D2,2,K*%
%TO.N,/LED_grn*%
X139780000Y-94400000D03*
%TD*%
D11*
%TO.P,P2,1,P1*%
%TO.N,unconnected-(P2-P1-Pad1)*%
X130000000Y-69200000D03*
%TD*%
D12*
%TO.P,R1,1*%
%TO.N,/GND*%
X110100000Y-84536000D03*
%TO.P,R1,2*%
%TO.N,/LED_red*%
X110100000Y-92664000D03*
%TD*%
%TO.P,R2,1*%
%TO.N,/GND*%
X147200000Y-83036000D03*
%TO.P,R2,2*%
%TO.N,/LED_grn*%
X147200000Y-91164000D03*
%TD*%
D13*
%TO.P,BT1,1,+*%
%TO.N,/3V*%
X116000000Y-82000000D03*
X118200000Y-82000000D03*
%TO.P,BT1,2,-*%
%TO.N,/GND*%
X138100000Y-82000000D03*
X143000000Y-82000000D03*
%TD*%
D14*
%TO.N,/GND*%
X138100000Y-82000000D02*
X143000000Y-82000000D01*
X135564000Y-84536000D02*
X138100000Y-82000000D01*
X143000000Y-82000000D02*
X146164000Y-82000000D01*
X110100000Y-84536000D02*
X135564000Y-84536000D01*
X146164000Y-82000000D02*
X147200000Y-83036000D01*
%TO.N,/LED_red*%
X111836000Y-94400000D02*
X110100000Y-92664000D01*
X113430000Y-94400000D02*
X111836000Y-94400000D01*
%TO.N,/LED_grn*%
X139780000Y-92720000D02*
X141336000Y-91164000D01*
X139780000Y-94400000D02*
X139780000Y-92720000D01*
X141336000Y-91164000D02*
X147200000Y-91164000D01*
%TD*%
%TA.AperFunction,NonConductor*%
G36*
X145817265Y-68003368D02*
G01*
X145820633Y-68011500D01*
X145817265Y-68019632D01*
X145812770Y-68022410D01*
X144350000Y-68510000D01*
X142911293Y-68999496D01*
X142908640Y-69000061D01*
X141302611Y-69147520D01*
X139750000Y-69320654D01*
X136691128Y-69709856D01*
X136688868Y-69709920D01*
X135993481Y-69660949D01*
X135985606Y-69657017D01*
X135982817Y-69648669D01*
X135983093Y-69646852D01*
X136020000Y-69490000D01*
X136035000Y-69399337D01*
X136050000Y-69230000D01*
X136050000Y-69092791D01*
X136030000Y-68955581D01*
X136010357Y-68841687D01*
X135980000Y-68727791D01*
X135940000Y-68613896D01*
X135890000Y-68510000D01*
X135800000Y-68350000D01*
X135700000Y-68210000D01*
X135580007Y-68090007D01*
X135580007Y-68090006D01*
X135502276Y-68020048D01*
X135498485Y-68012104D01*
X135501421Y-68003807D01*
X135509365Y-68000016D01*
X135509969Y-68000000D01*
X145809133Y-68000000D01*
X145817265Y-68003368D01*
G37*
%TD.AperFunction*%
%TA.AperFunction,NonConductor*%
G36*
X124498866Y-68003251D02*
G01*
X124502234Y-68011383D01*
X124498866Y-68019515D01*
X124498563Y-68019807D01*
X124450000Y-68064942D01*
X124379993Y-68130006D01*
X124334997Y-68180003D01*
X124307674Y-68218490D01*
X124307303Y-68218959D01*
X124297042Y-68230625D01*
X124280000Y-68250000D01*
X124230000Y-68310000D01*
X124190000Y-68370000D01*
X124189995Y-68370008D01*
X124150000Y-68440000D01*
X124100001Y-68519998D01*
X124100000Y-68520000D01*
X124040000Y-68680000D01*
X124009999Y-68770002D01*
X123980000Y-68910000D01*
X123959999Y-69010001D01*
X123950701Y-69182584D01*
X123946900Y-69190522D01*
X123939028Y-69193463D01*
X122065235Y-69162481D01*
X114735632Y-69141356D01*
X107407840Y-69196709D01*
X107350588Y-69198397D01*
X107294347Y-69202290D01*
X107239125Y-69208332D01*
X107184930Y-69216470D01*
X107131769Y-69226648D01*
X107079653Y-69238812D01*
X107028588Y-69252907D01*
X106978583Y-69268880D01*
X106929647Y-69286674D01*
X106881788Y-69306237D01*
X106835013Y-69327512D01*
X106789332Y-69350446D01*
X106744753Y-69374984D01*
X106701283Y-69401071D01*
X106658932Y-69428653D01*
X106629932Y-69449068D01*
X106621343Y-69450994D01*
X106613908Y-69446284D01*
X106612525Y-69443649D01*
X106604393Y-69421639D01*
X106597490Y-69402953D01*
X106575072Y-69349042D01*
X106550414Y-69296013D01*
X106523476Y-69243935D01*
X106494221Y-69192879D01*
X106462610Y-69142914D01*
X106428605Y-69094111D01*
X106406655Y-69065454D01*
X106392169Y-69046542D01*
X106353261Y-69000275D01*
X106311840Y-68955374D01*
X106267866Y-68911913D01*
X106265743Y-68910000D01*
X106221309Y-68869966D01*
X106172126Y-68829602D01*
X106172125Y-68829601D01*
X106172124Y-68829600D01*
X106120284Y-68790894D01*
X106120283Y-68790893D01*
X106065731Y-68753900D01*
X106008445Y-68718704D01*
X105948618Y-68685609D01*
X105916202Y-68669981D01*
X105886475Y-68655649D01*
X105886476Y-68655649D01*
X105886471Y-68655647D01*
X105822247Y-68628836D01*
X105822245Y-68628835D01*
X105822242Y-68628834D01*
X105756137Y-68605170D01*
X105756138Y-68605170D01*
X105756131Y-68605167D01*
X105756123Y-68605165D01*
X105688332Y-68584648D01*
X105688328Y-68584647D01*
X105688329Y-68584647D01*
X105653706Y-68575968D01*
X105619081Y-68567289D01*
X105584457Y-68560315D01*
X105548585Y-68553091D01*
X105535612Y-68551090D01*
X105477054Y-68542061D01*
X105404702Y-68534202D01*
X105331742Y-68529521D01*
X105258386Y-68528022D01*
X105184848Y-68529711D01*
X105111340Y-68534592D01*
X105038075Y-68542671D01*
X104965265Y-68553952D01*
X104893124Y-68568441D01*
X104821864Y-68586142D01*
X104821861Y-68586143D01*
X104821860Y-68586143D01*
X104785001Y-68597131D01*
X104751698Y-68607061D01*
X104682839Y-68631203D01*
X104682835Y-68631204D01*
X104682831Y-68631206D01*
X104615499Y-68658573D01*
X104549897Y-68689173D01*
X104486243Y-68723009D01*
X104486235Y-68723013D01*
X104486229Y-68723017D01*
X104424725Y-68760101D01*
X104365591Y-68800434D01*
X104309040Y-68844019D01*
X104309033Y-68844024D01*
X104309033Y-68844025D01*
X104255277Y-68890871D01*
X104204545Y-68940966D01*
X104204541Y-68940970D01*
X104157017Y-68994346D01*
X104157011Y-68994353D01*
X104157011Y-68994354D01*
X104112929Y-69050993D01*
X104072488Y-69110921D01*
X104072487Y-69110923D01*
X104035905Y-69174134D01*
X104003396Y-69240634D01*
X103934759Y-69407899D01*
X103876972Y-69548721D01*
X103876971Y-69548721D01*
X103876969Y-69548728D01*
X103790997Y-69801978D01*
X103771737Y-69858712D01*
X103687257Y-70169972D01*
X103623069Y-70481939D01*
X103605322Y-70606832D01*
X103578723Y-70794018D01*
X103553766Y-71105626D01*
X103547746Y-71416172D01*
X103560128Y-71723042D01*
X103560210Y-71725060D01*
X103560209Y-71725059D01*
X103560210Y-71725067D01*
X103590706Y-72031722D01*
X103638782Y-72335550D01*
X103703985Y-72635961D01*
X103703987Y-72635971D01*
X103703988Y-72635972D01*
X103703988Y-72635971D01*
X103785864Y-72932370D01*
X103785864Y-72932369D01*
X103819711Y-73033050D01*
X103883965Y-73224181D01*
X103997836Y-73510813D01*
X104127025Y-73791675D01*
X104127028Y-73791680D01*
X104127027Y-73791680D01*
X104269763Y-74063669D01*
X104271080Y-74069013D01*
X104271080Y-95590446D01*
X109108929Y-95590446D01*
X109117061Y-95593814D01*
X109119353Y-95597089D01*
X109138282Y-95637712D01*
X109161080Y-95686638D01*
X109211352Y-95779149D01*
X109211355Y-95779153D01*
X109211354Y-95779153D01*
X109228021Y-95805662D01*
X109266983Y-95867632D01*
X109318104Y-95938228D01*
X109327890Y-95951741D01*
X109393973Y-96031116D01*
X109465155Y-96105423D01*
X109541340Y-96174304D01*
X109622443Y-96237415D01*
X109622444Y-96237416D01*
X109708373Y-96294405D01*
X109708373Y-96294404D01*
X109718547Y-96300073D01*
X109799038Y-96344925D01*
X109811926Y-96350834D01*
X109894362Y-96388632D01*
X109994245Y-96425173D01*
X110098602Y-96454200D01*
X110207343Y-96475365D01*
X110207347Y-96475365D01*
X110207347Y-96475366D01*
X110252988Y-96481500D01*
X110263330Y-96482890D01*
X110320380Y-96488320D01*
X110378482Y-96491609D01*
X110437625Y-96492715D01*
X110489333Y-96491718D01*
X110541238Y-96488537D01*
X110562082Y-96486404D01*
X110593265Y-96483213D01*
X110645334Y-96475789D01*
X110697373Y-96466310D01*
X110749306Y-96454818D01*
X110801056Y-96441356D01*
X110852547Y-96425967D01*
X110903705Y-96408694D01*
X110954452Y-96389580D01*
X111004714Y-96368669D01*
X111054414Y-96346002D01*
X111103477Y-96321624D01*
X111151825Y-96295579D01*
X111153771Y-96294404D01*
X111225271Y-96251220D01*
X111246080Y-96238652D01*
X111246081Y-96238651D01*
X111246083Y-96238650D01*
X111291839Y-96207855D01*
X111336578Y-96175564D01*
X111380225Y-96141819D01*
X111422705Y-96106664D01*
X111463940Y-96070141D01*
X111503856Y-96032294D01*
X111542377Y-95993165D01*
X111579427Y-95952798D01*
X111614930Y-95911236D01*
X111648810Y-95868521D01*
X111680992Y-95824697D01*
X111711400Y-95779807D01*
X111739957Y-95733894D01*
X111766589Y-95687001D01*
X111791219Y-95639170D01*
X111810685Y-95597114D01*
X111817157Y-95591151D01*
X111821121Y-95590446D01*
X112800762Y-95590446D01*
X112808894Y-95593814D01*
X112811144Y-95597001D01*
X112829706Y-95635970D01*
X112851928Y-95681469D01*
X112874808Y-95726931D01*
X112898460Y-95772346D01*
X112931205Y-95829149D01*
X112931205Y-95829148D01*
X112968673Y-95885388D01*
X112991500Y-95915621D01*
X113010480Y-95940759D01*
X113010480Y-95940760D01*
X113056255Y-95994983D01*
X113068401Y-96007968D01*
X113105588Y-96047726D01*
X113137186Y-96078396D01*
X113158121Y-96098717D01*
X113174753Y-96113422D01*
X113213451Y-96147638D01*
X113213457Y-96147643D01*
X113213464Y-96147649D01*
X113213463Y-96147648D01*
X113271213Y-96194206D01*
X113331009Y-96238108D01*
X113331010Y-96238108D01*
X113385563Y-96274454D01*
X113392453Y-96279044D01*
X113455165Y-96316718D01*
X113455165Y-96316717D01*
X113455166Y-96316718D01*
X113507756Y-96344926D01*
X113518771Y-96350834D01*
X113582875Y-96381088D01*
X113647101Y-96407182D01*
X113647102Y-96407183D01*
X113711073Y-96428820D01*
X113754769Y-96440464D01*
X113774376Y-96445689D01*
X113820847Y-96455625D01*
X113866820Y-96464153D01*
X113912326Y-96471295D01*
X113957397Y-96477070D01*
X114002063Y-96481500D01*
X114046356Y-96484605D01*
X114090307Y-96486404D01*
X114133947Y-96486919D01*
X114177307Y-96486170D01*
X114220419Y-96484177D01*
X114263314Y-96480960D01*
X114306023Y-96476541D01*
X114348577Y-96470938D01*
X114391007Y-96464174D01*
X114433345Y-96456268D01*
X114473321Y-96447730D01*
X114477926Y-96447690D01*
X114574269Y-96466493D01*
X114574279Y-96466494D01*
X114574287Y-96466496D01*
X114616855Y-96472775D01*
X114673962Y-96481199D01*
X114673963Y-96481199D01*
X114774416Y-96491307D01*
X114875499Y-96496786D01*
X114976004Y-96497585D01*
X114976921Y-96497593D01*
X114976921Y-96497592D01*
X114976922Y-96497593D01*
X114982878Y-96497364D01*
X115078534Y-96493694D01*
X115143159Y-96488193D01*
X115180113Y-96485048D01*
X115180112Y-96485048D01*
X115281447Y-96471617D01*
X115382339Y-96453362D01*
X115382340Y-96453362D01*
X115482559Y-96430249D01*
X115581930Y-96402230D01*
X115581929Y-96402230D01*
X115680211Y-96369278D01*
X115764605Y-96336279D01*
X115777216Y-96331348D01*
X115809757Y-96316717D01*
X115872735Y-96288401D01*
X115966555Y-96240401D01*
X116058470Y-96187309D01*
X116106860Y-96156740D01*
X116153896Y-96125148D01*
X116199584Y-96092561D01*
X116243933Y-96059005D01*
X116286951Y-96024506D01*
X116328644Y-95989091D01*
X116369021Y-95952787D01*
X116408090Y-95915621D01*
X116445857Y-95877619D01*
X116482332Y-95838807D01*
X116517521Y-95799214D01*
X116551433Y-95758865D01*
X116584074Y-95717787D01*
X116615454Y-95676006D01*
X116645578Y-95633551D01*
X116671040Y-95595545D01*
X116678364Y-95590664D01*
X116680594Y-95590446D01*
X122146000Y-95590446D01*
X122153941Y-95593628D01*
X122206973Y-95644251D01*
X122206978Y-95644255D01*
X122206982Y-95644259D01*
X122220903Y-95656107D01*
X122265630Y-95694175D01*
X122265629Y-95694174D01*
X122265633Y-95694177D01*
X122326403Y-95740244D01*
X122389133Y-95782501D01*
X122389138Y-95782504D01*
X122389141Y-95782506D01*
X122453667Y-95820991D01*
X122519829Y-95855748D01*
X122519833Y-95855750D01*
X122519841Y-95855754D01*
X122547633Y-95868521D01*
X122587491Y-95886831D01*
X122587499Y-95886834D01*
X122587503Y-95886836D01*
X122602123Y-95892651D01*
X122656487Y-95914274D01*
X122726643Y-95938116D01*
X122726650Y-95938118D01*
X122726653Y-95938119D01*
X122797824Y-95958404D01*
X122829702Y-95965827D01*
X122869846Y-95975176D01*
X122869847Y-95975176D01*
X122942563Y-95988476D01*
X122942562Y-95988475D01*
X122942567Y-95988476D01*
X123015823Y-95998347D01*
X123077873Y-96003810D01*
X123089456Y-96004830D01*
X123089457Y-96004830D01*
X123163312Y-96007968D01*
X123237230Y-96007803D01*
X123311052Y-96004378D01*
X123384619Y-95997734D01*
X123457775Y-95987914D01*
X123530359Y-95974961D01*
X123602216Y-95958915D01*
X123673186Y-95939820D01*
X123743110Y-95917718D01*
X123811832Y-95892651D01*
X123879193Y-95864662D01*
X123945034Y-95833792D01*
X123969402Y-95820990D01*
X124009194Y-95800085D01*
X124071527Y-95763578D01*
X124113953Y-95735972D01*
X124131849Y-95724328D01*
X124190039Y-95682352D01*
X124227400Y-95652502D01*
X124245899Y-95637722D01*
X124245899Y-95637723D01*
X124245906Y-95637716D01*
X124245912Y-95637712D01*
X124296050Y-95593335D01*
X124303672Y-95590446D01*
X134202358Y-95590446D01*
X134210490Y-95593814D01*
X134213753Y-95600400D01*
X134227238Y-95699853D01*
X134248544Y-95807263D01*
X134248545Y-95807267D01*
X134276359Y-95912267D01*
X134289984Y-95952787D01*
X134310720Y-96014455D01*
X134329550Y-96059966D01*
X134351666Y-96113420D01*
X134399234Y-96208762D01*
X134425513Y-96254946D01*
X134453462Y-96300073D01*
X134483086Y-96344090D01*
X134514389Y-96386947D01*
X134547376Y-96428594D01*
X134582052Y-96468980D01*
X134618421Y-96508053D01*
X134656488Y-96545765D01*
X134696259Y-96582063D01*
X134737737Y-96616897D01*
X134780927Y-96650217D01*
X134825835Y-96681971D01*
X134872465Y-96712109D01*
X134920821Y-96740581D01*
X134970909Y-96767335D01*
X135022733Y-96792321D01*
X135076297Y-96815488D01*
X135131608Y-96836786D01*
X135188668Y-96856164D01*
X135247484Y-96873571D01*
X135297965Y-96885808D01*
X135313902Y-96889672D01*
X135313905Y-96889672D01*
X135313911Y-96889674D01*
X135381755Y-96902181D01*
X135381766Y-96902183D01*
X135421316Y-96907314D01*
X135450810Y-96911141D01*
X135450818Y-96911141D01*
X135450821Y-96911142D01*
X135520869Y-96916603D01*
X135525038Y-96916721D01*
X135591727Y-96918616D01*
X135591736Y-96918615D01*
X135591743Y-96918616D01*
X135663184Y-96917230D01*
X135663183Y-96917230D01*
X135734987Y-96912495D01*
X135734986Y-96912495D01*
X135734996Y-96912493D01*
X135735009Y-96912493D01*
X135807021Y-96904454D01*
X135879005Y-96893164D01*
X135950755Y-96878670D01*
X136022064Y-96861022D01*
X136092725Y-96840269D01*
X136162532Y-96816460D01*
X136231279Y-96789644D01*
X136298760Y-96759872D01*
X136364766Y-96727190D01*
X136413659Y-96700177D01*
X136429102Y-96691645D01*
X136491542Y-96653293D01*
X136536911Y-96622385D01*
X136551882Y-96612186D01*
X136609931Y-96568363D01*
X136665474Y-96521876D01*
X136665479Y-96521872D01*
X136665479Y-96521871D01*
X136680347Y-96508053D01*
X136718305Y-96472775D01*
X136721972Y-96468980D01*
X136732602Y-96457976D01*
X136768218Y-96421111D01*
X136784522Y-96402230D01*
X136815005Y-96366931D01*
X136815004Y-96366931D01*
X136815005Y-96366930D01*
X136858461Y-96310283D01*
X136898378Y-96251220D01*
X136934552Y-96189788D01*
X136966774Y-96126037D01*
X136968412Y-96122185D01*
X136994838Y-96060016D01*
X137018539Y-95991777D01*
X137018539Y-95991778D01*
X137037670Y-95921358D01*
X137052023Y-95848827D01*
X137057572Y-95816295D01*
X137063626Y-95783895D01*
X137076754Y-95719363D01*
X137090437Y-95654967D01*
X137101812Y-95599631D01*
X137106748Y-95592344D01*
X137113076Y-95590446D01*
X139068010Y-95590446D01*
X139076142Y-95593814D01*
X139078320Y-95596852D01*
X139095120Y-95630857D01*
X139106418Y-95652499D01*
X139116004Y-95670861D01*
X139137812Y-95710445D01*
X139160545Y-95749592D01*
X139184207Y-95788287D01*
X139208801Y-95826514D01*
X139234330Y-95864257D01*
X139260797Y-95901500D01*
X139288205Y-95938228D01*
X139316556Y-95974424D01*
X139345854Y-96010073D01*
X139376103Y-96045159D01*
X139407304Y-96079666D01*
X139439461Y-96113579D01*
X139472577Y-96146881D01*
X139506655Y-96179557D01*
X139530664Y-96201607D01*
X139554991Y-96223100D01*
X139579624Y-96244043D01*
X139604555Y-96264445D01*
X139629775Y-96284314D01*
X139655276Y-96303657D01*
X139707080Y-96340801D01*
X139759895Y-96375940D01*
X139813648Y-96409139D01*
X139868268Y-96440464D01*
X139921807Y-96468980D01*
X139923441Y-96469850D01*
X139923901Y-96470123D01*
X139965608Y-96497593D01*
X139987741Y-96512171D01*
X140053512Y-96552045D01*
X140120974Y-96589504D01*
X140190101Y-96624450D01*
X140260873Y-96656785D01*
X140296868Y-96671942D01*
X140333265Y-96686410D01*
X140370062Y-96700177D01*
X140407255Y-96713230D01*
X140444842Y-96725557D01*
X140482820Y-96737146D01*
X140556864Y-96757272D01*
X140631483Y-96774491D01*
X140631495Y-96774493D01*
X140631494Y-96774493D01*
X140685686Y-96783789D01*
X140782111Y-96800332D01*
X140782113Y-96800332D01*
X140782118Y-96800333D01*
X140863009Y-96808097D01*
X140934024Y-96814915D01*
X141025536Y-96817056D01*
X141086542Y-96818484D01*
X141086542Y-96818483D01*
X141086544Y-96818484D01*
X141106623Y-96817536D01*
X141238983Y-96811288D01*
X141390677Y-96793569D01*
X141390677Y-96793568D01*
X141390685Y-96793568D01*
X141540948Y-96765572D01*
X141689100Y-96727546D01*
X141834462Y-96679736D01*
X141834467Y-96679734D01*
X141834468Y-96679734D01*
X141971244Y-96624450D01*
X141976353Y-96622385D01*
X142114096Y-96555741D01*
X142173569Y-96521872D01*
X142247003Y-96480053D01*
X142247002Y-96480053D01*
X142248010Y-96479385D01*
X142374416Y-96395553D01*
X142438967Y-96346002D01*
X142495630Y-96302506D01*
X142504772Y-96294403D01*
X142602409Y-96207855D01*
X142609987Y-96201138D01*
X142609988Y-96201138D01*
X142716797Y-96091705D01*
X142768512Y-96032428D01*
X142817547Y-95972076D01*
X142863923Y-95910706D01*
X142907667Y-95848370D01*
X142948804Y-95785124D01*
X142987359Y-95721017D01*
X143023358Y-95656107D01*
X143023939Y-95654967D01*
X143053626Y-95596723D01*
X143060320Y-95591008D01*
X143063872Y-95590446D01*
X150149764Y-95590446D01*
X150157896Y-95593814D01*
X150160507Y-95597844D01*
X150174141Y-95633551D01*
X150181378Y-95652502D01*
X150189694Y-95670861D01*
X150208645Y-95712701D01*
X150208645Y-95712700D01*
X150239324Y-95770991D01*
X150239329Y-95771000D01*
X150239331Y-95771003D01*
X150273261Y-95827335D01*
X150310309Y-95881702D01*
X150310310Y-95881702D01*
X150350297Y-95934025D01*
X150393076Y-95984275D01*
X150393075Y-95984275D01*
X150437270Y-96031116D01*
X150438502Y-96032421D01*
X150486405Y-96078403D01*
X150536635Y-96122184D01*
X150582323Y-96156740D01*
X150641021Y-96201137D01*
X150643452Y-96202975D01*
X150757710Y-96274453D01*
X150757712Y-96274454D01*
X150757711Y-96274454D01*
X150878168Y-96336280D01*
X151003572Y-96388111D01*
X151132693Y-96429613D01*
X151264274Y-96460439D01*
X151264275Y-96460439D01*
X151264284Y-96460441D01*
X151397096Y-96480256D01*
X151529889Y-96488719D01*
X151529889Y-96488718D01*
X151529890Y-96488719D01*
X151661413Y-96485490D01*
X151661413Y-96485489D01*
X151661419Y-96485489D01*
X151685611Y-96483213D01*
X151726310Y-96479385D01*
X151726309Y-96479385D01*
X151746222Y-96476541D01*
X151790442Y-96470226D01*
X151824051Y-96463709D01*
X151853621Y-96457977D01*
X151915715Y-96442591D01*
X152003202Y-96415756D01*
X152003201Y-96415756D01*
X152077315Y-96388112D01*
X152086704Y-96384610D01*
X152094645Y-96381088D01*
X152166276Y-96349314D01*
X152166277Y-96349314D01*
X152241933Y-96310040D01*
X152241934Y-96310040D01*
X152313698Y-96266957D01*
X152381590Y-96220239D01*
X152405367Y-96201607D01*
X152445635Y-96170053D01*
X152505854Y-96116570D01*
X152562269Y-96059961D01*
X152614902Y-96000399D01*
X152663773Y-95938056D01*
X152663774Y-95938053D01*
X152663783Y-95938043D01*
X152708927Y-95873075D01*
X152750359Y-95805661D01*
X152788101Y-95735972D01*
X152799146Y-95712701D01*
X152822173Y-95664186D01*
X152830401Y-95644251D01*
X152849674Y-95597557D01*
X152855890Y-95591327D01*
X152860304Y-95590446D01*
X155728917Y-95590446D01*
X155728918Y-95590446D01*
X155728918Y-72730805D01*
X155732286Y-72722673D01*
X155733366Y-72721721D01*
X155960136Y-72545691D01*
X156075144Y-72456020D01*
X156187807Y-72366024D01*
X156222097Y-72335550D01*
X156263397Y-72298845D01*
X156263398Y-72298845D01*
X156331362Y-72227100D01*
X156391836Y-72151197D01*
X156444973Y-72071520D01*
X156490911Y-71988477D01*
X156529804Y-71902445D01*
X156561788Y-71813838D01*
X156586451Y-71725060D01*
X156587012Y-71723042D01*
X156587012Y-71723041D01*
X156605620Y-71630452D01*
X156617758Y-71536467D01*
X156617759Y-71536463D01*
X156617759Y-71536462D01*
X156623569Y-71441477D01*
X156623569Y-71441476D01*
X156623199Y-71345894D01*
X156623199Y-71345893D01*
X156616794Y-71250102D01*
X156616793Y-71250099D01*
X156616793Y-71250089D01*
X156604495Y-71154473D01*
X156586450Y-71059439D01*
X156562804Y-70965382D01*
X156533701Y-70872697D01*
X156518204Y-70831760D01*
X156499289Y-70781789D01*
X156499288Y-70781788D01*
X156499285Y-70781780D01*
X156459703Y-70693027D01*
X156415098Y-70606834D01*
X156415099Y-70606834D01*
X156365615Y-70523591D01*
X156311403Y-70443706D01*
X156311404Y-70443706D01*
X156252598Y-70367558D01*
X156252596Y-70367555D01*
X156189350Y-70295550D01*
X156121805Y-70228082D01*
X156050108Y-70165546D01*
X155974402Y-70108336D01*
X155894832Y-70056850D01*
X155894830Y-70056849D01*
X155894831Y-70056849D01*
X155862660Y-70039326D01*
X155811544Y-70011483D01*
X155724682Y-69972629D01*
X155665306Y-69951622D01*
X155634399Y-69940687D01*
X155634396Y-69940686D01*
X155634390Y-69940684D01*
X155540815Y-69916045D01*
X155540811Y-69916044D01*
X155540803Y-69916042D01*
X155263745Y-69857250D01*
X154986587Y-69801978D01*
X154709343Y-69750168D01*
X154432013Y-69701758D01*
X154154596Y-69656686D01*
X153877093Y-69614889D01*
X153599504Y-69576305D01*
X153325638Y-69541358D01*
X153319076Y-69538195D01*
X153225874Y-69447551D01*
X153123233Y-69363495D01*
X153123234Y-69363495D01*
X153074041Y-69329812D01*
X153014592Y-69289106D01*
X153014588Y-69289103D01*
X152900671Y-69224808D01*
X152900662Y-69224804D01*
X152900663Y-69224804D01*
X152900657Y-69224801D01*
X152782123Y-69170988D01*
X152721349Y-69148145D01*
X152721339Y-69148141D01*
X152659690Y-69128080D01*
X152659687Y-69128079D01*
X152639725Y-69122570D01*
X152597226Y-69110841D01*
X152597227Y-69110841D01*
X152534068Y-69096487D01*
X152534051Y-69096484D01*
X152534047Y-69096483D01*
X152505900Y-69091442D01*
X152470245Y-69085056D01*
X152405899Y-69076611D01*
X152397799Y-69075934D01*
X152341110Y-69071200D01*
X152275946Y-69068873D01*
X152275943Y-69068873D01*
X152275942Y-69068873D01*
X152243222Y-69069278D01*
X152210499Y-69069683D01*
X152166749Y-69072347D01*
X152144873Y-69073680D01*
X152079139Y-69080916D01*
X152079134Y-69080916D01*
X152079123Y-69080918D01*
X152013393Y-69091442D01*
X151947714Y-69105308D01*
X151926400Y-69110923D01*
X151882186Y-69122570D01*
X151882177Y-69122573D01*
X151816913Y-69143273D01*
X151751966Y-69167473D01*
X151751965Y-69167473D01*
X151687435Y-69195220D01*
X151623425Y-69226560D01*
X151623426Y-69226560D01*
X151623418Y-69226564D01*
X151559992Y-69261557D01*
X151497247Y-69300251D01*
X151435269Y-69342697D01*
X151435254Y-69342707D01*
X151435253Y-69342709D01*
X151377392Y-69386489D01*
X151370079Y-69388812D01*
X151057788Y-69378647D01*
X150741344Y-69372400D01*
X150424817Y-69370250D01*
X150108207Y-69372243D01*
X149791515Y-69378423D01*
X149474744Y-69388834D01*
X149157894Y-69403523D01*
X148855866Y-69421639D01*
X148847547Y-69418764D01*
X148843698Y-69410849D01*
X148843900Y-69407902D01*
X148859560Y-69329812D01*
X148862735Y-69306237D01*
X148872188Y-69236032D01*
X148878964Y-69141548D01*
X148878964Y-69141549D01*
X148880007Y-69046655D01*
X148875433Y-68951737D01*
X148865354Y-68857086D01*
X148865354Y-68857085D01*
X148849890Y-68763051D01*
X148833433Y-68689176D01*
X148829158Y-68669984D01*
X148805512Y-68586143D01*
X148803270Y-68578194D01*
X148772344Y-68488031D01*
X148736498Y-68399828D01*
X148736498Y-68399829D01*
X148695847Y-68313918D01*
X148650505Y-68230632D01*
X148643251Y-68218959D01*
X148600595Y-68150317D01*
X148546220Y-68073285D01*
X148502448Y-68018567D01*
X148499998Y-68010113D01*
X148504244Y-68002403D01*
X148511428Y-67999883D01*
X158126575Y-67999883D01*
X158134707Y-68003251D01*
X158138075Y-68011383D01*
X158138075Y-97988618D01*
X158134707Y-97996750D01*
X158126575Y-98000118D01*
X101873425Y-98000118D01*
X101865293Y-97996750D01*
X101861925Y-97988618D01*
X101861925Y-68011383D01*
X101865293Y-68003251D01*
X101873425Y-67999883D01*
X124490734Y-67999883D01*
X124498866Y-68003251D01*
G37*
%TD.AperFunction*%
M02*
