%TF.GenerationSoftware,KiCad,Pcbnew,7.0.9-7.0.9~ubuntu22.04.1*%
%TF.CreationDate,2023-11-20T19:54:57+05:30*%
%TF.ProjectId,MAP4,4d415034-2e6b-4696-9361-645f70636258,1*%
%TF.SameCoordinates,Original*%
%TF.FileFunction,Profile,NP*%
%FSLAX46Y46*%
G04 Gerber Fmt 4.6, Leading zero omitted, Abs format (unit mm)*
G04 Created by KiCad (PCBNEW 7.0.9-7.0.9~ubuntu22.04.1) date 2023-11-20 19:54:57*
%MOMM*%
%LPD*%
G01*
G04 APERTURE LIST*
%TA.AperFunction,Profile*%
%ADD10C,0.100000*%
%TD*%
G04 APERTURE END LIST*
D10*
X102000000Y-66500000D02*
G75*
G03*
X100000000Y-68500000I0J-2000000D01*
G01*
X147274520Y-66024300D02*
X147104592Y-66051429D01*
X146391764Y-66264914D02*
X146175870Y-66340334D01*
X160000000Y-98000000D02*
X160000000Y-68500000D01*
X148947182Y-66301953D02*
X148791074Y-66229689D01*
X146175870Y-66340334D02*
X146067780Y-66377404D01*
X148131867Y-66039059D02*
X147961365Y-66016146D01*
X146067780Y-66377404D02*
X145959317Y-66412909D01*
X148791074Y-66229689D02*
X148630889Y-66167240D01*
X158000000Y-66500000D02*
X149244777Y-66500000D01*
X148467227Y-66114634D02*
X148300687Y-66071898D01*
X147617713Y-66000206D02*
X147445760Y-66007235D01*
X145959317Y-66412909D02*
X145850273Y-66445997D01*
X148300687Y-66071898D02*
X148131867Y-66039059D01*
X158000000Y-100000000D02*
G75*
G03*
X160000000Y-98000000I0J2000000D01*
G01*
X145850273Y-66445997D02*
X145740439Y-66500000D01*
X149244777Y-66500000D02*
X149098616Y-66384004D01*
X100000000Y-68500000D02*
X100000000Y-98000000D01*
X146499986Y-66228270D02*
X146391764Y-66264914D01*
X147789781Y-66003186D02*
X147617713Y-66000206D01*
X160000000Y-68500000D02*
G75*
G03*
X158000000Y-66500000I-2000000J0D01*
G01*
X102000000Y-100000000D02*
X158000000Y-100000000D01*
X146936575Y-66088649D02*
X146771068Y-66135988D01*
X100000000Y-98000000D02*
G75*
G03*
X102000000Y-100000000I2000000J0D01*
G01*
X147445760Y-66007235D02*
X147274520Y-66024300D01*
X146771068Y-66135988D02*
X146608668Y-66193474D01*
X147104592Y-66051429D02*
X146936575Y-66088649D01*
X149098616Y-66384004D02*
X148947182Y-66301953D01*
X147961365Y-66016146D02*
X147789781Y-66003186D01*
X148630889Y-66167240D02*
X148467227Y-66114634D01*
X145740439Y-66500000D02*
X102000000Y-66500000D01*
X146608668Y-66193474D02*
X146499986Y-66228270D01*
M02*
