%TF.GenerationSoftware,KiCad,Pcbnew,7.0.9-7.0.9~ubuntu22.04.1*%
%TF.CreationDate,2023-11-20T19:54:57+05:30*%
%TF.ProjectId,MAP4,4d415034-2e6b-4696-9361-645f70636258,1*%
%TF.SameCoordinates,Original*%
%TF.FileFunction,Soldermask,Bot*%
%TF.FilePolarity,Negative*%
%FSLAX46Y46*%
G04 Gerber Fmt 4.6, Leading zero omitted, Abs format (unit mm)*
G04 Created by KiCad (PCBNEW 7.0.9-7.0.9~ubuntu22.04.1) date 2023-11-20 19:54:57*
%MOMM*%
%LPD*%
G01*
G04 APERTURE LIST*
%ADD10C,0.000000*%
%ADD11C,1.800000*%
%ADD12O,12.400000X3.400000*%
%ADD13C,1.600000*%
%ADD14R,1.450000X1.000000*%
%ADD15C,2.500000*%
G04 APERTURE END LIST*
D10*
G36*
X103151024Y-75082364D02*
G01*
X103141835Y-75095382D01*
X103133399Y-75108957D01*
X103125736Y-75123032D01*
X103118866Y-75137551D01*
X103112808Y-75152458D01*
X103107582Y-75167695D01*
X103103207Y-75183207D01*
X103099703Y-75198936D01*
X103097089Y-75214827D01*
X103095386Y-75230822D01*
X103094613Y-75246866D01*
X103094789Y-75262900D01*
X103095935Y-75278870D01*
X103098069Y-75294718D01*
X103101211Y-75310388D01*
X103047650Y-75307175D01*
X102994103Y-75304693D01*
X102940568Y-75302933D01*
X102887047Y-75301889D01*
X102833540Y-75301552D01*
X102780047Y-75301915D01*
X102726568Y-75302971D01*
X102673103Y-75304712D01*
X102662774Y-75296896D01*
X102652300Y-75289722D01*
X102641696Y-75283183D01*
X102630977Y-75277269D01*
X102620157Y-75271972D01*
X102609253Y-75267283D01*
X102598277Y-75263193D01*
X102587245Y-75259694D01*
X102576172Y-75256777D01*
X102565072Y-75254434D01*
X102553960Y-75252655D01*
X102542851Y-75251432D01*
X102531759Y-75250756D01*
X102520700Y-75250619D01*
X102509688Y-75251013D01*
X102498737Y-75251927D01*
X102487863Y-75253354D01*
X102477080Y-75255285D01*
X102466403Y-75257712D01*
X102455847Y-75260625D01*
X102445426Y-75264016D01*
X102435156Y-75267877D01*
X102415123Y-75276971D01*
X102395868Y-75287839D01*
X102377508Y-75300410D01*
X102360161Y-75314616D01*
X102343945Y-75330387D01*
X102297018Y-75336375D01*
X102250106Y-75342896D01*
X102203208Y-75349960D01*
X102156324Y-75357577D01*
X102109455Y-75365758D01*
X102062601Y-75374514D01*
X102015761Y-75383855D01*
X101968937Y-75393791D01*
X101953122Y-75397955D01*
X101937863Y-75403354D01*
X101923183Y-75409920D01*
X101909108Y-75417587D01*
X101895660Y-75426289D01*
X101882866Y-75435957D01*
X101870749Y-75446526D01*
X101859334Y-75457928D01*
X101848646Y-75470097D01*
X101838708Y-75482965D01*
X101829545Y-75496467D01*
X101821183Y-75510534D01*
X101813645Y-75525101D01*
X101806955Y-75540101D01*
X101801139Y-75555466D01*
X101796220Y-75571129D01*
X101792224Y-75587025D01*
X101789175Y-75603086D01*
X101787096Y-75619245D01*
X101786014Y-75635435D01*
X101785951Y-75651590D01*
X101786933Y-75667643D01*
X101788984Y-75683526D01*
X101792129Y-75699174D01*
X101796392Y-75714518D01*
X101801798Y-75729493D01*
X101808370Y-75744032D01*
X101816134Y-75758067D01*
X101825114Y-75771532D01*
X101835335Y-75784360D01*
X101846820Y-75796484D01*
X101859595Y-75807838D01*
X101878635Y-75823047D01*
X101898071Y-75838202D01*
X101937147Y-75868534D01*
X101937147Y-79732765D01*
X102423243Y-79732765D01*
X102428386Y-79745226D01*
X102434145Y-79757359D01*
X102440524Y-79769137D01*
X102447526Y-79780529D01*
X102455155Y-79791509D01*
X102463415Y-79802047D01*
X102472311Y-79812113D01*
X102481845Y-79821680D01*
X102492022Y-79830719D01*
X102502845Y-79839200D01*
X102514319Y-79847096D01*
X102526447Y-79854376D01*
X102539233Y-79861014D01*
X102552681Y-79866979D01*
X102566795Y-79872243D01*
X102581578Y-79876777D01*
X102592072Y-79879378D01*
X102602750Y-79881448D01*
X102613586Y-79882995D01*
X102624555Y-79884027D01*
X102646783Y-79884573D01*
X102669225Y-79883143D01*
X102691670Y-79879794D01*
X102713909Y-79874584D01*
X102735730Y-79867571D01*
X102756924Y-79858811D01*
X102777281Y-79848362D01*
X102796591Y-79836282D01*
X102814643Y-79822629D01*
X102823132Y-79815230D01*
X102831228Y-79807459D01*
X102838904Y-79799323D01*
X102846134Y-79790830D01*
X102852893Y-79781987D01*
X102859153Y-79772800D01*
X102864889Y-79763277D01*
X102870074Y-79753426D01*
X102874681Y-79743253D01*
X102878686Y-79732765D01*
X104078731Y-79732765D01*
X104084387Y-79743862D01*
X104090471Y-79754832D01*
X104096986Y-79765666D01*
X104103939Y-79776354D01*
X104111331Y-79786889D01*
X104119169Y-79797261D01*
X104127456Y-79807460D01*
X104136196Y-79817478D01*
X104154246Y-79835972D01*
X104173572Y-79853102D01*
X104194058Y-79868828D01*
X104215590Y-79883108D01*
X104238052Y-79895900D01*
X104261331Y-79907163D01*
X104285310Y-79916855D01*
X104309876Y-79924935D01*
X104334914Y-79931362D01*
X104360308Y-79936093D01*
X104385945Y-79939087D01*
X104411708Y-79940304D01*
X104437484Y-79939700D01*
X104463158Y-79937236D01*
X104488614Y-79932869D01*
X104501224Y-79929959D01*
X104513738Y-79926557D01*
X104520156Y-79924599D01*
X104526508Y-79922516D01*
X104532794Y-79920310D01*
X104539013Y-79917983D01*
X104545164Y-79915538D01*
X104551247Y-79912976D01*
X104563207Y-79907512D01*
X104574890Y-79901606D01*
X104586291Y-79895275D01*
X104597406Y-79888537D01*
X104608232Y-79881406D01*
X104617597Y-79876418D01*
X104626828Y-79871124D01*
X104635912Y-79865514D01*
X104644838Y-79859575D01*
X104653593Y-79853298D01*
X104657902Y-79850029D01*
X104662165Y-79846671D01*
X104666378Y-79843223D01*
X104670541Y-79839684D01*
X104674652Y-79836051D01*
X104678710Y-79832325D01*
X104684469Y-79826803D01*
X104690065Y-79821175D01*
X104695500Y-79815443D01*
X104700773Y-79809612D01*
X104705885Y-79803682D01*
X104710836Y-79797657D01*
X104715628Y-79791540D01*
X104720260Y-79785333D01*
X104724733Y-79779039D01*
X104729047Y-79772661D01*
X104733203Y-79766200D01*
X104737202Y-79759661D01*
X104741044Y-79753045D01*
X104744730Y-79746355D01*
X104748259Y-79739594D01*
X104751633Y-79732765D01*
X105084809Y-79732765D01*
X105087050Y-79743669D01*
X105089363Y-79754552D01*
X105091582Y-79765458D01*
X105092605Y-79770934D01*
X105093542Y-79776431D01*
X105095968Y-79788690D01*
X105099201Y-79800590D01*
X105103207Y-79812123D01*
X105107950Y-79823280D01*
X105113395Y-79834054D01*
X105119508Y-79844436D01*
X105126254Y-79854418D01*
X105133598Y-79863991D01*
X105141506Y-79873147D01*
X105149941Y-79881879D01*
X105158869Y-79890177D01*
X105168256Y-79898033D01*
X105178066Y-79905439D01*
X105188265Y-79912387D01*
X105198818Y-79918869D01*
X105209689Y-79924875D01*
X105220844Y-79930398D01*
X105232248Y-79935430D01*
X105243866Y-79939962D01*
X105255664Y-79943985D01*
X105267606Y-79947492D01*
X105279657Y-79950475D01*
X105291782Y-79952924D01*
X105303948Y-79954833D01*
X105316118Y-79956191D01*
X105328258Y-79956992D01*
X105340332Y-79957226D01*
X105352307Y-79956886D01*
X105364147Y-79955963D01*
X105375818Y-79954448D01*
X105387283Y-79952335D01*
X105398510Y-79949613D01*
X105408449Y-79946671D01*
X105418093Y-79943397D01*
X105427440Y-79939797D01*
X105436493Y-79935882D01*
X105445251Y-79931659D01*
X105453716Y-79927138D01*
X105461888Y-79922326D01*
X105469768Y-79917233D01*
X105477358Y-79911866D01*
X105484657Y-79906235D01*
X105491667Y-79900348D01*
X105498388Y-79894214D01*
X105504821Y-79887841D01*
X105510968Y-79881237D01*
X105516828Y-79874412D01*
X105522403Y-79867374D01*
X105527693Y-79860131D01*
X105532699Y-79852692D01*
X105537423Y-79845066D01*
X105541864Y-79837261D01*
X105549903Y-79821148D01*
X105556823Y-79804422D01*
X105562630Y-79787153D01*
X105567330Y-79769408D01*
X105570931Y-79751256D01*
X105573438Y-79732765D01*
X107248750Y-79732765D01*
X107257775Y-79740753D01*
X107267218Y-79748297D01*
X107277050Y-79755390D01*
X107287247Y-79762025D01*
X107297780Y-79768194D01*
X107308624Y-79773891D01*
X107319751Y-79779108D01*
X107331135Y-79783838D01*
X107342749Y-79788074D01*
X107354566Y-79791809D01*
X107366560Y-79795036D01*
X107378704Y-79797748D01*
X107390970Y-79799937D01*
X107403334Y-79801597D01*
X107415767Y-79802720D01*
X107428242Y-79803299D01*
X107440735Y-79803326D01*
X107453216Y-79802796D01*
X107465660Y-79801700D01*
X107478041Y-79800032D01*
X107490330Y-79797785D01*
X107502502Y-79794950D01*
X107514530Y-79791522D01*
X107526387Y-79787492D01*
X107538046Y-79782855D01*
X107549481Y-79777602D01*
X107560665Y-79771727D01*
X107571571Y-79765222D01*
X107582172Y-79758081D01*
X107592442Y-79750296D01*
X107602354Y-79741859D01*
X107611882Y-79732765D01*
X108537351Y-79732765D01*
X108542232Y-79740050D01*
X108547323Y-79747225D01*
X108552626Y-79754286D01*
X108558142Y-79761228D01*
X108563873Y-79768047D01*
X108569820Y-79774738D01*
X108575984Y-79781297D01*
X108582367Y-79787720D01*
X108588970Y-79794001D01*
X108595794Y-79800136D01*
X108602840Y-79806121D01*
X108610110Y-79811952D01*
X108617605Y-79817623D01*
X108625326Y-79823130D01*
X108633275Y-79828469D01*
X108641453Y-79833635D01*
X108656987Y-79842608D01*
X108672842Y-79850720D01*
X108688984Y-79857977D01*
X108705379Y-79864388D01*
X108721989Y-79869957D01*
X108738782Y-79874692D01*
X108755720Y-79878598D01*
X108772770Y-79881683D01*
X108789895Y-79883953D01*
X108807062Y-79885414D01*
X108824235Y-79886073D01*
X108841378Y-79885936D01*
X108858456Y-79885011D01*
X108875436Y-79883302D01*
X108892280Y-79880818D01*
X108908954Y-79877563D01*
X108916099Y-79879089D01*
X108923254Y-79880425D01*
X108930425Y-79881568D01*
X108937616Y-79882515D01*
X108944834Y-79883262D01*
X108952083Y-79883806D01*
X108959369Y-79884142D01*
X108966697Y-79884269D01*
X108974072Y-79884182D01*
X108981500Y-79883878D01*
X108988986Y-79883353D01*
X108996534Y-79882605D01*
X109004151Y-79881629D01*
X109011842Y-79880422D01*
X109019611Y-79878980D01*
X109027465Y-79877301D01*
X109038165Y-79874450D01*
X109048974Y-79870794D01*
X109059828Y-79866384D01*
X109070662Y-79861271D01*
X109081411Y-79855505D01*
X109092011Y-79849138D01*
X109102395Y-79842219D01*
X109112500Y-79834800D01*
X109122261Y-79826931D01*
X109131613Y-79818662D01*
X109140490Y-79810045D01*
X109148828Y-79801131D01*
X109156563Y-79791969D01*
X109163629Y-79782610D01*
X109169961Y-79773106D01*
X109175495Y-79763506D01*
X109179492Y-79755831D01*
X109183358Y-79748148D01*
X109187114Y-79740459D01*
X109190779Y-79732765D01*
X109358807Y-79732765D01*
X109362618Y-79741000D01*
X109366781Y-79749083D01*
X109371282Y-79757008D01*
X109376108Y-79764767D01*
X109381247Y-79772354D01*
X109386685Y-79779760D01*
X109392411Y-79786979D01*
X109398411Y-79794003D01*
X109404673Y-79800825D01*
X109411183Y-79807437D01*
X109417928Y-79813834D01*
X109424897Y-79820006D01*
X109432076Y-79825947D01*
X109439453Y-79831650D01*
X109447014Y-79837107D01*
X109454746Y-79842312D01*
X109470676Y-79851932D01*
X109478847Y-79856334D01*
X109487138Y-79860454D01*
X109495538Y-79864285D01*
X109504032Y-79867819D01*
X109512608Y-79871049D01*
X109521254Y-79873968D01*
X109529956Y-79876569D01*
X109538702Y-79878844D01*
X109547478Y-79880786D01*
X109556273Y-79882388D01*
X109565073Y-79883643D01*
X109573865Y-79884542D01*
X109582637Y-79885080D01*
X109591376Y-79885249D01*
X109601371Y-79885062D01*
X109611190Y-79884506D01*
X109620832Y-79883588D01*
X109630293Y-79882316D01*
X109648671Y-79878740D01*
X109666307Y-79873834D01*
X109683187Y-79867659D01*
X109699296Y-79860272D01*
X109714620Y-79851734D01*
X109729142Y-79842102D01*
X109742848Y-79831437D01*
X109755724Y-79819796D01*
X109767753Y-79807238D01*
X109778922Y-79793823D01*
X109789214Y-79779609D01*
X109798616Y-79764656D01*
X109807112Y-79749022D01*
X109814687Y-79732765D01*
X110633522Y-79732765D01*
X110633522Y-76095164D01*
X110657867Y-76048773D01*
X110679700Y-76001307D01*
X110698944Y-75952866D01*
X110715523Y-75903550D01*
X110729361Y-75853457D01*
X110740380Y-75802688D01*
X110748505Y-75751341D01*
X110753659Y-75699516D01*
X110755765Y-75647313D01*
X110754748Y-75594831D01*
X110750530Y-75542169D01*
X110743036Y-75489427D01*
X110732188Y-75436704D01*
X110717910Y-75384100D01*
X110700127Y-75331715D01*
X110678760Y-75279647D01*
X110673266Y-75268408D01*
X110667084Y-75257726D01*
X110660249Y-75247598D01*
X110652798Y-75238024D01*
X110644767Y-75229004D01*
X110636191Y-75220536D01*
X110627107Y-75212619D01*
X110617549Y-75205253D01*
X110607556Y-75198437D01*
X110597162Y-75192170D01*
X110586403Y-75186451D01*
X110575315Y-75181279D01*
X110563935Y-75176653D01*
X110552297Y-75172573D01*
X110540439Y-75169038D01*
X110528396Y-75166046D01*
X110516205Y-75163598D01*
X110503900Y-75161691D01*
X110491518Y-75160326D01*
X110479095Y-75159501D01*
X110466667Y-75159216D01*
X110454270Y-75159469D01*
X110441940Y-75160260D01*
X110429712Y-75161588D01*
X110417624Y-75163452D01*
X110405710Y-75165852D01*
X110394006Y-75168785D01*
X110382550Y-75172253D01*
X110371376Y-75176253D01*
X110360520Y-75180784D01*
X110350019Y-75185847D01*
X110339908Y-75191440D01*
X110330226Y-75197389D01*
X110321007Y-75203640D01*
X110312245Y-75210183D01*
X110303933Y-75217004D01*
X110296065Y-75224093D01*
X110288634Y-75231437D01*
X110281634Y-75239025D01*
X110275058Y-75246845D01*
X110268900Y-75254884D01*
X110263153Y-75263132D01*
X110257811Y-75271576D01*
X110252867Y-75280205D01*
X110248314Y-75289006D01*
X110244147Y-75297968D01*
X110240358Y-75307079D01*
X110236942Y-75316327D01*
X110229975Y-75311422D01*
X110222818Y-75306761D01*
X110215471Y-75302352D01*
X110207937Y-75298205D01*
X110200217Y-75294329D01*
X110192312Y-75290734D01*
X110184224Y-75287428D01*
X110175954Y-75284420D01*
X110167503Y-75281721D01*
X110158873Y-75279339D01*
X110150065Y-75277283D01*
X110141081Y-75275563D01*
X110131922Y-75274188D01*
X110122590Y-75273167D01*
X110113085Y-75272509D01*
X110103409Y-75272224D01*
X108865012Y-75262869D01*
X107626310Y-75266439D01*
X107007155Y-75276677D01*
X106388296Y-75294473D01*
X105769860Y-75321269D01*
X105151968Y-75358509D01*
X104628173Y-75293151D01*
X104365781Y-75263891D01*
X104103184Y-75238949D01*
X103851834Y-75154788D01*
X103600756Y-75069960D01*
X111040669Y-75069960D01*
X111040669Y-80140000D01*
X101530000Y-80140000D01*
X101530000Y-75069960D01*
X103160947Y-75069960D01*
X103151024Y-75082364D01*
G37*
D11*
%TO.C,D1*%
X115970000Y-94400000D03*
X113430000Y-94400000D03*
%TD*%
%TO.C,D2*%
X142320000Y-94400000D03*
X139780000Y-94400000D03*
%TD*%
D12*
%TO.C,P2*%
X130000000Y-69200000D03*
%TD*%
D13*
%TO.C,R1*%
X110100000Y-84536000D03*
D14*
X110100000Y-87650000D03*
X110100000Y-89550000D03*
D13*
X110100000Y-92664000D03*
%TD*%
%TO.C,R2*%
X147200000Y-83036000D03*
D14*
X147200000Y-86150000D03*
X147200000Y-88050000D03*
D13*
X147200000Y-91164000D03*
%TD*%
D15*
%TO.C,BT1*%
X116000000Y-82000000D03*
X118200000Y-82000000D03*
X138100000Y-82000000D03*
X143000000Y-82000000D03*
%TD*%
M02*
