  0
SECTION
  2
HEADER
  9
$ANGBASE
  50
0.0
  9
$ANGDIR
  70
1
  9
$MEASUREMENT
  70
1
  0
ENDSEC
  0
SECTION
  2
TABLES
  0
TABLE
  2
LTYPE
  70
4
  0
LTYPE
  5
40F
  2
CONTINUOUS
  70
0
  3
Solid line
  72
65
  73
0
  40
0.0
  0
LTYPE
  5
410
  2
DASHDOT
 70
0
  3
Dash Dot ____ _ ____ _
 72
65
 73
4
 40
2.0
 49
1.25
 49
-0.25
 49
0.25
 49
-0.25
  0
LTYPE
  5
411
  2
DASHED
 70
0
  3
Dashed __ __ __ __ __
 72
65
 73
2
 40
0.75
 49
0.5
 49
-0.25
  0
LTYPE
  5
43B
  2
DOTTED
 70
0
  3
Dotted .  .  .  .
 72
65
 73
2
 40
0.2
 49
0.0
 49
-0.2
  0
ENDTAB
  0
TABLE
  2
STYLE
  70
4
  0
STYLE
  2
KICAD
  70
0
  40
0
  41
1
  42
1
  50
0
  71
0
  3
isocp.shx
  0
STYLE
  2
KICADB
  70
0
  40
0
  41
1
  42
1
  50
0
  71
0
  3
isocp.shx
  0
STYLE
  2
KICADI
  70
0
  40
0
  41
1
  42
1
  50
15
  71
0
  3
isocp.shx
  0
STYLE
  2
KICADBI
  70
0
  40
0
  41
1
  42
1
  50
15
  71
0
  3
isocp.shx
  0
ENDTAB
  0
TABLE
  2
LAYER
  70
1
  0
LAYER
  2
BLACK
  70
0
  62
7
  6
CONTINUOUS
  0
ENDTAB
  0
ENDSEC
  0
SECTION
  2
ENTITIES
0
LINE
8
BLACK
6
CONTINUOUS
10
143.0697940000000017
20
-87.4260439999999903
11
143.4853549999999984
21
-87.4553069999999906
0
LINE
8
BLACK
6
CONTINUOUS
10
143.4853549999999984
20
-87.4553069999999906
11
143.8949069999999892
21
-87.5054909999999921
0
LINE
8
BLACK
6
CONTINUOUS
10
143.8949069999999892
20
-87.5054909999999921
11
144.2984589999999798
21
-87.5757079999999917
0
LINE
8
BLACK
6
CONTINUOUS
10
144.2984589999999798
20
-87.5757079999999917
11
144.6960249999999917
21
-87.6650709999999975
0
LINE
8
BLACK
6
CONTINUOUS
10
144.6960249999999917
20
-87.6650709999999975
11
145.0876149999999996
21
-87.7726909999999947
0
LINE
8
BLACK
6
CONTINUOUS
10
145.0876149999999996
20
-87.7726909999999947
11
145.4732410000000016
21
-87.897679999999994
0
LINE
8
BLACK
6
CONTINUOUS
10
145.4732410000000016
20
-87.897679999999994
11
145.8529139999999984
21
-88.0391499999999922
0
LINE
8
BLACK
6
CONTINUOUS
10
145.8529139999999984
20
-88.0391499999999922
11
146.2266469999999856
21
-88.1962139999999977
0
LINE
8
BLACK
6
CONTINUOUS
10
146.2266469999999856
20
-88.1962139999999977
11
146.5944489999999973
21
-88.3679819999999978
0
LINE
8
BLACK
6
CONTINUOUS
10
146.5944489999999973
20
-88.3679819999999978
11
146.9563339999999982
21
-88.553567000000001
0
LINE
8
BLACK
6
CONTINUOUS
10
146.9563339999999982
20
-88.553567000000001
11
147.312310999999994
21
-88.7520820000000015
0
LINE
8
BLACK
6
CONTINUOUS
10
147.312310999999994
20
-88.7520820000000015
11
147.6623929999999802
21
-88.9626370000000009
0
LINE
8
BLACK
6
CONTINUOUS
10
147.6623929999999802
20
-88.9626370000000009
11
148.0065919999999835
21
-89.1843449999999933
0
LINE
8
BLACK
6
CONTINUOUS
10
148.0065919999999835
20
-89.1843449999999933
11
148.3449180000000069
21
-89.4163169999999923
0
LINE
8
BLACK
6
CONTINUOUS
10
148.3449180000000069
20
-89.4163169999999923
11
148.6773829999999919
21
-89.6576669999999893
0
LINE
8
BLACK
6
CONTINUOUS
10
148.6773829999999919
20
-89.6576669999999893
11
149.0039989999999932
21
-89.9075050000000005
0
LINE
8
BLACK
6
CONTINUOUS
10
149.0039989999999932
20
-89.9075050000000005
11
149.3050529999999867
21
-90.1479279999999932
0
LINE
8
BLACK
6
CONTINUOUS
10
149.3050529999999867
20
-90.1479279999999932
11
149.600986000000006
21
-90.394244999999998
0
LINE
8
BLACK
6
CONTINUOUS
10
149.600986000000006
20
-90.394244999999998
11
149.8921100000000024
21
-90.6460330000000027
0
LINE
8
BLACK
6
CONTINUOUS
10
149.8921100000000024
20
-90.6460330000000027
11
150.1787369999999839
21
-90.9028689999999955
0
LINE
8
BLACK
6
CONTINUOUS
10
150.1787369999999839
20
-90.9028689999999955
11
150.4611779999999897
21
-91.1643320000000017
0
LINE
8
BLACK
6
CONTINUOUS
10
150.4611779999999897
20
-91.1643320000000017
11
150.7397459999999967
21
-91.4299989999999951
0
LINE
8
BLACK
6
CONTINUOUS
10
150.7397459999999967
20
-91.4299989999999951
11
151.0147509999999897
21
-91.6994479999999896
0
LINE
8
BLACK
6
CONTINUOUS
10
151.0147509999999897
20
-91.6994479999999896
11
151.2865070000000003
21
-91.972256999999999
0
LINE
8
BLACK
6
CONTINUOUS
10
151.2865070000000003
20
-91.972256999999999
11
151.5629349999999818
21
-92.2592929999999996
0
LINE
8
BLACK
6
CONTINUOUS
10
151.5629349999999818
20
-92.2592929999999996
11
151.6984960000000058
21
-92.4064719999999937
0
LINE
8
BLACK
6
CONTINUOUS
10
151.6984960000000058
20
-92.4064719999999937
11
151.8312849999999798
21
-92.5563709999999986
0
LINE
8
BLACK
6
CONTINUOUS
10
151.8312849999999798
20
-92.5563709999999986
11
151.9605499999999836
21
-92.709196999999989
0
LINE
8
BLACK
6
CONTINUOUS
10
151.9605499999999836
20
-92.709196999999989
11
152.085536999999988
21
-92.8651610000000005
0
LINE
8
BLACK
6
CONTINUOUS
10
152.085536999999988
20
-92.8651610000000005
11
152.2054929999999899
21
-93.0244709999999912
0
LINE
8
BLACK
6
CONTINUOUS
10
152.2054929999999899
20
-93.0244709999999912
11
152.3196669999999813
21
-93.1873349999999903
0
LINE
8
BLACK
6
CONTINUOUS
10
152.3196669999999813
20
-93.1873349999999903
11
152.4273049999999898
21
-93.3539619999999957
0
LINE
8
BLACK
6
CONTINUOUS
10
152.4273049999999898
20
-93.3539619999999957
11
152.5276549999999816
21
-93.5245619999999889
0
LINE
8
BLACK
6
CONTINUOUS
10
152.5276549999999816
20
-93.5245619999999889
11
152.6199639999999818
21
-93.6993429999999989
0
LINE
8
BLACK
6
CONTINUOUS
10
152.6199639999999818
20
-93.6993429999999989
11
152.7034789999999873
21
-93.8785139999999956
0
LINE
8
BLACK
6
CONTINUOUS
10
152.7034789999999873
20
-93.8785139999999956
11
152.7774479999999926
21
-94.0622829999999936
0
LINE
8
BLACK
6
CONTINUOUS
10
152.7774479999999926
20
-94.0622829999999936
11
152.841116999999997
21
-94.2508589999999913
0
LINE
8
BLACK
6
CONTINUOUS
10
152.841116999999997
20
-94.2508589999999913
11
152.8937349999999924
21
-94.4444519999999983
0
LINE
8
BLACK
6
CONTINUOUS
10
152.8937349999999924
20
-94.4444519999999983
11
152.9345480000000066
21
-94.6432700000000011
0
LINE
8
BLACK
6
CONTINUOUS
10
152.9345480000000066
20
-94.6432700000000011
11
152.9458099999999945
21
-94.7167139999999961
0
LINE
8
BLACK
6
CONTINUOUS
10
152.9458099999999945
20
-94.7167139999999961
11
152.9543319999999937
21
-94.7901079999999894
0
LINE
8
BLACK
6
CONTINUOUS
10
152.9543319999999937
20
-94.7901079999999894
11
152.9601079999999911
21
-94.8633459999999928
0
LINE
8
BLACK
6
CONTINUOUS
10
152.9601079999999911
20
-94.8633459999999928
11
152.9631349999999941
21
-94.9363230000000016
0
LINE
8
BLACK
6
CONTINUOUS
10
152.9631349999999941
20
-94.9363230000000016
11
152.963405999999992
21
-95.0089349999999939
0
LINE
8
BLACK
6
CONTINUOUS
10
152.963405999999992
20
-95.0089349999999939
11
152.9609179999999924
21
-95.0810749999999985
0
LINE
8
BLACK
6
CONTINUOUS
10
152.9609179999999924
20
-95.0810749999999985
11
152.955664999999982
21
-95.1526379999999961
0
LINE
8
BLACK
6
CONTINUOUS
10
152.955664999999982
20
-95.1526379999999961
11
152.9476429999999993
21
-95.223518999999996
0
LINE
8
BLACK
6
CONTINUOUS
10
152.9476429999999993
20
-95.223518999999996
11
152.9368460000000027
21
-95.2936139999999909
0
LINE
8
BLACK
6
CONTINUOUS
10
152.9368460000000027
20
-95.2936139999999909
11
152.9232700000000023
21
-95.3628159999999951
0
LINE
8
BLACK
6
CONTINUOUS
10
152.9232700000000023
20
-95.3628159999999951
11
152.9069099999999821
21
-95.4310199999999895
0
LINE
8
BLACK
6
CONTINUOUS
10
152.9069099999999821
20
-95.4310199999999895
11
152.8877609999999834
21
-95.4981209999999976
0
LINE
8
BLACK
6
CONTINUOUS
10
152.8877609999999834
20
-95.4981209999999976
11
152.8658179999999902
21
-95.5640140000000002
0
LINE
8
BLACK
6
CONTINUOUS
10
152.8658179999999902
20
-95.5640140000000002
11
152.8410759999999868
21
-95.6285939999999925
0
LINE
8
BLACK
6
CONTINUOUS
10
152.8410759999999868
20
-95.6285939999999925
11
152.8135309999999834
21
-95.6917550000000006
0
LINE
8
BLACK
6
CONTINUOUS
10
152.8135309999999834
20
-95.6917550000000006
11
152.7831769999999949
21
-95.753391999999991
0
LINE
8
BLACK
6
CONTINUOUS
10
152.7831769999999949
20
-95.753391999999991
11
152.7500090000000057
21
-95.8133989999999898
0
LINE
8
BLACK
6
CONTINUOUS
10
152.7500090000000057
20
-95.8133989999999898
11
152.7140229999999974
21
-95.8716719999999896
0
LINE
8
BLACK
6
CONTINUOUS
10
152.7140229999999974
20
-95.8716719999999896
11
152.6752139999999827
21
-95.9281050000000022
0
LINE
8
BLACK
6
CONTINUOUS
10
152.6752139999999827
20
-95.9281050000000022
11
152.6335770000000025
21
-95.9825929999999943
0
LINE
8
BLACK
6
CONTINUOUS
10
152.6335770000000025
20
-95.9825929999999943
11
152.5891069999999843
21
-96.0350299999999919
0
LINE
8
BLACK
6
CONTINUOUS
10
152.5891069999999843
20
-96.0350299999999919
11
152.541799999999995
21
-96.0853120000000018
0
LINE
8
BLACK
6
CONTINUOUS
10
152.541799999999995
20
-96.0853120000000018
11
152.4916489999999953
21
-96.1333329999999933
0
LINE
8
BLACK
6
CONTINUOUS
10
152.4916489999999953
20
-96.1333329999999933
11
152.438650999999993
21
-96.1789869999999922
0
LINE
8
BLACK
6
CONTINUOUS
10
152.438650999999993
20
-96.1789869999999922
11
152.3828010000000006
21
-96.2221699999999913
0
LINE
8
BLACK
6
CONTINUOUS
10
152.3828010000000006
20
-96.2221699999999913
11
152.3240930000000048
21
-96.2627769999999998
0
LINE
8
BLACK
6
CONTINUOUS
10
152.3240930000000048
20
-96.2627769999999998
11
152.2625229999999874
21
-96.3007009999999894
0
LINE
8
BLACK
6
CONTINUOUS
10
152.2625229999999874
20
-96.3007009999999894
11
152.1980859999999893
21
-96.3358379999999954
0
LINE
8
BLACK
6
CONTINUOUS
10
152.1980859999999893
20
-96.3358379999999954
11
152.1307759999999973
21
-96.3680820000000011
0
LINE
8
BLACK
6
CONTINUOUS
10
152.1307759999999973
20
-96.3680820000000011
11
152.0605899999999906
21
-96.3973289999999992
0
LINE
8
BLACK
6
CONTINUOUS
10
152.0605899999999906
20
-96.3973289999999992
11
151.9875229999999817
21
-96.4234719999999896
0
LINE
8
BLACK
6
CONTINUOUS
10
151.9875229999999817
20
-96.4234719999999896
11
151.9115679999999884
21
-96.4464069999999936
0
LINE
8
BLACK
6
CONTINUOUS
10
151.9115679999999884
20
-96.4464069999999936
11
151.8443359999999984
21
-96.4629159999999928
0
LINE
8
BLACK
6
CONTINUOUS
10
151.8443359999999984
20
-96.4629159999999928
11
151.7758319999999799
21
-96.475759999999994
0
LINE
8
BLACK
6
CONTINUOUS
10
151.7758319999999799
20
-96.475759999999994
11
151.7062549999999987
21
-96.4849940000000004
0
LINE
8
BLACK
6
CONTINUOUS
10
151.7062549999999987
20
-96.4849940000000004
11
151.6358009999999865
21
-96.4906719999999893
0
LINE
8
BLACK
6
CONTINUOUS
10
151.6358009999999865
20
-96.4906719999999893
11
151.5646669999999858
21
-96.4928469999999976
0
LINE
8
BLACK
6
CONTINUOUS
10
151.5646669999999858
20
-96.4928469999999976
11
151.4930520000000058
21
-96.4915719999999908
0
LINE
8
BLACK
6
CONTINUOUS
10
151.4930520000000058
20
-96.4915719999999908
11
151.4211520000000064
21
-96.4869020000000006
0
LINE
8
BLACK
6
CONTINUOUS
10
151.4211520000000064
20
-96.4869020000000006
11
151.3491649999999993
21
-96.4788889999999952
0
LINE
8
BLACK
6
CONTINUOUS
10
151.3491649999999993
20
-96.4788889999999952
11
151.2772879999999986
21
-96.4675879999999921
0
LINE
8
BLACK
6
CONTINUOUS
10
151.2772879999999986
20
-96.4675879999999921
11
151.2057189999999878
21
-96.4530519999999996
0
LINE
8
BLACK
6
CONTINUOUS
10
151.2057189999999878
20
-96.4530519999999996
11
151.1346539999999834
21
-96.4353359999999924
0
LINE
8
BLACK
6
CONTINUOUS
10
151.1346539999999834
20
-96.4353359999999924
11
151.0642919999999947
21
-96.4144909999999982
0
LINE
8
BLACK
6
CONTINUOUS
10
151.0642919999999947
20
-96.4144909999999982
11
150.9948289999999815
21
-96.3905729999999892
0
LINE
8
BLACK
6
CONTINUOUS
10
150.9948289999999815
20
-96.3905729999999892
11
150.9264639999999815
21
-96.3636339999999905
0
LINE
8
BLACK
6
CONTINUOUS
10
150.9264639999999815
20
-96.3636339999999905
11
150.8593919999999855
21
-96.3337289999999911
0
LINE
8
BLACK
6
CONTINUOUS
10
150.8593919999999855
20
-96.3337289999999911
11
150.7938130000000001
21
-96.3009109999999993
0
LINE
8
BLACK
6
CONTINUOUS
10
150.7938130000000001
20
-96.3009109999999993
11
150.7299219999999877
21
-96.2652339999999924
0
LINE
8
BLACK
6
CONTINUOUS
10
150.7299219999999877
20
-96.2652339999999924
11
150.6679169999999885
21
-96.226750999999993
0
LINE
8
BLACK
6
CONTINUOUS
10
150.6679169999999885
20
-96.226750999999993
11
150.6079959999999858
21
-96.1855159999999927
0
LINE
8
BLACK
6
CONTINUOUS
10
150.6079959999999858
20
-96.1855159999999927
11
150.5503569999999911
21
-96.1415819999999997
0
LINE
8
BLACK
6
CONTINUOUS
10
150.5503569999999911
20
-96.1415819999999997
11
150.4951949999999954
21
-96.0950039999999888
0
LINE
8
BLACK
6
CONTINUOUS
10
150.4951949999999954
20
-96.0950039999999888
11
150.4427100000000053
21
-96.0458349999999967
0
LINE
8
BLACK
6
CONTINUOUS
10
150.4427100000000053
20
-96.0458349999999967
11
150.3930969999999832
21
-95.9941279999999892
0
LINE
8
BLACK
6
CONTINUOUS
10
150.3930969999999832
20
-95.9941279999999892
11
150.3465549999999951
21
-95.9399370000000005
0
LINE
8
BLACK
6
CONTINUOUS
10
150.3465549999999951
20
-95.9399370000000005
11
150.3032809999999984
21
-95.883316999999991
0
LINE
8
BLACK
6
CONTINUOUS
10
150.3032809999999984
20
-95.883316999999991
11
150.2634720000000073
21
-95.8243190000000027
0
LINE
8
BLACK
6
CONTINUOUS
10
150.2634720000000073
20
-95.8243190000000027
11
150.2273249999999791
21
-95.7629989999999935
0
LINE
8
BLACK
6
CONTINUOUS
10
150.2273249999999791
20
-95.7629989999999935
11
150.19503899999998
21
-95.6994089999999886
0
LINE
8
BLACK
6
CONTINUOUS
10
150.19503899999998
20
-95.6994089999999886
11
150.1668090000000007
21
-95.6336039999999912
0
LINE
8
BLACK
6
CONTINUOUS
10
150.1668090000000007
20
-95.6336039999999912
11
150.1428339999999935
21
-95.5656369999999953
0
LINE
8
BLACK
6
CONTINUOUS
10
150.1428339999999935
20
-95.5656369999999953
11
150.1233110000000011
21
-95.495560999999995
0
LINE
8
BLACK
6
CONTINUOUS
10
150.1233110000000011
20
-95.495560999999995
11
150.1084369999999808
21
-95.4234309999999937
0
LINE
8
BLACK
6
CONTINUOUS
10
150.1084369999999808
20
-95.4234309999999937
11
150.0957569999999919
21
-95.3575199999999938
0
LINE
8
BLACK
6
CONTINUOUS
10
150.0957569999999919
20
-95.3575199999999938
11
150.0806859999999858
21
-95.2931039999999996
0
LINE
8
BLACK
6
CONTINUOUS
10
150.0806859999999858
20
-95.2931039999999996
11
150.0633090000000038
21
-95.230125000000001
0
LINE
8
BLACK
6
CONTINUOUS
10
150.0633090000000038
20
-95.230125000000001
11
150.0437129999999968
21
-95.1685289999999924
0
LINE
8
BLACK
6
CONTINUOUS
10
150.0437129999999968
20
-95.1685289999999924
11
150.0219859999999983
21
-95.1082579999999922
0
LINE
8
BLACK
6
CONTINUOUS
10
150.0219859999999983
20
-95.1082579999999922
11
149.9982129999999927
21
-95.0492550000000023
0
LINE
8
BLACK
6
CONTINUOUS
10
149.9982129999999927
20
-95.0492550000000023
11
149.9724819999999852
21
-94.9914649999999909
0
LINE
8
BLACK
6
CONTINUOUS
10
149.9724819999999852
20
-94.9914649999999909
11
149.9448779999999886
21
-94.9348310000000026
0
LINE
8
BLACK
6
CONTINUOUS
10
149.9448779999999886
20
-94.9348310000000026
11
149.8844019999999944
21
-94.8248019999999912
0
LINE
8
BLACK
6
CONTINUOUS
10
149.8844019999999944
20
-94.8248019999999912
11
149.8174769999999967
21
-94.718718999999993
0
LINE
8
BLACK
6
CONTINUOUS
10
149.8174769999999967
20
-94.718718999999993
11
149.7447970000000055
21
-94.6161279999999891
0
LINE
8
BLACK
6
CONTINUOUS
10
149.7447970000000055
20
-94.6161279999999891
11
149.6670540000000074
21
-94.5165779999999955
0
LINE
8
BLACK
6
CONTINUOUS
10
149.6670540000000074
20
-94.5165779999999955
11
149.5849419999999839
21
-94.4196170000000023
0
LINE
8
BLACK
6
CONTINUOUS
10
149.5849419999999839
20
-94.4196170000000023
11
149.4991540000000043
21
-94.3247909999999905
0
LINE
8
BLACK
6
CONTINUOUS
10
149.4991540000000043
20
-94.3247909999999905
11
149.4103819999999985
21
-94.2316500000000019
0
LINE
8
BLACK
6
CONTINUOUS
10
149.4103819999999985
20
-94.2316500000000019
11
149.3193210000000022
21
-94.1397419999999983
0
LINE
8
BLACK
6
CONTINUOUS
10
149.3193210000000022
20
-94.1397419999999983
11
148.9460339999999974
21
-93.7753889999999899
0
LINE
8
BLACK
6
CONTINUOUS
10
148.9460339999999974
20
-93.7753889999999899
11
148.4872489999999914
21
-93.3262469999999951
0
LINE
8
BLACK
6
CONTINUOUS
10
148.4872489999999914
20
-93.3262469999999951
11
148.2541569999999922
21
-93.1044940000000025
0
LINE
8
BLACK
6
CONTINUOUS
10
148.2541569999999922
20
-93.1044940000000025
11
148.0180349999999976
21
-92.8857709999999912
0
LINE
8
BLACK
6
CONTINUOUS
10
148.0180349999999976
20
-92.8857709999999912
11
147.778460999999993
21
-92.67093899999999
0
LINE
8
BLACK
6
CONTINUOUS
10
147.778460999999993
20
-92.67093899999999
11
147.5350129999999922
21
-92.4608609999999942
0
LINE
8
BLACK
6
CONTINUOUS
10
147.5350129999999922
20
-92.4608609999999942
11
147.2872689999999807
21
-92.2564009999999968
0
LINE
8
BLACK
6
CONTINUOUS
10
147.2872689999999807
20
-92.2564009999999968
11
147.0348060000000032
21
-92.0584199999999981
0
LINE
8
BLACK
6
CONTINUOUS
10
147.0348060000000032
20
-92.0584199999999981
11
146.8196470000000033
21
-91.8972380000000015
0
LINE
8
BLACK
6
CONTINUOUS
10
146.8196470000000033
20
-91.8972380000000015
11
146.599064999999996
21
-91.7391599999999983
0
LINE
8
BLACK
6
CONTINUOUS
10
146.599064999999996
20
-91.7391599999999983
11
146.3732929999999897
21
-91.5850889999999964
0
LINE
8
BLACK
6
CONTINUOUS
10
146.3732929999999897
20
-91.5850889999999964
11
146.1425619999999981
21
-91.4359269999999924
0
LINE
8
BLACK
6
CONTINUOUS
10
146.1425619999999981
20
-91.4359269999999924
11
145.9071050000000014
21
-91.2925740000000019
0
LINE
8
BLACK
6
CONTINUOUS
10
145.9071050000000014
20
-91.2925740000000019
11
145.6671509999999898
21
-91.1559349999999995
0
LINE
8
BLACK
6
CONTINUOUS
10
145.6671509999999898
20
-91.1559349999999995
11
145.4229349999999954
21
-91.0269089999999892
0
LINE
8
BLACK
6
CONTINUOUS
10
145.4229349999999954
20
-91.0269089999999892
11
145.1746859999999799
21
-90.9063989999999933
0
LINE
8
BLACK
6
CONTINUOUS
10
145.1746859999999799
20
-90.9063989999999933
11
144.9226380000000063
21
-90.795306999999994
0
LINE
8
BLACK
6
CONTINUOUS
10
144.9226380000000063
20
-90.795306999999994
11
144.6670210000000054
21
-90.6945350000000019
0
LINE
8
BLACK
6
CONTINUOUS
10
144.6670210000000054
20
-90.6945350000000019
11
144.4080669999999884
21
-90.6049840000000017
0
LINE
8
BLACK
6
CONTINUOUS
10
144.4080669999999884
20
-90.6049840000000017
11
144.1460089999999923
21
-90.5275570000000016
0
LINE
8
BLACK
6
CONTINUOUS
10
144.1460089999999923
20
-90.5275570000000016
11
143.8810780000000022
21
-90.4631550000000004
0
LINE
8
BLACK
6
CONTINUOUS
10
143.8810780000000022
20
-90.4631550000000004
11
143.6135050000000035
21
-90.4126799999999946
0
LINE
8
BLACK
6
CONTINUOUS
10
143.6135050000000035
20
-90.4126799999999946
11
143.3435220000000072
21
-90.3770339999999948
0
LINE
8
BLACK
6
CONTINUOUS
10
143.3435220000000072
20
-90.3770339999999948
11
143.0713619999999935
21
-90.3571179999999998
0
LINE
8
BLACK
6
CONTINUOUS
10
143.0713619999999935
20
-90.3571179999999998
11
142.7691899999999805
21
-90.3519019999999955
0
LINE
8
BLACK
6
CONTINUOUS
10
142.7691899999999805
20
-90.3519019999999955
11
142.4728599999999972
21
-90.362402000000003
0
LINE
8
BLACK
6
CONTINUOUS
10
142.4728599999999972
20
-90.362402000000003
11
142.1825220000000058
21
-90.3881870000000021
0
LINE
8
BLACK
6
CONTINUOUS
10
142.1825220000000058
20
-90.3881870000000021
11
141.8983289999999897
21
-90.4288289999999932
0
LINE
8
BLACK
6
CONTINUOUS
10
141.8983289999999897
20
-90.4288289999999932
11
141.6204299999999989
21
-90.4838979999999964
0
LINE
8
BLACK
6
CONTINUOUS
10
141.6204299999999989
20
-90.4838979999999964
11
141.3489759999999933
21
-90.5529619999999937
0
LINE
8
BLACK
6
CONTINUOUS
10
141.3489759999999933
20
-90.5529619999999937
11
141.084118999999987
21
-90.6355930000000001
0
LINE
8
BLACK
6
CONTINUOUS
10
141.084118999999987
20
-90.6355930000000001
11
140.8260089999999991
21
-90.7313599999999951
0
LINE
8
BLACK
6
CONTINUOUS
10
140.8260089999999991
20
-90.7313599999999951
11
140.574797999999987
21
-90.8398329999999987
0
LINE
8
BLACK
6
CONTINUOUS
10
140.574797999999987
20
-90.8398329999999987
11
140.3306350000000009
21
-90.9605829999999997
0
LINE
8
BLACK
6
CONTINUOUS
10
140.3306350000000009
20
-90.9605829999999997
11
140.0936729999999955
21
-91.0931789999999921
0
LINE
8
BLACK
6
CONTINUOUS
10
140.0936729999999955
20
-91.0931789999999921
11
139.8640609999999924
21
-91.2371909999999957
0
LINE
8
BLACK
6
CONTINUOUS
10
139.8640609999999924
20
-91.2371909999999957
11
139.6419510000000059
21
-91.3921890000000019
0
LINE
8
BLACK
6
CONTINUOUS
10
139.6419510000000059
20
-91.3921890000000019
11
139.4274929999999983
21
-91.5577439999999996
0
LINE
8
BLACK
6
CONTINUOUS
10
139.4274929999999983
20
-91.5577439999999996
11
139.2208389999999838
21
-91.7334249999999969
0
LINE
8
BLACK
6
CONTINUOUS
10
139.2208389999999838
20
-91.7334249999999969
11
139.0221400000000074
21
-91.9188029999999969
0
LINE
8
BLACK
6
CONTINUOUS
10
139.0221400000000074
20
-91.9188029999999969
11
138.8315450000000055
21
-92.1134469999999936
0
LINE
8
BLACK
6
CONTINUOUS
10
138.8315450000000055
20
-92.1134469999999936
11
138.6492069999999899
21
-92.3169269999999926
0
LINE
8
BLACK
6
CONTINUOUS
10
138.6492069999999899
20
-92.3169269999999926
11
138.4752759999999796
21
-92.528813999999997
0
LINE
8
BLACK
6
CONTINUOUS
10
138.4752759999999796
20
-92.528813999999997
11
138.3099029999999914
21
-92.7486770000000007
0
LINE
8
BLACK
6
CONTINUOUS
10
138.3099029999999914
20
-92.7486770000000007
11
138.1532379999999876
21
-92.9760859999999951
0
LINE
8
BLACK
6
CONTINUOUS
10
138.1532379999999876
20
-92.9760859999999951
11
138.0054329999999823
21
-93.2106119999999976
0
LINE
8
BLACK
6
CONTINUOUS
10
138.0054329999999823
20
-93.2106119999999976
11
137.7370059999999796
21
-93.6992939999999948
0
LINE
8
BLACK
6
CONTINUOUS
10
137.7370059999999796
20
-93.6992939999999948
11
137.5058279999999797
21
-94.2112809999999996
0
LINE
8
BLACK
6
CONTINUOUS
10
137.5058279999999797
20
-94.2112809999999996
11
137.3131060000000048
21
-94.7431349999999952
0
LINE
8
BLACK
6
CONTINUOUS
10
137.3131060000000048
20
-94.7431349999999952
11
137.1600479999999891
21
-95.291413999999989
0
LINE
8
BLACK
6
CONTINUOUS
10
137.1600479999999891
20
-95.291413999999989
11
137.0478599999999858
21
-95.8526799999999923
0
LINE
8
BLACK
6
CONTINUOUS
10
137.0478599999999858
20
-95.8526799999999923
11
137.0478599999999858
21
-95.8526760000000024
0
LINE
8
BLACK
6
CONTINUOUS
10
137.0478599999999858
20
-95.8526760000000024
11
137.0335059999999885
21
-95.9252109999999902
0
LINE
8
BLACK
6
CONTINUOUS
10
137.0335059999999885
20
-95.9252109999999902
11
137.0143750000000011
21
-95.9956219999999973
0
LINE
8
BLACK
6
CONTINUOUS
10
137.0143750000000011
20
-95.9956219999999973
11
136.9906719999999893
21
-96.0638609999999886
0
LINE
8
BLACK
6
CONTINUOUS
10
136.9906719999999893
20
-96.0638609999999886
11
136.9626039999999989
21
-96.1298779999999908
0
LINE
8
BLACK
6
CONTINUOUS
10
136.9626039999999989
20
-96.1298779999999908
11
136.9303789999999879
21
-96.1936249999999973
0
LINE
8
BLACK
6
CONTINUOUS
10
136.9303789999999879
20
-96.1936249999999973
11
136.8942009999999811
21
-96.2550519999999921
0
LINE
8
BLACK
6
CONTINUOUS
10
136.8942009999999811
20
-96.2550519999999921
11
136.8542789999999911
21
-96.314109000000002
0
LINE
8
BLACK
6
CONTINUOUS
10
136.8542789999999911
20
-96.314109000000002
11
136.8108179999999834
21
-96.3707489999999893
0
LINE
8
BLACK
6
CONTINUOUS
10
136.8108179999999834
20
-96.3707489999999893
11
136.7640250000000037
21
-96.4249229999999926
0
LINE
8
BLACK
6
CONTINUOUS
10
136.7640250000000037
20
-96.4249229999999926
11
136.7141069999999843
21
-96.4765799999999984
0
LINE
8
BLACK
6
CONTINUOUS
10
136.7141069999999843
20
-96.4765799999999984
11
136.6612700000000018
21
-96.5256720000000001
0
LINE
8
BLACK
6
CONTINUOUS
10
136.6612700000000018
20
-96.5256720000000001
11
136.6057199999999909
21
-96.5721499999999935
0
LINE
8
BLACK
6
CONTINUOUS
10
136.6057199999999909
20
-96.5721499999999935
11
136.5476639999999975
21
-96.6159649999999885
0
LINE
8
BLACK
6
CONTINUOUS
10
136.5476639999999975
20
-96.6159649999999885
11
136.487308999999982
21
-96.6570679999999953
0
LINE
8
BLACK
6
CONTINUOUS
10
136.487308999999982
20
-96.6570679999999953
11
136.4248609999999928
21
-96.6954099999999954
0
LINE
8
BLACK
6
CONTINUOUS
10
136.4248609999999928
20
-96.6954099999999954
11
136.3605269999999905
21
-96.7309410000000014
0
LINE
8
BLACK
6
CONTINUOUS
10
136.3605269999999905
20
-96.7309410000000014
11
136.2270249999999976
21
-96.7933769999999924
0
LINE
8
BLACK
6
CONTINUOUS
10
136.2270249999999976
20
-96.7933769999999924
11
136.0884570000000053
21
-96.8439829999999944
0
LINE
8
BLACK
6
CONTINUOUS
10
136.0884570000000053
20
-96.8439829999999944
11
135.9464739999999949
21
-96.8823670000000021
0
LINE
8
BLACK
6
CONTINUOUS
10
135.9464739999999949
20
-96.8823670000000021
11
135.8027280000000019
21
-96.9081369999999964
0
LINE
8
BLACK
6
CONTINUOUS
10
135.8027280000000019
20
-96.9081369999999964
11
135.6588720000000023
21
-96.9208989999999915
0
LINE
8
BLACK
6
CONTINUOUS
10
135.6588720000000023
20
-96.9208989999999915
11
135.5874189999999828
21
-96.9222809999999981
0
LINE
8
BLACK
6
CONTINUOUS
10
135.5874189999999828
20
-96.9222809999999981
11
135.5165580000000034
21
-96.9202629999999914
0
LINE
8
BLACK
6
CONTINUOUS
10
135.5165580000000034
20
-96.9202629999999914
11
135.4464959999999962
21
-96.914796999999993
0
LINE
8
BLACK
6
CONTINUOUS
10
135.4464959999999962
20
-96.914796999999993
11
135.3774379999999837
21
-96.9058339999999987
0
LINE
8
BLACK
6
CONTINUOUS
10
135.3774379999999837
20
-96.9058339999999987
11
135.3095919999999808
21
-96.8933260000000018
0
LINE
8
BLACK
6
CONTINUOUS
10
135.3095919999999808
20
-96.8933260000000018
11
135.2431650000000047
21
-96.8772219999999891
0
LINE
8
BLACK
6
CONTINUOUS
10
135.2431650000000047
20
-96.8772219999999891
11
135.1676510000000064
21
-96.8544160000000005
0
LINE
8
BLACK
6
CONTINUOUS
10
135.1676510000000064
20
-96.8544160000000005
11
135.0950210000000027
21
-96.8283670000000001
0
LINE
8
BLACK
6
CONTINUOUS
10
135.0950210000000027
20
-96.8283670000000001
11
135.0252679999999827
21
-96.7991839999999968
0
LINE
8
BLACK
6
CONTINUOUS
10
135.0252679999999827
20
-96.7991839999999968
11
134.9583839999999952
21
-96.7669739999999905
0
LINE
8
BLACK
6
CONTINUOUS
10
134.9583839999999952
20
-96.7669739999999905
11
134.8943610000000035
21
-96.7318449999999928
0
LINE
8
BLACK
6
CONTINUOUS
10
134.8943610000000035
20
-96.7318449999999928
11
134.8331929999999943
21
-96.6939039999999892
0
LINE
8
BLACK
6
CONTINUOUS
10
134.8331929999999943
20
-96.6939039999999892
11
134.7748709999999903
21
-96.6532610000000005
0
LINE
8
BLACK
6
CONTINUOUS
10
134.7748709999999903
20
-96.6532610000000005
11
134.7193890000000067
21
-96.6100220000000007
0
LINE
8
BLACK
6
CONTINUOUS
10
134.7193890000000067
20
-96.6100220000000007
11
134.666737999999981
21
-96.5642950000000013
0
LINE
8
BLACK
6
CONTINUOUS
10
134.666737999999981
20
-96.5642950000000013
11
134.616911999999985
21
-96.5161889999999971
0
LINE
8
BLACK
6
CONTINUOUS
10
134.616911999999985
20
-96.5161889999999971
11
134.5699019999999848
21
-96.4658110000000022
0
LINE
8
BLACK
6
CONTINUOUS
10
134.5699019999999848
20
-96.4658110000000022
11
134.5257019999999955
21
-96.4132689999999997
0
LINE
8
BLACK
6
CONTINUOUS
10
134.5257019999999955
20
-96.4132689999999997
11
134.4843039999999803
21
-96.3586710000000011
0
LINE
8
BLACK
6
CONTINUOUS
10
134.4843039999999803
20
-96.3586710000000011
11
134.4457009999999855
21
-96.3021239999999921
0
LINE
8
BLACK
6
CONTINUOUS
10
134.4457009999999855
20
-96.3021239999999921
11
134.4098840000000052
21
-96.2437369999999959
0
LINE
8
BLACK
6
CONTINUOUS
10
134.4098840000000052
20
-96.2437369999999959
11
134.3768469999999979
21
-96.1836179999999956
0
LINE
8
BLACK
6
CONTINUOUS
10
134.3768469999999979
20
-96.1836179999999956
11
134.3190819999999803
21
-96.058612999999994
0
LINE
8
BLACK
6
CONTINUOUS
10
134.3190819999999803
20
-96.058612999999994
11
134.2723450000000014
21
-95.9279709999999994
0
LINE
8
BLACK
6
CONTINUOUS
10
134.2723450000000014
20
-95.9279709999999994
11
134.2365779999999802
21
-95.7925570000000022
0
LINE
8
BLACK
6
CONTINUOUS
10
134.2365779999999802
20
-95.7925570000000022
11
134.2117199999999855
21
-95.6532320000000027
0
LINE
8
BLACK
6
CONTINUOUS
10
134.2117199999999855
20
-95.6532320000000027
11
134.1977119999999957
21
-95.5108599999999939
0
LINE
8
BLACK
6
CONTINUOUS
10
134.1977119999999957
20
-95.5108599999999939
11
134.1944939999999917
21
-95.366303000000002
0
LINE
8
BLACK
6
CONTINUOUS
10
134.1944939999999917
20
-95.366303000000002
11
134.202005999999983
21
-95.2204249999999917
0
LINE
8
BLACK
6
CONTINUOUS
10
134.202005999999983
20
-95.2204249999999917
11
134.2201890000000049
21
-95.0740869999999916
0
LINE
8
BLACK
6
CONTINUOUS
10
134.2201890000000049
20
-95.0740869999999916
11
134.2933179999999993
21
-94.6771049999999974
0
LINE
8
BLACK
6
CONTINUOUS
10
134.2933179999999993
20
-94.6771049999999974
11
134.3837719999999933
21
-94.2846119999999956
0
LINE
8
BLACK
6
CONTINUOUS
10
134.3837719999999933
20
-94.2846119999999956
11
134.4911280000000033
21
-93.8971789999999942
0
LINE
8
BLACK
6
CONTINUOUS
10
134.4911280000000033
20
-93.8971789999999942
11
134.6149680000000046
21
-93.5153770000000009
0
LINE
8
BLACK
6
CONTINUOUS
10
134.6149680000000046
20
-93.5153770000000009
11
134.7548709999999801
21
-93.1397750000000002
0
LINE
8
BLACK
6
CONTINUOUS
10
134.7548709999999801
20
-93.1397750000000002
11
134.9104179999999928
21
-92.7709440000000001
0
LINE
8
BLACK
6
CONTINUOUS
10
134.9104179999999928
20
-92.7709440000000001
11
135.0811889999999948
21
-92.4094539999999967
0
LINE
8
BLACK
6
CONTINUOUS
10
135.0811889999999948
20
-92.4094539999999967
11
135.2667629999999974
21
-92.0558750000000003
0
LINE
8
BLACK
6
CONTINUOUS
10
135.2667629999999974
20
-92.0558750000000003
11
135.4667220000000043
21
-91.7107779999999906
0
LINE
8
BLACK
6
CONTINUOUS
10
135.4667220000000043
20
-91.7107779999999906
11
135.6806440000000009
21
-91.374732999999992
0
LINE
8
BLACK
6
CONTINUOUS
10
135.6806440000000009
20
-91.374732999999992
11
135.9081089999999961
21
-91.0483100000000007
0
LINE
8
BLACK
6
CONTINUOUS
10
135.9081089999999961
20
-91.0483100000000007
11
136.1486989999999935
21
-90.7320789999999988
0
LINE
8
BLACK
6
CONTINUOUS
10
136.1486989999999935
20
-90.7320789999999988
11
136.4019930000000045
21
-90.4266099999999966
0
LINE
8
BLACK
6
CONTINUOUS
10
136.4019930000000045
20
-90.4266099999999966
11
136.6675699999999836
21
-90.1324749999999995
0
LINE
8
BLACK
6
CONTINUOUS
10
136.6675699999999836
20
-90.1324749999999995
11
136.9450119999999913
21
-89.8502429999999919
0
LINE
8
BLACK
6
CONTINUOUS
10
136.9450119999999913
20
-89.8502429999999919
11
137.2338979999999822
21
-89.5804839999999984
0
LINE
8
BLACK
6
CONTINUOUS
10
137.2338979999999822
20
-89.5804839999999984
11
137.5338079999999934
21
-89.3237680000000012
0
LINE
8
BLACK
6
CONTINUOUS
10
137.5338079999999934
20
-89.3237680000000012
11
137.8443220000000053
21
-89.0806669999999912
0
LINE
8
BLACK
6
CONTINUOUS
10
137.8443220000000053
20
-89.0806669999999912
11
138.1650209999999959
21
-88.8517489999999981
0
LINE
8
BLACK
6
CONTINUOUS
10
138.1650209999999959
20
-88.8517489999999981
11
138.4954840000000047
21
-88.6375859999999989
0
LINE
8
BLACK
6
CONTINUOUS
10
138.4954840000000047
20
-88.6375859999999989
11
138.8352909999999838
21
-88.4387479999999897
0
LINE
8
BLACK
6
CONTINUOUS
10
138.8352909999999838
20
-88.4387479999999897
11
139.1840219999999988
21
-88.2558039999999977
0
LINE
8
BLACK
6
CONTINUOUS
10
139.1840219999999988
20
-88.2558039999999977
11
139.5412589999999966
21
-88.0893259999999998
0
LINE
8
BLACK
6
CONTINUOUS
10
139.5412589999999966
20
-88.0893259999999998
11
139.9065789999999936
21
-87.9398829999999947
0
LINE
8
BLACK
6
CONTINUOUS
10
139.9065789999999936
20
-87.9398829999999947
11
140.279564999999991
21
-87.8080449999999928
0
LINE
8
BLACK
6
CONTINUOUS
10
140.279564999999991
20
-87.8080449999999928
11
140.6597940000000051
21
-87.6943839999999994
0
LINE
8
BLACK
6
CONTINUOUS
10
140.6597940000000051
20
-87.6943839999999994
11
141.0468489999999804
21
-87.5994689999999991
0
LINE
8
BLACK
6
CONTINUOUS
10
141.0468489999999804
20
-87.5994689999999991
11
141.4403079999999875
21
-87.5238700000000023
0
LINE
8
BLACK
6
CONTINUOUS
10
141.4403079999999875
20
-87.5238700000000023
11
141.8397530000000017
21
-87.4681580000000025
0
LINE
8
BLACK
6
CONTINUOUS
10
141.8397530000000017
20
-87.4681580000000025
11
142.2447619999999802
21
-87.432902999999996
0
LINE
8
BLACK
6
CONTINUOUS
10
142.2447619999999802
20
-87.432902999999996
11
142.6549159999999858
21
-87.4186749999999932
0
LINE
8
BLACK
6
CONTINUOUS
10
142.6549159999999858
20
-87.4186749999999932
11
143.0697940000000017
21
-87.4260439999999903
0
LINE
8
BLACK
6
CONTINUOUS
10
141.1595849999999928
20
-92.4224299999999914
11
141.3204120000000046
21
-92.4410709999999938
0
LINE
8
BLACK
6
CONTINUOUS
10
141.3204120000000046
20
-92.4410709999999938
11
141.4799079999999947
21
-92.4713659999999891
0
LINE
8
BLACK
6
CONTINUOUS
10
141.4799079999999947
20
-92.4713659999999891
11
141.6371599999999944
21
-92.5129299999999972
0
LINE
8
BLACK
6
CONTINUOUS
10
141.6371599999999944
20
-92.5129299999999972
11
141.7912539999999808
21
-92.5653810000000021
0
LINE
8
BLACK
6
CONTINUOUS
10
141.7912539999999808
20
-92.5653810000000021
11
141.9412779999999827
21
-92.6283339999999953
0
LINE
8
BLACK
6
CONTINUOUS
10
141.9412779999999827
20
-92.6283339999999953
11
142.0863159999999823
21
-92.7014080000000007
0
LINE
8
BLACK
6
CONTINUOUS
10
142.0863159999999823
20
-92.7014080000000007
11
142.2254580000000033
21
-92.7842189999999931
0
LINE
8
BLACK
6
CONTINUOUS
10
142.2254580000000033
20
-92.7842189999999931
11
142.3577879999999993
21
-92.8763829999999899
0
LINE
8
BLACK
6
CONTINUOUS
10
142.3577879999999993
20
-92.8763829999999899
11
142.4823949999999968
21
-92.9775169999999918
0
LINE
8
BLACK
6
CONTINUOUS
10
142.4823949999999968
20
-92.9775169999999918
11
142.5415160000000014
21
-93.0313289999999995
0
LINE
8
BLACK
6
CONTINUOUS
10
142.5415160000000014
20
-93.0313289999999995
11
142.5983630000000062
21
-93.0872389999999967
0
LINE
8
BLACK
6
CONTINUOUS
10
142.5983630000000062
20
-93.0872389999999967
11
142.6528229999999837
21
-93.1452000000000027
0
LINE
8
BLACK
6
CONTINUOUS
10
142.6528229999999837
20
-93.1452000000000027
11
142.704780999999997
21
-93.2051639999999963
0
LINE
8
BLACK
6
CONTINUOUS
10
142.704780999999997
20
-93.2051639999999963
11
142.7692729999999983
21
-93.2858969999999914
0
LINE
8
BLACK
6
CONTINUOUS
10
142.7692729999999983
20
-93.2858969999999914
11
142.8299590000000023
21
-93.368512999999993
0
LINE
8
BLACK
6
CONTINUOUS
10
142.8299590000000023
20
-93.368512999999993
11
142.8868039999999837
21
-93.4528869999999898
0
LINE
8
BLACK
6
CONTINUOUS
10
142.8868039999999837
20
-93.4528869999999898
11
142.9397749999999974
21
-93.5388919999999899
0
LINE
8
BLACK
6
CONTINUOUS
10
142.9397749999999974
20
-93.5388919999999899
11
142.988837999999987
21
-93.6264010000000013
0
LINE
8
BLACK
6
CONTINUOUS
10
142.988837999999987
20
-93.6264010000000013
11
143.0339589999999816
21
-93.7152869999999893
0
LINE
8
BLACK
6
CONTINUOUS
10
143.0339589999999816
20
-93.7152869999999893
11
143.0751039999999819
21
-93.8054249999999996
0
LINE
8
BLACK
6
CONTINUOUS
10
143.0751039999999819
20
-93.8054249999999996
11
143.1122399999999857
21
-93.896687
0
LINE
8
BLACK
6
CONTINUOUS
10
143.1122399999999857
20
-93.896687
11
143.1453319999999962
21
-93.9889479999999935
0
LINE
8
BLACK
6
CONTINUOUS
10
143.1453319999999962
20
-93.9889479999999935
11
143.1743469999999832
21
-94.0820799999999906
0
LINE
8
BLACK
6
CONTINUOUS
10
143.1743469999999832
20
-94.0820799999999906
11
143.1992510000000038
21
-94.1759579999999943
0
LINE
8
BLACK
6
CONTINUOUS
10
143.1992510000000038
20
-94.1759579999999943
11
143.220010000000002
21
-94.2704540000000009
0
LINE
8
BLACK
6
CONTINUOUS
10
143.220010000000002
20
-94.2704540000000009
11
143.2365900000000067
21
-94.3654429999999991
0
LINE
8
BLACK
6
CONTINUOUS
10
143.2365900000000067
20
-94.3654429999999991
11
143.2489579999999876
21
-94.4607969999999995
0
LINE
8
BLACK
6
CONTINUOUS
10
143.2489579999999876
20
-94.4607969999999995
11
143.257078000000007
21
-94.5563909999999908
0
LINE
8
BLACK
6
CONTINUOUS
10
143.257078000000007
20
-94.5563909999999908
11
143.2609190000000012
21
-94.6520969999999977
0
LINE
8
BLACK
6
CONTINUOUS
10
143.2609190000000012
20
-94.6520969999999977
11
143.2604450000000043
21
-94.7477899999999948
0
LINE
8
BLACK
6
CONTINUOUS
10
143.2604450000000043
20
-94.7477899999999948
11
143.2556229999999857
21
-94.8433419999999927
0
LINE
8
BLACK
6
CONTINUOUS
10
143.2556229999999857
20
-94.8433419999999927
11
143.2464190000000031
21
-94.9386269999999968
0
LINE
8
BLACK
6
CONTINUOUS
10
143.2464190000000031
20
-94.9386269999999968
11
143.2327999999999975
21
-95.0335189999999983
0
LINE
8
BLACK
6
CONTINUOUS
10
143.2327999999999975
20
-95.0335189999999983
11
143.2147310000000004
21
-95.1278920000000028
0
LINE
8
BLACK
6
CONTINUOUS
10
143.2147310000000004
20
-95.1278920000000028
11
143.1921779999999842
21
-95.2216179999999923
0
LINE
8
BLACK
6
CONTINUOUS
10
143.1921779999999842
20
-95.2216179999999923
11
143.1651080000000036
21
-95.3145710000000008
0
LINE
8
BLACK
6
CONTINUOUS
10
143.1651080000000036
20
-95.3145710000000008
11
143.1334870000000024
21
-95.4066249999999911
0
LINE
8
BLACK
6
CONTINUOUS
10
143.1334870000000024
20
-95.4066249999999911
11
143.0972809999999811
21
-95.4976529999999997
0
LINE
8
BLACK
6
CONTINUOUS
10
143.0972809999999811
20
-95.4976529999999997
11
143.0564559999999972
21
-95.5875289999999893
0
LINE
8
BLACK
6
CONTINUOUS
10
143.0564559999999972
20
-95.5875289999999893
11
143.0109779999999944
21
-95.6761259999999965
0
LINE
8
BLACK
6
CONTINUOUS
10
143.0109779999999944
20
-95.6761259999999965
11
142.9608130000000017
21
-95.7633179999999982
0
LINE
8
BLACK
6
CONTINUOUS
10
142.9608130000000017
20
-95.7633179999999982
11
142.9059279999999887
21
-95.8489780000000025
0
LINE
8
BLACK
6
CONTINUOUS
10
142.9059279999999887
20
-95.8489780000000025
11
142.8462889999999845
21
-95.9329800000000006
0
LINE
8
BLACK
6
CONTINUOUS
10
142.8462889999999845
20
-95.9329800000000006
11
142.7818619999999896
21
-96.0151970000000006
0
LINE
8
BLACK
6
CONTINUOUS
10
142.7818619999999896
20
-96.0151970000000006
11
142.7126130000000046
21
-96.0955029999999937
0
LINE
8
BLACK
6
CONTINUOUS
10
142.7126130000000046
20
-96.0955029999999937
11
142.6058069999999987
21
-96.2049329999999969
0
LINE
8
BLACK
6
CONTINUOUS
10
142.6058069999999987
20
-96.2049329999999969
11
142.4914559999999994
21
-96.3062970000000007
0
LINE
8
BLACK
6
CONTINUOUS
10
142.4914559999999994
20
-96.3062970000000007
11
142.370238999999998
21
-96.3993490000000008
0
LINE
8
BLACK
6
CONTINUOUS
10
142.370238999999998
20
-96.3993490000000008
11
142.2428349999999853
21
-96.4838429999999931
0
LINE
8
BLACK
6
CONTINUOUS
10
142.2428349999999853
20
-96.4838429999999931
11
142.1099240000000066
21
-96.5595349999999968
0
LINE
8
BLACK
6
CONTINUOUS
10
142.1099240000000066
20
-96.5595349999999968
11
141.9721839999999986
21
-96.6261789999999934
0
LINE
8
BLACK
6
CONTINUOUS
10
141.9721839999999986
20
-96.6261789999999934
11
141.8302950000000067
21
-96.6835289999999929
0
LINE
8
BLACK
6
CONTINUOUS
10
141.8302950000000067
20
-96.6835289999999929
11
141.6849369999999908
21
-96.7313389999999913
0
LINE
8
BLACK
6
CONTINUOUS
10
141.6849369999999908
20
-96.7313389999999913
11
141.5367880000000014
21
-96.7693639999999959
0
LINE
8
BLACK
6
CONTINUOUS
10
141.5367880000000014
20
-96.7693639999999959
11
141.3865279999999984
21
-96.7973590000000002
0
LINE
8
BLACK
6
CONTINUOUS
10
141.3865279999999984
20
-96.7973590000000002
11
141.2348360000000014
21
-96.8150770000000023
0
LINE
8
BLACK
6
CONTINUOUS
10
141.2348360000000014
20
-96.8150770000000023
11
141.0823910000000012
21
-96.8222739999999931
0
LINE
8
BLACK
6
CONTINUOUS
10
141.0823910000000012
20
-96.8222739999999931
11
140.9298739999999839
21
-96.8187039999999968
0
LINE
8
BLACK
6
CONTINUOUS
10
140.9298739999999839
20
-96.8187039999999968
11
140.7779620000000023
21
-96.804120999999995
0
LINE
8
BLACK
6
CONTINUOUS
10
140.7779620000000023
20
-96.804120999999995
11
140.627334999999988
21
-96.7782789999999977
0
LINE
8
BLACK
6
CONTINUOUS
10
140.627334999999988
20
-96.7782789999999977
11
140.4786729999999864
21
-96.7409339999999958
0
LINE
8
BLACK
6
CONTINUOUS
10
140.4786729999999864
20
-96.7409339999999958
11
140.396569999999997
21
-96.7148529999999909
0
LINE
8
BLACK
6
CONTINUOUS
10
140.396569999999997
20
-96.7148529999999909
11
140.3162570000000073
21
-96.6854340000000008
0
LINE
8
BLACK
6
CONTINUOUS
10
140.3162570000000073
20
-96.6854340000000008
11
140.2377929999999822
21
-96.6527719999999988
0
LINE
8
BLACK
6
CONTINUOUS
10
140.2377929999999822
20
-96.6527719999999988
11
140.1612309999999866
21
-96.6169599999999917
0
LINE
8
BLACK
6
CONTINUOUS
10
140.1612309999999866
20
-96.6169599999999917
11
140.0866299999999853
21
-96.578093999999993
0
LINE
8
BLACK
6
CONTINUOUS
10
140.0866299999999853
20
-96.578093999999993
11
140.0140449999999817
21
-96.5362679999999926
0
LINE
8
BLACK
6
CONTINUOUS
10
140.0140449999999817
20
-96.5362679999999926
11
139.9339779999999962
21
-96.4831479999999999
0
LINE
8
BLACK
6
CONTINUOUS
10
139.9339779999999962
20
-96.4831479999999999
11
139.9046029999999803
21
-96.4687149999999889
0
LINE
8
BLACK
6
CONTINUOUS
10
139.9046029999999803
20
-96.4687149999999889
11
139.819533000000007
21
-96.421211999999997
0
LINE
8
BLACK
6
CONTINUOUS
10
139.819533000000007
20
-96.421211999999997
11
139.7366119999999796
21
-96.368938
0
LINE
8
BLACK
6
CONTINUOUS
10
139.7366119999999796
20
-96.368938
11
139.6560340000000053
21
-96.3118679999999898
0
LINE
8
BLACK
6
CONTINUOUS
10
139.6560340000000053
20
-96.3118679999999898
11
139.5779949999999872
21
-96.2499739999999946
0
LINE
8
BLACK
6
CONTINUOUS
10
139.5779949999999872
20
-96.2499739999999946
11
139.5026900000000012
21
-96.1832330000000013
0
LINE
8
BLACK
6
CONTINUOUS
10
139.5026900000000012
20
-96.1832330000000013
11
139.401126000000005
21
-96.0810309999999959
0
LINE
8
BLACK
6
CONTINUOUS
10
139.401126000000005
20
-96.0810309999999959
11
139.3084810000000004
21
-95.973276999999996
0
LINE
8
BLACK
6
CONTINUOUS
10
139.3084810000000004
20
-95.973276999999996
11
139.2247169999999983
21
-95.8604059999999976
0
LINE
8
BLACK
6
CONTINUOUS
10
139.2247169999999983
20
-95.8604059999999976
11
139.1497949999999832
21
-95.7428519999999992
0
LINE
8
BLACK
6
CONTINUOUS
10
139.1497949999999832
20
-95.7428519999999992
11
139.083675999999997
21
-95.6210469999999901
0
LINE
8
BLACK
6
CONTINUOUS
10
139.083675999999997
20
-95.6210469999999901
11
139.0263209999999958
21
-95.4954269999999923
0
LINE
8
BLACK
6
CONTINUOUS
10
139.0263209999999958
20
-95.4954269999999923
11
138.9776899999999955
21
-95.3664229999999975
0
LINE
8
BLACK
6
CONTINUOUS
10
138.9776899999999955
20
-95.3664229999999975
11
138.9377450000000067
21
-95.2344719999999967
0
LINE
8
BLACK
6
CONTINUOUS
10
138.9377450000000067
20
-95.2344719999999967
11
138.9064469999999858
21
-95.1000049999999959
0
LINE
8
BLACK
6
CONTINUOUS
10
138.9064469999999858
20
-95.1000049999999959
11
138.8837570000000028
21
-94.9634559999999937
0
LINE
8
BLACK
6
CONTINUOUS
10
138.8837570000000028
20
-94.9634559999999937
11
138.8696359999999856
21
-94.8252609999999976
0
LINE
8
BLACK
6
CONTINUOUS
10
138.8696359999999856
20
-94.8252609999999976
11
138.8640440000000069
21
-94.6858509999999995
0
LINE
8
BLACK
6
CONTINUOUS
10
138.8640440000000069
20
-94.6858509999999995
11
138.866942999999992
21
-94.5456609999999955
0
LINE
8
BLACK
6
CONTINUOUS
10
138.866942999999992
20
-94.5456609999999955
11
138.8782929999999851
21
-94.4051240000000007
0
LINE
8
BLACK
6
CONTINUOUS
10
138.8782929999999851
20
-94.4051240000000007
11
138.8829089999999837
21
-94.3723169999999953
0
LINE
8
BLACK
6
CONTINUOUS
10
138.8829089999999837
20
-94.3723169999999953
11
138.8996669999999938
21
-94.2128790000000009
0
LINE
8
BLACK
6
CONTINUOUS
10
138.8996669999999938
20
-94.2128790000000009
11
138.9227689999999882
21
-94.1417780000000022
0
LINE
8
BLACK
6
CONTINUOUS
10
138.9227689999999882
20
-94.1417780000000022
11
138.9261939999999811
21
-94.1247460000000018
0
LINE
8
BLACK
6
CONTINUOUS
10
138.9261939999999811
20
-94.1247460000000018
11
138.9630669999999952
21
-93.9860460000000018
0
LINE
8
BLACK
6
CONTINUOUS
10
138.9630669999999952
20
-93.9860460000000018
11
139.0082979999999964
21
-93.8509669999999971
0
LINE
8
BLACK
6
CONTINUOUS
10
139.0082979999999964
20
-93.8509669999999971
11
139.0220510000000047
21
-93.8171409999999923
0
LINE
8
BLACK
6
CONTINUOUS
10
139.0220510000000047
20
-93.8171409999999923
11
139.0425769999999943
21
-93.7593409999999921
0
LINE
8
BLACK
6
CONTINUOUS
10
139.0425769999999943
20
-93.7593409999999921
11
139.1015659999999912
21
-93.6282899999999927
0
LINE
8
BLACK
6
CONTINUOUS
10
139.1015659999999912
20
-93.6282899999999927
11
139.1710949999999798
21
-93.5022499999999894
0
LINE
8
BLACK
6
CONTINUOUS
10
139.1710949999999798
20
-93.5022499999999894
11
139.1879059999999981
21
-93.476900999999998
0
LINE
8
BLACK
6
CONTINUOUS
10
139.1879059999999981
20
-93.476900999999998
11
139.1914299999999969
21
-93.4706249999999983
0
LINE
8
BLACK
6
CONTINUOUS
10
139.1914299999999969
20
-93.4706249999999983
11
139.2673839999999927
21
-93.3531979999999919
0
LINE
8
BLACK
6
CONTINUOUS
10
139.2673839999999927
20
-93.3531979999999919
11
139.350340999999986
21
-93.2409759999999892
0
LINE
8
BLACK
6
CONTINUOUS
10
139.350340999999986
20
-93.2409759999999892
11
139.4400320000000022
21
-93.1342750000000024
0
LINE
8
BLACK
6
CONTINUOUS
10
139.4400320000000022
20
-93.1342750000000024
11
139.536184999999989
21
-93.033411000000001
0
LINE
8
BLACK
6
CONTINUOUS
10
139.536184999999989
20
-93.033411000000001
11
139.6385290000000055
21
-92.9387029999999896
0
LINE
8
BLACK
6
CONTINUOUS
10
139.6385290000000055
20
-92.9387029999999896
11
139.7467929999999967
21
-92.8504649999999998
0
LINE
8
BLACK
6
CONTINUOUS
10
139.7467929999999967
20
-92.8504649999999998
11
139.8607079999999883
21
-92.7690159999999935
0
LINE
8
BLACK
6
CONTINUOUS
10
139.8607079999999883
20
-92.7690159999999935
11
139.9800009999999872
21
-92.6946709999999996
0
LINE
8
BLACK
6
CONTINUOUS
10
139.9800009999999872
20
-92.6946709999999996
11
140.1044029999999907
21
-92.6277479999999969
0
LINE
8
BLACK
6
CONTINUOUS
10
140.1044029999999907
20
-92.6277479999999969
11
140.2336420000000032
21
-92.568562
0
LINE
8
BLACK
6
CONTINUOUS
10
140.2336420000000032
20
-92.568562
11
140.367447999999996
21
-92.517431000000002
0
LINE
8
BLACK
6
CONTINUOUS
10
140.367447999999996
20
-92.517431000000002
11
140.4438779999999838
21
-92.4930249999999887
0
LINE
8
BLACK
6
CONTINUOUS
10
140.4438779999999838
20
-92.4930249999999887
11
140.5212310000000002
21
-92.4720590000000016
0
LINE
8
BLACK
6
CONTINUOUS
10
140.5212310000000002
20
-92.4720590000000016
11
140.5993929999999921
21
-92.4544849999999911
0
LINE
8
BLACK
6
CONTINUOUS
10
140.5993929999999921
20
-92.4544849999999911
11
140.6782489999999939
21
-92.4402559999999909
0
LINE
8
BLACK
6
CONTINUOUS
10
140.6782489999999939
20
-92.4402559999999909
11
140.7576860000000067
21
-92.4293229999999966
0
LINE
8
BLACK
6
CONTINUOUS
10
140.7576860000000067
20
-92.4293229999999966
11
140.8375900000000058
21
-92.421638999999999
0
LINE
8
BLACK
6
CONTINUOUS
10
140.8375900000000058
20
-92.421638999999999
11
140.9178459999999973
21
-92.4171559999999914
0
LINE
8
BLACK
6
CONTINUOUS
10
140.9178459999999973
20
-92.4171559999999914
11
140.9983399999999847
21
-92.4158249999999981
0
LINE
8
BLACK
6
CONTINUOUS
10
140.9983399999999847
20
-92.4158249999999981
11
141.1595849999999928
21
-92.4224299999999914
0
LINE
8
BLACK
6
CONTINUOUS
10
114.1637609999999938
20
-92.0783309999999915
11
114.2315079999999909
21
-92.0887449999999887
0
LINE
8
BLACK
6
CONTINUOUS
10
114.2315079999999909
20
-92.0887449999999887
11
114.2979969999999952
21
-92.102296999999993
0
LINE
8
BLACK
6
CONTINUOUS
10
114.2979969999999952
20
-92.102296999999993
11
114.3634409999999946
21
-92.1196889999999939
0
LINE
8
BLACK
6
CONTINUOUS
10
114.3634409999999946
20
-92.1196889999999939
11
114.4286019999999979
21
-92.1417139999999932
0
LINE
8
BLACK
6
CONTINUOUS
10
114.4286019999999979
20
-92.1417139999999932
11
114.4932349999999985
21
-92.1680860000000024
0
LINE
8
BLACK
6
CONTINUOUS
10
114.4932349999999985
20
-92.1680860000000024
11
114.5570949999999897
21
-92.1985169999999954
0
LINE
8
BLACK
6
CONTINUOUS
10
114.5570949999999897
20
-92.1985169999999954
11
114.6199359999999956
21
-92.232720999999998
0
LINE
8
BLACK
6
CONTINUOUS
10
114.6199359999999956
20
-92.232720999999998
11
114.6815119999999979
21
-92.2704109999999957
0
LINE
8
BLACK
6
CONTINUOUS
10
114.6815119999999979
20
-92.2704109999999957
11
114.7115659999999906
21
-92.2908699999999982
0
LINE
8
BLACK
6
CONTINUOUS
10
114.7115659999999906
20
-92.2908699999999982
11
114.7513259999999917
21
-92.2873159999999899
0
LINE
8
BLACK
6
CONTINUOUS
10
114.7513259999999917
20
-92.2873159999999899
11
114.8647009999999966
21
-92.2826120000000003
0
LINE
8
BLACK
6
CONTINUOUS
10
114.8647009999999966
20
-92.2826120000000003
11
114.9778929999999946
21
-92.283450000000002
0
LINE
8
BLACK
6
CONTINUOUS
10
114.9778929999999946
20
-92.283450000000002
11
115.0906439999999975
21
-92.2899479999999954
0
LINE
8
BLACK
6
CONTINUOUS
10
115.0906439999999975
20
-92.2899479999999954
11
115.2026970000000006
21
-92.3022209999999887
0
LINE
8
BLACK
6
CONTINUOUS
10
115.2026970000000006
20
-92.3022209999999887
11
115.3137959999999964
21
-92.3203879999999941
0
LINE
8
BLACK
6
CONTINUOUS
10
115.3137959999999964
20
-92.3203879999999941
11
115.4236829999999969
21
-92.3445639999999912
0
LINE
8
BLACK
6
CONTINUOUS
10
115.4236829999999969
20
-92.3445639999999912
11
115.5321009999999973
21
-92.3748679999999922
0
LINE
8
BLACK
6
CONTINUOUS
10
115.5321009999999973
20
-92.3748679999999922
11
115.6387939999999901
21
-92.4114160000000027
0
LINE
8
BLACK
6
CONTINUOUS
10
115.6387939999999901
20
-92.4114160000000027
11
115.7435029999999898
21
-92.4543249999999972
0
LINE
8
BLACK
6
CONTINUOUS
10
115.7435029999999898
20
-92.4543249999999972
11
115.8459739999999982
21
-92.5037129999999905
0
LINE
8
BLACK
6
CONTINUOUS
10
115.8459739999999982
20
-92.5037129999999905
11
115.9459469999999897
21
-92.5596949999999907
0
LINE
8
BLACK
6
CONTINUOUS
10
115.9459469999999897
20
-92.5596949999999907
11
116.0431669999999968
21
-92.6223909999999933
0
LINE
8
BLACK
6
CONTINUOUS
10
116.0431669999999968
20
-92.6223909999999933
11
116.1527919999999909
21
-92.7033890000000014
0
LINE
8
BLACK
6
CONTINUOUS
10
116.1527919999999909
20
-92.7033890000000014
11
116.2560339999999997
21
-92.7904319999999956
0
LINE
8
BLACK
6
CONTINUOUS
10
116.2560339999999997
20
-92.7904319999999956
11
116.3528279999999882
21
-92.8831129999999945
0
LINE
8
BLACK
6
CONTINUOUS
10
116.3528279999999882
20
-92.8831129999999945
11
116.4431060000000002
21
-92.9810239999999908
0
LINE
8
BLACK
6
CONTINUOUS
10
116.4431060000000002
20
-92.9810239999999908
11
116.5268019999999893
21
-93.0837579999999889
0
LINE
8
BLACK
6
CONTINUOUS
10
116.5268019999999893
20
-93.0837579999999889
11
116.6038479999999993
21
-93.1909069999999957
0
LINE
8
BLACK
6
CONTINUOUS
10
116.6038479999999993
20
-93.1909069999999957
11
116.6741770000000002
21
-93.3020619999999923
0
LINE
8
BLACK
6
CONTINUOUS
10
116.6741770000000002
20
-93.3020619999999923
11
116.737724
21
-93.4168179999999921
0
LINE
8
BLACK
6
CONTINUOUS
10
116.737724
20
-93.4168179999999921
11
116.7944209999999998
21
-93.5347659999999905
0
LINE
8
BLACK
6
CONTINUOUS
10
116.7944209999999998
20
-93.5347659999999905
11
116.8442009999999982
21
-93.6554979999999944
0
LINE
8
BLACK
6
CONTINUOUS
10
116.8442009999999982
20
-93.6554979999999944
11
116.8869969999999938
21
-93.7786069999999938
0
LINE
8
BLACK
6
CONTINUOUS
10
116.8869969999999938
20
-93.7786069999999938
11
116.922742999999997
21
-93.9036849999999959
0
LINE
8
BLACK
6
CONTINUOUS
10
116.922742999999997
20
-93.9036849999999959
11
116.9513709999999946
21
-94.0303239999999931
0
LINE
8
BLACK
6
CONTINUOUS
10
116.9513709999999946
20
-94.0303239999999931
11
116.9728159999999946
21
-94.1581180000000018
0
LINE
8
BLACK
6
CONTINUOUS
10
116.9728159999999946
20
-94.1581180000000018
11
116.9870090000000005
21
-94.2866580000000027
0
LINE
8
BLACK
6
CONTINUOUS
10
116.9870090000000005
20
-94.2866580000000027
11
116.9938849999999917
21
-94.4155370000000005
0
LINE
8
BLACK
6
CONTINUOUS
10
116.9938849999999917
20
-94.4155370000000005
11
116.9933759999999978
21
-94.5443470000000019
0
LINE
8
BLACK
6
CONTINUOUS
10
116.9933759999999978
20
-94.5443470000000019
11
116.985414999999989
21
-94.6726809999999972
0
LINE
8
BLACK
6
CONTINUOUS
10
116.985414999999989
20
-94.6726809999999972
11
116.9699370000000016
21
-94.8001299999999958
0
LINE
8
BLACK
6
CONTINUOUS
10
116.9699370000000016
20
-94.8001299999999958
11
116.9468729999999965
21
-94.9262879999999996
0
LINE
8
BLACK
6
CONTINUOUS
10
116.9468729999999965
20
-94.9262879999999996
11
116.9161569999999983
21
-95.0507459999999895
0
LINE
8
BLACK
6
CONTINUOUS
10
116.9161569999999983
20
-95.0507459999999895
11
116.8777219999999915
21
-95.173097999999996
0
LINE
8
BLACK
6
CONTINUOUS
10
116.8777219999999915
20
-95.173097999999996
11
116.8315020000000004
21
-95.2929349999999999
0
LINE
8
BLACK
6
CONTINUOUS
10
116.8315020000000004
20
-95.2929349999999999
11
116.7774289999999979
21
-95.4098499999999916
0
LINE
8
BLACK
6
CONTINUOUS
10
116.7774289999999979
20
-95.4098499999999916
11
116.7154369999999943
21
-95.5234359999999896
0
LINE
8
BLACK
6
CONTINUOUS
10
116.7154369999999943
20
-95.5234359999999896
11
116.6454579999999908
21
-95.6332839999999891
0
LINE
8
BLACK
6
CONTINUOUS
10
116.6454579999999908
20
-95.6332839999999891
11
116.567426999999995
21
-95.7389869999999945
0
LINE
8
BLACK
6
CONTINUOUS
10
116.567426999999995
20
-95.7389869999999945
11
116.481275999999994
21
-95.8401369999999986
0
LINE
8
BLACK
6
CONTINUOUS
10
116.481275999999994
20
-95.8401369999999986
11
116.3869380000000007
21
-95.9363269999999915
0
LINE
8
BLACK
6
CONTINUOUS
10
116.3869380000000007
20
-95.9363269999999915
11
116.2843469999999968
21
-96.0271499999999918
0
LINE
8
BLACK
6
CONTINUOUS
10
116.2843469999999968
20
-96.0271499999999918
11
116.1734349999999978
21
-96.1121969999999948
0
LINE
8
BLACK
6
CONTINUOUS
10
116.1734349999999978
20
-96.1121969999999948
11
116.0541359999999997
21
-96.1910609999999906
0
LINE
8
BLACK
6
CONTINUOUS
10
116.0541359999999997
20
-96.1910609999999906
11
115.9474680000000006
21
-96.2521119999999968
0
LINE
8
BLACK
6
CONTINUOUS
10
115.9474680000000006
20
-96.2521119999999968
11
115.838286999999994
21
-96.3063530000000014
0
LINE
8
BLACK
6
CONTINUOUS
10
115.838286999999994
20
-96.3063530000000014
11
115.7269159999999886
21
-96.3538420000000002
0
LINE
8
BLACK
6
CONTINUOUS
10
115.7269159999999886
20
-96.3538420000000002
11
115.6136789999999905
21
-96.3946359999999913
0
LINE
8
BLACK
6
CONTINUOUS
10
115.6136789999999905
20
-96.3946359999999913
11
115.498897999999997
21
-96.4287899999999922
0
LINE
8
BLACK
6
CONTINUOUS
10
115.498897999999997
20
-96.4287899999999922
11
115.3828969999999998
21
-96.4563629999999961
0
LINE
8
BLACK
6
CONTINUOUS
10
115.3828969999999998
20
-96.4563629999999961
11
115.2659999999999911
21
-96.4774099999999919
0
LINE
8
BLACK
6
CONTINUOUS
10
115.2659999999999911
20
-96.4774099999999919
11
115.1485289999999964
21
-96.4919889999999896
0
LINE
8
BLACK
6
CONTINUOUS
10
115.1485289999999964
20
-96.4919889999999896
11
115.0308079999999933
21
-96.5001570000000015
0
LINE
8
BLACK
6
CONTINUOUS
10
115.0308079999999933
20
-96.5001570000000015
11
114.9131599999999906
21
-96.5019690000000026
0
LINE
8
BLACK
6
CONTINUOUS
10
114.9131599999999906
20
-96.5019690000000026
11
114.7959089999999946
21
-96.497484
0
LINE
8
BLACK
6
CONTINUOUS
10
114.7959089999999946
20
-96.497484
11
114.6793769999999881
21
-96.4867569999999972
0
LINE
8
BLACK
6
CONTINUOUS
10
114.6793769999999881
20
-96.4867569999999972
11
114.563888999999989
21
-96.4698459999999898
0
LINE
8
BLACK
6
CONTINUOUS
10
114.563888999999989
20
-96.4698459999999898
11
114.4721749999999929
21
-96.4513309999999962
0
LINE
8
BLACK
6
CONTINUOUS
10
114.4721749999999929
20
-96.4513309999999962
11
114.4144149999999911
21
-96.4635990000000021
0
LINE
8
BLACK
6
CONTINUOUS
10
114.4144149999999911
20
-96.4635990000000021
11
114.3453839999999957
21
-96.4751969999999943
0
LINE
8
BLACK
6
CONTINUOUS
10
114.3453839999999957
20
-96.4751969999999943
11
114.2760219999999975
21
-96.4836919999999907
0
LINE
8
BLACK
6
CONTINUOUS
10
114.2760219999999975
20
-96.4836919999999907
11
114.2061969999999889
21
-96.4890049999999917
0
LINE
8
BLACK
6
CONTINUOUS
10
114.2061969999999889
20
-96.4890049999999917
11
114.1357749999999953
21
-96.4910539999999912
0
LINE
8
BLACK
6
CONTINUOUS
10
114.1357749999999953
20
-96.4910539999999912
11
114.0646239999999949
21
-96.4897599999999898
0
LINE
8
BLACK
6
CONTINUOUS
10
114.0646239999999949
20
-96.4897599999999898
11
113.9926090000000016
21
-96.4850419999999929
0
LINE
8
BLACK
6
CONTINUOUS
10
113.9926090000000016
20
-96.4850419999999929
11
113.919598999999991
21
-96.4768199999999894
0
LINE
8
BLACK
6
CONTINUOUS
10
113.919598999999991
20
-96.4768199999999894
11
113.8454589999999911
21
-96.4650139999999965
0
LINE
8
BLACK
6
CONTINUOUS
10
113.8454589999999911
20
-96.4650139999999965
11
113.7700569999999942
21
-96.4495429999999914
0
LINE
8
BLACK
6
CONTINUOUS
10
113.7700569999999942
20
-96.4495429999999914
11
113.7067489999999879
21
-96.432666999999995
0
LINE
8
BLACK
6
CONTINUOUS
10
113.7067489999999879
20
-96.432666999999995
11
113.6427959999999899
21
-96.4110249999999951
0
LINE
8
BLACK
6
CONTINUOUS
10
113.6427959999999899
20
-96.4110249999999951
11
113.5785809999999998
21
-96.3849170000000015
0
LINE
8
BLACK
6
CONTINUOUS
10
113.5785809999999998
20
-96.3849170000000015
11
113.5144880000000001
21
-96.3546449999999908
0
LINE
8
BLACK
6
CONTINUOUS
10
113.5144880000000001
20
-96.3546449999999908
11
113.4508989999999926
21
-96.3205069999999921
0
LINE
8
BLACK
6
CONTINUOUS
10
113.4508989999999926
20
-96.3205069999999921
11
113.3881979999999885
21
-96.2828059999999937
0
LINE
8
BLACK
6
CONTINUOUS
10
113.3881979999999885
20
-96.2828059999999937
11
113.3267680000000013
21
-96.2418419999999912
0
LINE
8
BLACK
6
CONTINUOUS
10
113.3267680000000013
20
-96.2418419999999912
11
113.2669929999999994
21
-96.1979149999999947
0
LINE
8
BLACK
6
CONTINUOUS
10
113.2669929999999994
20
-96.1979149999999947
11
113.2092549999999989
21
-96.1513259999999974
0
LINE
8
BLACK
6
CONTINUOUS
10
113.2092549999999989
20
-96.1513259999999974
11
113.1539389999999941
21
-96.102374999999995
0
LINE
8
BLACK
6
CONTINUOUS
10
113.1539389999999941
20
-96.102374999999995
11
113.1014259999999894
21
-96.0513639999999924
0
LINE
8
BLACK
6
CONTINUOUS
10
113.1014259999999894
20
-96.0513639999999924
11
113.0521009999999933
21
-95.9985920000000021
0
LINE
8
BLACK
6
CONTINUOUS
10
113.0521009999999933
20
-95.9985920000000021
11
113.006346999999991
21
-95.9443610000000007
0
LINE
8
BLACK
6
CONTINUOUS
10
113.006346999999991
20
-95.9443610000000007
11
112.9645459999999986
21
-95.888970999999998
0
LINE
8
BLACK
6
CONTINUOUS
10
112.9645459999999986
20
-95.888970999999998
11
112.9270829999999961
21
-95.8327230000000014
0
LINE
8
BLACK
6
CONTINUOUS
10
112.9270829999999961
20
-95.8327230000000014
11
112.8943399999999997
21
-95.7759169999999926
0
LINE
8
BLACK
6
CONTINUOUS
10
112.8943399999999997
20
-95.7759169999999926
11
112.8140769999999975
21
-95.6167909999999921
0
LINE
8
BLACK
6
CONTINUOUS
10
112.8140769999999975
20
-95.6167909999999921
11
112.7418129999999934
21
-95.4571819999999889
0
LINE
8
BLACK
6
CONTINUOUS
10
112.7418129999999934
20
-95.4571819999999889
11
112.677433999999991
21
-95.2970079999999911
0
LINE
8
BLACK
6
CONTINUOUS
10
112.677433999999991
20
-95.2970079999999911
11
112.6208249999999964
21
-95.1361890000000017
0
LINE
8
BLACK
6
CONTINUOUS
10
112.6208249999999964
20
-95.1361890000000017
11
112.571871999999999
21
-94.9746449999999953
0
LINE
8
BLACK
6
CONTINUOUS
10
112.571871999999999
20
-94.9746449999999953
11
112.5304589999999934
21
-94.8122959999999892
0
LINE
8
BLACK
6
CONTINUOUS
10
112.5304589999999934
20
-94.8122959999999892
11
112.4964719999999971
21
-94.649060999999989
0
LINE
8
BLACK
6
CONTINUOUS
10
112.4964719999999971
20
-94.649060999999989
11
112.4697969999999998
21
-94.4848590000000002
0
LINE
8
BLACK
6
CONTINUOUS
10
112.4697969999999998
20
-94.4848590000000002
11
112.4503179999999958
21
-94.3196119999999922
0
LINE
8
BLACK
6
CONTINUOUS
10
112.4503179999999958
20
-94.3196119999999922
11
112.4379209999999887
21
-94.1532369999999901
0
LINE
8
BLACK
6
CONTINUOUS
10
112.4379209999999887
20
-94.1532369999999901
11
112.4324900000000014
21
-93.9856559999999916
0
LINE
8
BLACK
6
CONTINUOUS
10
112.4324900000000014
20
-93.9856559999999916
11
112.4339119999999923
21
-93.8167869999999908
0
LINE
8
BLACK
6
CONTINUOUS
10
112.4339119999999923
20
-93.8167869999999908
11
112.4420709999999985
21
-93.6465499999999906
0
LINE
8
BLACK
6
CONTINUOUS
10
112.4420709999999985
20
-93.6465499999999906
11
112.4568529999999953
21
-93.4748659999999916
0
LINE
8
BLACK
6
CONTINUOUS
10
112.4568529999999953
20
-93.4748659999999916
11
112.4781429999999887
21
-93.3016530000000017
0
LINE
8
BLACK
6
CONTINUOUS
10
112.4781429999999887
20
-93.3016530000000017
11
112.5058269999999965
21
-93.1268309999999957
0
LINE
8
BLACK
6
CONTINUOUS
10
112.5058269999999965
20
-93.1268309999999957
11
112.5058269999999965
21
-93.1268389999999897
0
LINE
8
BLACK
6
CONTINUOUS
10
112.5058269999999965
20
-93.1268389999999897
11
112.521380999999991
21
-93.0523209999999921
0
LINE
8
BLACK
6
CONTINUOUS
10
112.521380999999991
20
-93.0523209999999921
11
112.5414779999999979
21
-92.9803469999999948
0
LINE
8
BLACK
6
CONTINUOUS
10
112.5414779999999979
20
-92.9803469999999948
11
112.5659249999999929
21
-92.9109369999999899
0
LINE
8
BLACK
6
CONTINUOUS
10
112.5659249999999929
20
-92.9109369999999899
11
112.5945279999999968
21
-92.8441109999999981
0
LINE
8
BLACK
6
CONTINUOUS
10
112.5945279999999968
20
-92.8441109999999981
11
112.6270939999999996
21
-92.7798879999999997
0
LINE
8
BLACK
6
CONTINUOUS
10
112.6270939999999996
20
-92.7798879999999997
11
112.6634309999999886
21
-92.7182889999999986
0
LINE
8
BLACK
6
CONTINUOUS
10
112.6634309999999886
20
-92.7182889999999986
11
112.7033429999999896
21
-92.659331999999992
0
LINE
8
BLACK
6
CONTINUOUS
10
112.7033429999999896
20
-92.659331999999992
11
112.7466390000000018
21
-92.6030389999999954
0
LINE
8
BLACK
6
CONTINUOUS
10
112.7466390000000018
20
-92.6030389999999954
11
112.7931249999999892
21
-92.5494269999999943
0
LINE
8
BLACK
6
CONTINUOUS
10
112.7931249999999892
20
-92.5494269999999943
11
112.842607000000001
21
-92.4985190000000017
0
LINE
8
BLACK
6
CONTINUOUS
10
112.842607000000001
20
-92.4985190000000017
11
112.8948919999999987
21
-92.4503319999999889
0
LINE
8
BLACK
6
CONTINUOUS
10
112.8948919999999987
20
-92.4503319999999889
11
112.9497870000000006
21
-92.4048879999999997
0
LINE
8
BLACK
6
CONTINUOUS
10
112.9497870000000006
20
-92.4048879999999997
11
113.0070979999999992
21
-92.3622049999999888
0
LINE
8
BLACK
6
CONTINUOUS
10
113.0070979999999992
20
-92.3622049999999888
11
113.0666319999999985
21
-92.3223040000000026
0
LINE
8
BLACK
6
CONTINUOUS
10
113.0666319999999985
20
-92.3223040000000026
11
113.1281970000000001
21
-92.2852039999999931
0
LINE
8
BLACK
6
CONTINUOUS
10
113.1281970000000001
20
-92.2852039999999931
11
113.1915970000000016
21
-92.2509249999999952
0
LINE
8
BLACK
6
CONTINUOUS
10
113.1915970000000016
20
-92.2509249999999952
11
113.323133999999996
21
-92.1909100000000024
0
LINE
8
BLACK
6
CONTINUOUS
10
113.323133999999996
20
-92.1909100000000024
11
113.4596969999999914
21
-92.1424179999999922
0
LINE
8
BLACK
6
CONTINUOUS
10
113.4596969999999914
20
-92.1424179999999922
11
113.5997389999999996
21
-92.1056059999999945
0
LINE
8
BLACK
6
CONTINUOUS
10
113.5997389999999996
20
-92.1056059999999945
11
113.7417129999999901
21
-92.0806329999999917
0
LINE
8
BLACK
6
CONTINUOUS
10
113.7417129999999901
20
-92.0806329999999917
11
113.8840719999999891
21
-92.067656999999997
0
LINE
8
BLACK
6
CONTINUOUS
10
113.8840719999999891
20
-92.067656999999997
11
114.0252709999999894
21
-92.0668369999999925
0
LINE
8
BLACK
6
CONTINUOUS
10
114.0252709999999894
20
-92.0668369999999925
11
114.1637609999999938
21
-92.0783309999999915
0
LINE
8
BLACK
6
CONTINUOUS
10
116.8016349999999903
20
-87.9058220000000006
11
117.1549579999999935
21
-87.929988999999992
0
LINE
8
BLACK
6
CONTINUOUS
10
117.1549579999999935
20
-87.929988999999992
11
117.5039359999999959
21
-87.9697159999999911
0
LINE
8
BLACK
6
CONTINUOUS
10
117.5039359999999959
20
-87.9697159999999911
11
117.8483209999999985
21
-88.0246309999999994
0
LINE
8
BLACK
6
CONTINUOUS
10
117.8483209999999985
20
-88.0246309999999994
11
118.1878619999999955
21
-88.0943639999999988
0
LINE
8
BLACK
6
CONTINUOUS
10
118.1878619999999955
20
-88.0943639999999988
11
118.5223109999999878
21
-88.1785440000000023
0
LINE
8
BLACK
6
CONTINUOUS
10
118.5223109999999878
20
-88.1785440000000023
11
118.8514179999999953
21
-88.2767979999999994
0
LINE
8
BLACK
6
CONTINUOUS
10
118.8514179999999953
20
-88.2767979999999994
11
119.1749349999999907
21
-88.3887569999999982
0
LINE
8
BLACK
6
CONTINUOUS
10
119.1749349999999907
20
-88.3887569999999982
11
119.4926109999999966
21
-88.5140480000000025
0
LINE
8
BLACK
6
CONTINUOUS
10
119.4926109999999966
20
-88.5140480000000025
11
119.8041969999999878
21
-88.6523009999999942
0
LINE
8
BLACK
6
CONTINUOUS
10
119.8041969999999878
20
-88.6523009999999942
11
120.1094449999999938
21
-88.803143999999989
0
LINE
8
BLACK
6
CONTINUOUS
10
120.1094449999999938
20
-88.803143999999989
11
120.4081049999999919
21
-88.9662059999999997
0
LINE
8
BLACK
6
CONTINUOUS
10
120.4081049999999919
20
-88.9662059999999997
11
120.6999269999999882
21
-89.1411169999999942
0
LINE
8
BLACK
6
CONTINUOUS
10
120.6999269999999882
20
-89.1411169999999942
11
120.9846629999999976
21
-89.3275039999999905
0
LINE
8
BLACK
6
CONTINUOUS
10
120.9846629999999976
20
-89.3275039999999905
11
121.2620620000000002
21
-89.5249979999999965
0
LINE
8
BLACK
6
CONTINUOUS
10
121.2620620000000002
20
-89.5249979999999965
11
121.5318769999999944
21
-89.7332249999999902
0
LINE
8
BLACK
6
CONTINUOUS
10
121.5318769999999944
20
-89.7332249999999902
11
121.7938569999999885
21
-89.9518159999999938
0
LINE
8
BLACK
6
CONTINUOUS
10
121.7938569999999885
20
-89.9518159999999938
11
122.0477539999999976
21
-90.1803989999999942
0
LINE
8
BLACK
6
CONTINUOUS
10
122.0477539999999976
20
-90.1803989999999942
11
122.5302989999999994
21
-90.666056999999995
0
LINE
8
BLACK
6
CONTINUOUS
10
122.5302989999999994
20
-90.666056999999995
11
122.9775179999999892
21
-91.1872290000000021
0
LINE
8
BLACK
6
CONTINUOUS
10
122.9775179999999892
20
-91.1872290000000021
11
123.3874159999999875
21
-91.7409449999999964
0
LINE
8
BLACK
6
CONTINUOUS
10
123.3874159999999875
20
-91.7409449999999964
11
123.7579999999999956
21
-92.3242369999999966
0
LINE
8
BLACK
6
CONTINUOUS
10
123.7579999999999956
20
-92.3242369999999966
11
124.0872759999999886
21
-92.9341349999999977
0
LINE
8
BLACK
6
CONTINUOUS
10
124.0872759999999886
20
-92.9341349999999977
11
124.3732490000000013
21
-93.5676689999999951
0
LINE
8
BLACK
6
CONTINUOUS
10
124.3732490000000013
20
-93.5676689999999951
11
124.6139249999999947
21
-94.2218699999999956
0
LINE
8
BLACK
6
CONTINUOUS
10
124.6139249999999947
20
-94.2218699999999956
11
124.6593009999999992
21
-94.3875349999999997
0
LINE
8
BLACK
6
CONTINUOUS
10
124.6593009999999992
20
-94.3875349999999997
11
124.6856760000000008
21
-94.5468469999999996
0
LINE
8
BLACK
6
CONTINUOUS
10
124.6856760000000008
20
-94.5468469999999996
11
124.6940879999999936
21
-94.6995299999999958
0
LINE
8
BLACK
6
CONTINUOUS
10
124.6940879999999936
20
-94.6995299999999958
11
124.685575
21
-94.8453059999999937
0
LINE
8
BLACK
6
CONTINUOUS
10
124.685575
20
-94.8453059999999937
11
124.6611739999999884
21
-94.9838989999999939
0
LINE
8
BLACK
6
CONTINUOUS
10
124.6611739999999884
20
-94.9838989999999939
11
124.6219219999999979
21
-95.1150339999999943
0
LINE
8
BLACK
6
CONTINUOUS
10
124.6219219999999979
20
-95.1150339999999943
11
124.5688569999999942
21
-95.2384330000000006
0
LINE
8
BLACK
6
CONTINUOUS
10
124.5688569999999942
20
-95.2384330000000006
11
124.5030169999999998
21
-95.3538190000000014
0
LINE
8
BLACK
6
CONTINUOUS
10
124.5030169999999998
20
-95.3538190000000014
11
124.4254389999999972
21
-95.4609169999999949
0
LINE
8
BLACK
6
CONTINUOUS
10
124.4254389999999972
20
-95.4609169999999949
11
124.3371599999999972
21
-95.5594490000000008
0
LINE
8
BLACK
6
CONTINUOUS
10
124.3371599999999972
20
-95.5594490000000008
11
124.2392189999999914
21
-95.6491400000000027
0
LINE
8
BLACK
6
CONTINUOUS
10
124.2392189999999914
20
-95.6491400000000027
11
124.1326529999999906
21
-95.7297119999999921
0
LINE
8
BLACK
6
CONTINUOUS
10
124.1326529999999906
20
-95.7297119999999921
11
124.0184989999999914
21
-95.8008899999999954
0
LINE
8
BLACK
6
CONTINUOUS
10
124.0184989999999914
20
-95.8008899999999954
11
123.8977939999999904
21
-95.8623959999999897
0
LINE
8
BLACK
6
CONTINUOUS
10
123.8977939999999904
20
-95.8623959999999897
11
123.7715769999999935
21
-95.9139539999999897
0
LINE
8
BLACK
6
CONTINUOUS
10
123.7715769999999935
20
-95.9139539999999897
11
123.6408849999999973
21
-95.9552879999999959
0
LINE
8
BLACK
6
CONTINUOUS
10
123.6408849999999973
20
-95.9552879999999959
11
123.5067549999999983
21
-95.9861209999999971
0
LINE
8
BLACK
6
CONTINUOUS
10
123.5067549999999983
20
-95.9861209999999971
11
123.3702249999999907
21
-96.0061759999999964
0
LINE
8
BLACK
6
CONTINUOUS
10
123.3702249999999907
20
-96.0061759999999964
11
123.232332999999997
21
-96.0151769999999942
0
LINE
8
BLACK
6
CONTINUOUS
10
123.232332999999997
20
-96.0151769999999942
11
123.0941159999999996
21
-96.0128479999999911
0
LINE
8
BLACK
6
CONTINUOUS
10
123.0941159999999996
20
-96.0128479999999911
11
122.9566109999999952
21
-95.99891199999999
0
LINE
8
BLACK
6
CONTINUOUS
10
122.9566109999999952
20
-95.99891199999999
11
122.820855999999992
21
-95.9730919999999941
0
LINE
8
BLACK
6
CONTINUOUS
10
122.820855999999992
20
-95.9730919999999941
11
122.6878889999999984
21
-95.9351119999999895
0
LINE
8
BLACK
6
CONTINUOUS
10
122.6878889999999984
20
-95.9351119999999895
11
122.5587459999999993
21
-95.8846949999999936
0
LINE
8
BLACK
6
CONTINUOUS
10
122.5587459999999993
20
-95.8846949999999936
11
122.4344669999999979
21
-95.8215649999999926
0
LINE
8
BLACK
6
CONTINUOUS
10
122.4344669999999979
20
-95.8215649999999926
11
122.3160879999999935
21
-95.7454460000000012
0
LINE
8
BLACK
6
CONTINUOUS
10
122.3160879999999935
20
-95.7454460000000012
11
122.2046459999999968
21
-95.6560599999999965
0
LINE
8
BLACK
6
CONTINUOUS
10
122.2046459999999968
20
-95.6560599999999965
11
122.1011799999999994
21
-95.5531309999999934
0
LINE
8
BLACK
6
CONTINUOUS
10
122.1011799999999994
20
-95.5531309999999934
11
122.0067260000000005
21
-95.4363839999999897
0
LINE
8
BLACK
6
CONTINUOUS
10
122.0067260000000005
20
-95.4363839999999897
11
121.9223229999999916
21
-95.3055399999999935
0
LINE
8
BLACK
6
CONTINUOUS
10
121.9223229999999916
20
-95.3055399999999935
11
121.8490079999999978
21
-95.1603240000000028
0
LINE
8
BLACK
6
CONTINUOUS
10
121.8490079999999978
20
-95.1603240000000028
11
121.7878180000000015
21
-95.0004589999999922
0
LINE
8
BLACK
6
CONTINUOUS
10
121.7878180000000015
20
-95.0004589999999922
11
121.6377099999999984
21
-94.5907849999999968
0
LINE
8
BLACK
6
CONTINUOUS
10
121.6377099999999984
20
-94.5907849999999968
11
121.4590579999999989
21
-94.1909390000000002
0
LINE
8
BLACK
6
CONTINUOUS
10
121.4590579999999989
20
-94.1909390000000002
11
121.2531299999999987
21
-93.8030759999999901
0
LINE
8
BLACK
6
CONTINUOUS
10
121.2531299999999987
20
-93.8030759999999901
11
121.0211949999999916
21
-93.4293519999999944
0
LINE
8
BLACK
6
CONTINUOUS
10
121.0211949999999916
20
-93.4293519999999944
11
120.764522999999997
21
-93.071920999999989
0
LINE
8
BLACK
6
CONTINUOUS
10
120.764522999999997
20
-93.071920999999989
11
120.4843819999999965
21
-92.7329369999999926
0
LINE
8
BLACK
6
CONTINUOUS
10
120.4843819999999965
20
-92.7329369999999926
11
120.1820409999999981
21
-92.4145559999999904
0
LINE
8
BLACK
6
CONTINUOUS
10
120.1820409999999981
20
-92.4145559999999904
11
119.8587689999999952
21
-92.1189329999999984
0
LINE
8
BLACK
6
CONTINUOUS
10
119.8587689999999952
20
-92.1189329999999984
11
119.5158349999999956
21
-91.8482209999999952
0
LINE
8
BLACK
6
CONTINUOUS
10
119.5158349999999956
20
-91.8482209999999952
11
119.1545089999999902
21
-91.6045769999999919
0
LINE
8
BLACK
6
CONTINUOUS
10
119.1545089999999902
20
-91.6045769999999919
11
118.7760589999999894
21
-91.3901549999999929
0
LINE
8
BLACK
6
CONTINUOUS
10
118.7760589999999894
20
-91.3901549999999929
11
118.5808089999999879
21
-91.2945749999999947
0
LINE
8
BLACK
6
CONTINUOUS
10
118.5808089999999879
20
-91.2945749999999947
11
118.3817540000000008
21
-91.2071090000000027
0
LINE
8
BLACK
6
CONTINUOUS
10
118.3817540000000008
20
-91.2071090000000027
11
118.1790529999999961
21
-91.1280259999999913
0
LINE
8
BLACK
6
CONTINUOUS
10
118.1790529999999961
20
-91.1280259999999913
11
117.9728640000000013
21
-91.0575949999999921
0
LINE
8
BLACK
6
CONTINUOUS
10
117.9728640000000013
20
-91.0575949999999921
11
117.7633450000000011
21
-90.9960859999999911
0
LINE
8
BLACK
6
CONTINUOUS
10
117.7633450000000011
20
-90.9960859999999911
11
117.5506559999999894
21
-90.9437679999999915
0
LINE
8
BLACK
6
CONTINUOUS
10
117.5506559999999894
20
-90.9437679999999915
11
117.3349549999999937
21
-90.9009099999999961
0
LINE
8
BLACK
6
CONTINUOUS
10
117.3349549999999937
20
-90.9009099999999961
11
117.1164009999999962
21
-90.8677809999999937
0
LINE
8
BLACK
6
CONTINUOUS
10
117.1164009999999962
20
-90.8677809999999937
11
116.895151999999996
21
-90.8446519999999964
0
LINE
8
BLACK
6
CONTINUOUS
10
116.895151999999996
20
-90.8446519999999964
11
116.6713659999999919
21
-90.8317909999999955
0
LINE
8
BLACK
6
CONTINUOUS
10
116.6713659999999919
20
-90.8317909999999955
11
116.4474099999999908
21
-90.8292819999999921
0
LINE
8
BLACK
6
CONTINUOUS
10
116.4474099999999908
20
-90.8292819999999921
11
116.2224069999999898
21
-90.8366539999999958
0
LINE
8
BLACK
6
CONTINUOUS
10
116.2224069999999898
20
-90.8366539999999958
11
115.9969459999999941
21
-90.8537809999999979
0
LINE
8
BLACK
6
CONTINUOUS
10
115.9969459999999941
20
-90.8537809999999979
11
115.7716139999999996
21
-90.8805380000000014
0
LINE
8
BLACK
6
CONTINUOUS
10
115.7716139999999996
20
-90.8805380000000014
11
115.5469989999999996
21
-90.916799999999995
0
LINE
8
BLACK
6
CONTINUOUS
10
115.5469989999999996
20
-90.916799999999995
11
115.3236890000000017
21
-90.9624419999999958
0
LINE
8
BLACK
6
CONTINUOUS
10
115.3236890000000017
20
-90.9624419999999958
11
115.1022719999999993
21
-91.0173389999999927
0
LINE
8
BLACK
6
CONTINUOUS
10
115.1022719999999993
20
-91.0173389999999927
11
114.8833349999999882
21
-91.0813660000000027
0
LINE
8
BLACK
6
CONTINUOUS
10
114.8833349999999882
20
-91.0813660000000027
11
114.6674659999999903
21
-91.1543980000000005
0
LINE
8
BLACK
6
CONTINUOUS
10
114.6674659999999903
20
-91.1543980000000005
11
114.4552539999999965
21
-91.2363089999999914
0
LINE
8
BLACK
6
CONTINUOUS
10
114.4552539999999965
20
-91.2363089999999914
11
114.2472839999999934
21
-91.3269749999999902
0
LINE
8
BLACK
6
CONTINUOUS
10
114.2472839999999934
20
-91.3269749999999902
11
114.0441469999999953
21
-91.4262709999999998
0
LINE
8
BLACK
6
CONTINUOUS
10
114.0441469999999953
20
-91.4262709999999998
11
113.8464279999999889
21
-91.5340709999999973
0
LINE
8
BLACK
6
CONTINUOUS
10
113.8464279999999889
20
-91.5340709999999973
11
113.6547159999999934
21
-91.6502499999999998
0
LINE
8
BLACK
6
CONTINUOUS
10
113.6547159999999934
20
-91.6502499999999998
11
113.4695989999999881
21
-91.7746839999999935
0
LINE
8
BLACK
6
CONTINUOUS
10
113.4695989999999881
20
-91.7746839999999935
11
113.2916649999999947
21
-91.9072479999999956
0
LINE
8
BLACK
6
CONTINUOUS
10
113.2916649999999947
20
-91.9072479999999956
11
113.1214999999999975
21
-92.0478149999999999
0
LINE
8
BLACK
6
CONTINUOUS
10
113.1214999999999975
20
-92.0478149999999999
11
112.9596939999999989
21
-92.1962619999999902
0
LINE
8
BLACK
6
CONTINUOUS
10
112.9596939999999989
20
-92.1962619999999902
11
112.8068329999999975
21
-92.3524630000000002
0
LINE
8
BLACK
6
CONTINUOUS
10
112.8068329999999975
20
-92.3524630000000002
11
112.6635059999999982
21
-92.5162929999999903
0
LINE
8
BLACK
6
CONTINUOUS
10
112.6635059999999982
20
-92.5162929999999903
11
112.5302999999999969
21
-92.687626999999992
0
LINE
8
BLACK
6
CONTINUOUS
10
112.5302999999999969
20
-92.687626999999992
11
112.4078030000000012
21
-92.8663389999999964
0
LINE
8
BLACK
6
CONTINUOUS
10
112.4078030000000012
20
-92.8663389999999964
11
112.2966019999999929
21
-93.0523060000000015
0
LINE
8
BLACK
6
CONTINUOUS
10
112.2966019999999929
20
-93.0523060000000015
11
112.1972859999999912
21
-93.2454010000000011
0
LINE
8
BLACK
6
CONTINUOUS
10
112.1972859999999912
20
-93.2454010000000011
11
112.1104429999999894
21
-93.445500999999993
0
LINE
8
BLACK
6
CONTINUOUS
10
112.1104429999999894
20
-93.445500999999993
11
112.0366590000000002
21
-93.6524780000000021
0
LINE
8
BLACK
6
CONTINUOUS
10
112.0366590000000002
20
-93.6524780000000021
11
111.9765230000000003
21
-93.8662099999999953
0
LINE
8
BLACK
6
CONTINUOUS
10
111.9765230000000003
20
-93.8662099999999953
11
111.9306229999999971
21
-94.0865699999999947
0
LINE
8
BLACK
6
CONTINUOUS
10
111.9306229999999971
20
-94.0865699999999947
11
111.8995460000000008
21
-94.3134329999999892
0
LINE
8
BLACK
6
CONTINUOUS
10
111.8995460000000008
20
-94.3134329999999892
11
111.8838799999999907
21
-94.5466749999999934
0
LINE
8
BLACK
6
CONTINUOUS
10
111.8838799999999907
20
-94.5466749999999934
11
111.8842119999999909
21
-94.7861699999999985
0
LINE
8
BLACK
6
CONTINUOUS
10
111.8842119999999909
20
-94.7861699999999985
11
111.9011309999999924
21
-95.0317929999999933
0
LINE
8
BLACK
6
CONTINUOUS
10
111.9011309999999924
20
-95.0317929999999933
11
111.9011349999999965
21
-95.0317929999999933
0
LINE
8
BLACK
6
CONTINUOUS
10
111.9011349999999965
20
-95.0317929999999933
11
111.9061729999999955
21
-95.1057419999999922
0
LINE
8
BLACK
6
CONTINUOUS
10
111.9061729999999955
20
-95.1057419999999922
11
111.9061299999999903
21
-95.1788919999999905
0
LINE
8
BLACK
6
CONTINUOUS
10
111.9061299999999903
20
-95.1788919999999905
11
111.9011869999999931
21
-95.2511399999999924
0
LINE
8
BLACK
6
CONTINUOUS
10
111.9011869999999931
20
-95.2511399999999924
11
111.8915229999999923
21
-95.3223839999999996
0
LINE
8
BLACK
6
CONTINUOUS
10
111.8915229999999923
20
-95.3223839999999996
11
111.8773179999999883
21
-95.3925239999999945
0
LINE
8
BLACK
6
CONTINUOUS
10
111.8773179999999883
20
-95.3925239999999945
11
111.8587500000000006
21
-95.4614579999999933
0
LINE
8
BLACK
6
CONTINUOUS
10
111.8587500000000006
20
-95.4614579999999933
11
111.8359999999999985
21
-95.5290820000000025
0
LINE
8
BLACK
6
CONTINUOUS
10
111.8359999999999985
20
-95.5290820000000025
11
111.8092479999999966
21
-95.5952970000000022
0
LINE
8
BLACK
6
CONTINUOUS
10
111.8092479999999966
20
-95.5952970000000022
11
111.7786720000000003
21
-95.6599989999999991
0
LINE
8
BLACK
6
CONTINUOUS
10
111.7786720000000003
20
-95.6599989999999991
11
111.7444529999999929
21
-95.723085999999995
0
LINE
8
BLACK
6
CONTINUOUS
10
111.7444529999999929
20
-95.723085999999995
11
111.7067699999999917
21
-95.7844580000000008
0
LINE
8
BLACK
6
CONTINUOUS
10
111.7067699999999917
20
-95.7844580000000008
11
111.6658019999999993
21
-95.8440119999999922
0
LINE
8
BLACK
6
CONTINUOUS
10
111.6658019999999993
20
-95.8440119999999922
11
111.621729000000002
21
-95.901646999999997
0
LINE
8
BLACK
6
CONTINUOUS
10
111.621729000000002
20
-95.901646999999997
11
111.5747309999999999
21
-95.9572599999999909
0
LINE
8
BLACK
6
CONTINUOUS
10
111.5747309999999999
20
-95.9572599999999909
11
111.5249879999999933
21
-96.0107500000000016
0
LINE
8
BLACK
6
CONTINUOUS
10
111.5249879999999933
20
-96.0107500000000016
11
111.4726780000000019
21
-96.0620150000000024
0
LINE
8
BLACK
6
CONTINUOUS
10
111.4726780000000019
20
-96.0620150000000024
11
111.4179809999999975
21
-96.110952999999995
0
LINE
8
BLACK
6
CONTINUOUS
10
111.4179809999999975
20
-96.110952999999995
11
111.361077999999992
21
-96.1574619999999953
0
LINE
8
BLACK
6
CONTINUOUS
10
111.361077999999992
20
-96.1574619999999953
11
111.3021469999999908
21
-96.2014410000000026
0
LINE
8
BLACK
6
CONTINUOUS
10
111.3021469999999908
20
-96.2014410000000026
11
111.2413679999999943
21
-96.2427869999999928
0
LINE
8
BLACK
6
CONTINUOUS
10
111.2413679999999943
20
-96.2427869999999928
11
111.1789209999999883
21
-96.2813989999999933
0
LINE
8
BLACK
6
CONTINUOUS
10
111.1789209999999883
20
-96.2813989999999933
11
111.1149849999999901
21
-96.3171739999999943
0
LINE
8
BLACK
6
CONTINUOUS
10
111.1149849999999901
20
-96.3171739999999943
11
111.0497399999999999
21
-96.3500119999999924
0
LINE
8
BLACK
6
CONTINUOUS
10
111.0497399999999999
20
-96.3500119999999924
11
110.9833649999999921
21
-96.3798109999999895
0
LINE
8
BLACK
6
CONTINUOUS
10
110.9833649999999921
20
-96.3798109999999895
11
110.9160399999999953
21
-96.4064669999999921
0
LINE
8
BLACK
6
CONTINUOUS
10
110.9160399999999953
20
-96.4064669999999921
11
110.8479449999999957
21
-96.4298799999999972
0
LINE
8
BLACK
6
CONTINUOUS
10
110.8479449999999957
20
-96.4298799999999972
11
110.7792589999999961
21
-96.449947999999992
0
LINE
8
BLACK
6
CONTINUOUS
10
110.7792589999999961
20
-96.449947999999992
11
110.7101619999999969
21
-96.4665689999999927
0
LINE
8
BLACK
6
CONTINUOUS
10
110.7101619999999969
20
-96.4665689999999927
11
110.6408330000000007
21
-96.4796410000000009
0
LINE
8
BLACK
6
CONTINUOUS
10
110.6408330000000007
20
-96.4796410000000009
11
110.5714509999999962
21
-96.4890630000000016
0
LINE
8
BLACK
6
CONTINUOUS
10
110.5714509999999962
20
-96.4890630000000016
11
110.5021969999999953
21
-96.4947310000000016
0
LINE
8
BLACK
6
CONTINUOUS
10
110.5021969999999953
20
-96.4947310000000016
11
110.433250000000001
21
-96.496545999999995
0
LINE
8
BLACK
6
CONTINUOUS
10
110.433250000000001
20
-96.496545999999995
11
110.3545699999999954
21
-96.4945799999999991
0
LINE
8
BLACK
6
CONTINUOUS
10
110.3545699999999954
20
-96.4945799999999991
11
110.2777529999999899
21
-96.4887530000000027
0
LINE
8
BLACK
6
CONTINUOUS
10
110.2777529999999899
20
-96.4887530000000027
11
110.2028229999999951
21
-96.4791669999999897
0
LINE
8
BLACK
6
CONTINUOUS
10
110.2028229999999951
20
-96.4791669999999897
11
110.1298069999999996
21
-96.4659269999999935
0
LINE
8
BLACK
6
CONTINUOUS
10
110.1298069999999996
20
-96.4659269999999935
11
110.058731999999992
21
-96.4491349999999983
0
LINE
8
BLACK
6
CONTINUOUS
10
110.058731999999992
20
-96.4491349999999983
11
109.9896229999999946
21
-96.4288959999999946
0
LINE
8
BLACK
6
CONTINUOUS
10
109.9896229999999946
20
-96.4288959999999946
11
109.922506999999996
21
-96.4053129999999925
0
LINE
8
BLACK
6
CONTINUOUS
10
109.922506999999996
20
-96.4053129999999925
11
109.8574089999999899
21
-96.3784890000000019
0
LINE
8
BLACK
6
CONTINUOUS
10
109.8574089999999899
20
-96.3784890000000019
11
109.7943559999999934
21
-96.3485280000000017
0
LINE
8
BLACK
6
CONTINUOUS
10
109.7943559999999934
20
-96.3485280000000017
11
109.7333730000000003
21
-96.3155339999999995
0
LINE
8
BLACK
6
CONTINUOUS
10
109.7333730000000003
20
-96.3155339999999995
11
109.6744879999999966
21
-96.279609999999991
0
LINE
8
BLACK
6
CONTINUOUS
10
109.6744879999999966
20
-96.279609999999991
11
109.617724999999993
21
-96.2408590000000004
0
LINE
8
BLACK
6
CONTINUOUS
10
109.617724999999993
20
-96.2408590000000004
11
109.5631119999999896
21
-96.1993859999999898
0
LINE
8
BLACK
6
CONTINUOUS
10
109.5631119999999896
20
-96.1993859999999898
11
109.5106739999999945
21
-96.1552939999999978
0
LINE
8
BLACK
6
CONTINUOUS
10
109.5106739999999945
20
-96.1552939999999978
11
109.4604369999999989
21
-96.1086859999999916
0
LINE
8
BLACK
6
CONTINUOUS
10
109.4604369999999989
20
-96.1086859999999916
11
109.4124269999999939
21
-96.0596649999999954
0
LINE
8
BLACK
6
CONTINUOUS
10
109.4124269999999939
20
-96.0596649999999954
11
109.3666709999999966
21
-96.0083359999999999
0
LINE
8
BLACK
6
CONTINUOUS
10
109.3666709999999966
20
-96.0083359999999999
11
109.3231949999999983
21
-95.9548029999999983
0
LINE
8
BLACK
6
CONTINUOUS
10
109.3231949999999983
20
-95.9548029999999983
11
109.2820239999999927
21
-95.8991669999999914
0
LINE
8
BLACK
6
CONTINUOUS
10
109.2820239999999927
20
-95.8991669999999914
11
109.2431849999999969
21
-95.8415339999999958
0
LINE
8
BLACK
6
CONTINUOUS
10
109.2431849999999969
20
-95.8415339999999958
11
109.206704000000002
21
-95.782006999999993
0
LINE
8
BLACK
6
CONTINUOUS
10
109.206704000000002
20
-95.782006999999993
11
109.1726069999999993
21
-95.7206879999999956
0
LINE
8
BLACK
6
CONTINUOUS
10
109.1726069999999993
20
-95.7206879999999956
11
109.111668999999992
21
-95.5930939999999936
0
LINE
8
BLACK
6
CONTINUOUS
10
109.111668999999992
20
-95.5930939999999936
11
109.0605800000000016
21
-95.4595779999999934
0
LINE
8
BLACK
6
CONTINUOUS
10
109.0605800000000016
20
-95.4595779999999934
11
109.0195499999999953
21
-95.3209710000000001
0
LINE
8
BLACK
6
CONTINUOUS
10
109.0195499999999953
20
-95.3209710000000001
11
108.9887859999999904
21
-95.1781000000000006
0
LINE
8
BLACK
6
CONTINUOUS
10
108.9887859999999904
20
-95.1781000000000006
11
108.9684979999999968
21
-95.0317929999999933
0
LINE
8
BLACK
6
CONTINUOUS
10
108.9684979999999968
20
-95.0317929999999933
11
108.9421069999999929
21
-94.6477289999999982
0
LINE
8
BLACK
6
CONTINUOUS
10
108.9421069999999929
20
-94.6477289999999982
11
108.9413569999999964
21
-94.2706349999999986
0
LINE
8
BLACK
6
CONTINUOUS
10
108.9413569999999964
20
-94.2706349999999986
11
108.9653619999999989
21
-93.9008539999999954
0
LINE
8
BLACK
6
CONTINUOUS
10
108.9653619999999989
20
-93.9008539999999954
11
109.0132339999999971
21
-93.5387269999999944
0
LINE
8
BLACK
6
CONTINUOUS
10
109.0132339999999971
20
-93.5387269999999944
11
109.0840879999999942
21
-93.1845969999999966
0
LINE
8
BLACK
6
CONTINUOUS
10
109.0840879999999942
20
-93.1845969999999966
11
109.1770360000000011
21
-92.8388070000000027
0
LINE
8
BLACK
6
CONTINUOUS
10
109.1770360000000011
20
-92.8388070000000027
11
109.2911929999999927
21
-92.5016999999999996
0
LINE
8
BLACK
6
CONTINUOUS
10
109.2911929999999927
20
-92.5016999999999996
11
109.4256699999999967
21
-92.173616999999993
0
LINE
8
BLACK
6
CONTINUOUS
10
109.4256699999999967
20
-92.173616999999993
11
109.579582000000002
21
-91.8549019999999956
0
LINE
8
BLACK
6
CONTINUOUS
10
109.579582000000002
20
-91.8549019999999956
11
109.7520419999999888
21
-91.5458969999999965
0
LINE
8
BLACK
6
CONTINUOUS
10
109.7520419999999888
20
-91.5458969999999965
11
109.9421639999999911
21
-91.2469439999999992
0
LINE
8
BLACK
6
CONTINUOUS
10
109.9421639999999911
20
-91.2469439999999992
11
110.1490599999999915
21
-90.9583859999999902
0
LINE
8
BLACK
6
CONTINUOUS
10
110.1490599999999915
20
-90.9583859999999902
11
110.3718439999999958
21
-90.6805650000000014
0
LINE
8
BLACK
6
CONTINUOUS
10
110.3718439999999958
20
-90.6805650000000014
11
110.6096289999999982
21
-90.4138239999999911
0
LINE
8
BLACK
6
CONTINUOUS
10
110.6096289999999982
20
-90.4138239999999911
11
110.8615289999999902
21
-90.158504999999991
0
LINE
8
BLACK
6
CONTINUOUS
10
110.8615289999999902
20
-90.158504999999991
11
111.1266569999999945
21
-89.9149510000000021
0
LINE
8
BLACK
6
CONTINUOUS
10
111.1266569999999945
20
-89.9149510000000021
11
111.4041269999999884
21
-89.6835049999999967
0
LINE
8
BLACK
6
CONTINUOUS
10
111.4041269999999884
20
-89.6835049999999967
11
111.693050999999997
21
-89.464507999999995
0
LINE
8
BLACK
6
CONTINUOUS
10
111.693050999999997
20
-89.464507999999995
11
111.9925429999999977
21
-89.2583039999999954
0
LINE
8
BLACK
6
CONTINUOUS
10
111.9925429999999977
20
-89.2583039999999954
11
112.3017169999999965
21
-89.0652339999999896
0
LINE
8
BLACK
6
CONTINUOUS
10
112.3017169999999965
20
-89.0652339999999896
11
112.6196860000000015
21
-88.88564199999999
0
LINE
8
BLACK
6
CONTINUOUS
10
112.6196860000000015
20
-88.88564199999999
11
112.9455629999999928
21
-88.7198700000000002
0
LINE
8
BLACK
6
CONTINUOUS
10
112.9455629999999928
20
-88.7198700000000002
11
113.6174939999999935
21
-88.4311539999999923
0
LINE
8
BLACK
6
CONTINUOUS
10
113.6174939999999935
20
-88.4311539999999923
11
114.310418999999996
21
-88.2018279999999919
0
LINE
8
BLACK
6
CONTINUOUS
10
114.310418999999996
20
-88.2018279999999919
11
114.6625359999999887
21
-88.1102929999999986
0
LINE
8
BLACK
6
CONTINUOUS
10
114.6625359999999887
20
-88.1102929999999986
11
115.0172429999999935
21
-88.034632000000002
0
LINE
8
BLACK
6
CONTINUOUS
10
115.0172429999999935
20
-88.034632000000002
11
115.3736499999999978
21
-87.9751880000000028
0
LINE
8
BLACK
6
CONTINUOUS
10
115.3736499999999978
20
-87.9751880000000028
11
115.7308729999999883
21
-87.9323049999999995
0
LINE
8
BLACK
6
CONTINUOUS
10
115.7308729999999883
20
-87.9323049999999995
11
116.0880239999999901
21
-87.9063230000000004
0
LINE
8
BLACK
6
CONTINUOUS
10
116.0880239999999901
20
-87.9063230000000004
11
116.4442169999999948
21
-87.8975870000000015
0
LINE
8
BLACK
6
CONTINUOUS
10
116.4442169999999948
20
-87.8975870000000015
11
116.8016349999999903
21
-87.9058220000000006
0
LINE
8
BLACK
6
CONTINUOUS
10
119.4312219999999911
20
-80.7822180000000003
11
120.4994279999999947
21
-80.861936
0
LINE
8
BLACK
6
CONTINUOUS
10
120.4994279999999947
20
-80.861936
11
121.5622489999999942
21
-81.0076279999999969
0
LINE
8
BLACK
6
CONTINUOUS
10
121.5622489999999942
20
-81.0076279999999969
11
122.6159739999999942
21
-81.2191359999999918
0
LINE
8
BLACK
6
CONTINUOUS
10
122.6159739999999942
20
-81.2191359999999918
11
123.6568909999999875
21
-81.4962969999999984
0
LINE
8
BLACK
6
CONTINUOUS
10
123.6568909999999875
20
-81.4962969999999984
11
124.68128999999999
21
-81.8389519999999919
0
LINE
8
BLACK
6
CONTINUOUS
10
124.68128999999999
20
-81.8389519999999919
11
125.685459999999992
21
-82.2469389999999976
0
LINE
8
BLACK
6
CONTINUOUS
10
125.685459999999992
20
-82.2469389999999976
11
125.752096999999992
21
-82.2793149999999969
0
LINE
8
BLACK
6
CONTINUOUS
10
125.752096999999992
20
-82.2793149999999969
11
125.8154279999999972
21
-82.3157909999999902
0
LINE
8
BLACK
6
CONTINUOUS
10
125.8154279999999972
20
-82.3157909999999902
11
125.8754589999999922
21
-82.356150999999997
0
LINE
8
BLACK
6
CONTINUOUS
10
125.8754589999999922
20
-82.356150999999997
11
125.9321959999999905
21
-82.4001820000000009
0
LINE
8
BLACK
6
CONTINUOUS
10
125.9321959999999905
20
-82.4001820000000009
11
125.9856479999999976
21
-82.4476689999999905
0
LINE
8
BLACK
6
CONTINUOUS
10
125.9856479999999976
20
-82.4476689999999905
11
126.0358200000000011
21
-82.4983979999999946
0
LINE
8
BLACK
6
CONTINUOUS
10
126.0358200000000011
20
-82.4983979999999946
11
126.0827199999999948
21
-82.5521529999999899
0
LINE
8
BLACK
6
CONTINUOUS
10
126.0827199999999948
20
-82.5521529999999899
11
126.1263539999999921
21
-82.6087210000000027
0
LINE
8
BLACK
6
CONTINUOUS
10
126.1263539999999921
20
-82.6087210000000027
11
126.1667300000000012
21
-82.6678859999999958
0
LINE
8
BLACK
6
CONTINUOUS
10
126.1667300000000012
20
-82.6678859999999958
11
126.2038539999999927
21
-82.7294339999999977
0
LINE
8
BLACK
6
CONTINUOUS
10
126.2038539999999927
20
-82.7294339999999977
11
126.2377329999999915
21
-82.7931509999999946
0
LINE
8
BLACK
6
CONTINUOUS
10
126.2377329999999915
20
-82.7931509999999946
11
126.2683739999999943
21
-82.8588219999999893
0
LINE
8
BLACK
6
CONTINUOUS
10
126.2683739999999943
20
-82.8588219999999893
11
126.2957839999999976
21
-82.9262319999999988
0
LINE
8
BLACK
6
CONTINUOUS
10
126.2957839999999976
20
-82.9262319999999988
11
126.3199699999999979
21
-82.9951679999999925
0
LINE
8
BLACK
6
CONTINUOUS
10
126.3199699999999979
20
-82.9951679999999925
11
126.3409389999999917
21
-83.0654129999999924
0
LINE
8
BLACK
6
CONTINUOUS
10
126.3409389999999917
20
-83.0654129999999924
11
126.3586969999999923
21
-83.1367539999999963
0
LINE
8
BLACK
6
CONTINUOUS
10
126.3586969999999923
20
-83.1367539999999963
11
126.384609999999995
21
-83.2818659999999937
0
LINE
8
BLACK
6
CONTINUOUS
10
126.384609999999995
20
-83.2818659999999937
11
126.3977629999999976
21
-83.4287860000000023
0
LINE
8
BLACK
6
CONTINUOUS
10
126.3977629999999976
20
-83.4287860000000023
11
126.3982129999999984
21
-83.5757979999999918
0
LINE
8
BLACK
6
CONTINUOUS
10
126.3982129999999984
20
-83.5757979999999918
11
126.3860129999999913
21
-83.721186000000003
0
LINE
8
BLACK
6
CONTINUOUS
10
126.3860129999999913
20
-83.721186000000003
11
126.3612199999999888
21
-83.8632319999999964
0
LINE
8
BLACK
6
CONTINUOUS
10
126.3612199999999888
20
-83.8632319999999964
11
126.3441179999999946
21
-83.9324659999999909
0
LINE
8
BLACK
6
CONTINUOUS
10
126.3441179999999946
20
-83.9324659999999909
11
126.3238879999999966
21
-84.0002209999999963
0
LINE
8
BLACK
6
CONTINUOUS
10
126.3238879999999966
20
-84.0002209999999963
11
126.3005379999999889
21
-84.0662820000000011
0
LINE
8
BLACK
6
CONTINUOUS
10
126.3005379999999889
20
-84.0662820000000011
11
126.2740730000000013
21
-84.1304349999999914
0
LINE
8
BLACK
6
CONTINUOUS
10
126.2740730000000013
20
-84.1304349999999914
11
126.2445009999999996
21
-84.192465999999996
0
LINE
8
BLACK
6
CONTINUOUS
10
126.2445009999999996
20
-84.192465999999996
11
126.2118289999999945
21
-84.2521589999999918
0
LINE
8
BLACK
6
CONTINUOUS
10
126.2118289999999945
20
-84.2521589999999918
11
126.1702229999999929
21
-84.3193610000000007
0
LINE
8
BLACK
6
CONTINUOUS
10
126.1702229999999929
20
-84.3193610000000007
11
126.1262479999999897
21
-84.3829349999999891
0
LINE
8
BLACK
6
CONTINUOUS
10
126.1262479999999897
20
-84.3829349999999891
11
126.0800069999999948
21
-84.4429179999999917
0
LINE
8
BLACK
6
CONTINUOUS
10
126.0800069999999948
20
-84.4429179999999917
11
126.0315989999999999
21
-84.4993439999999936
0
LINE
8
BLACK
6
CONTINUOUS
10
126.0315989999999999
20
-84.4993439999999936
11
125.9811259999999891
21
-84.5522479999999916
0
LINE
8
BLACK
6
CONTINUOUS
10
125.9811259999999891
20
-84.5522479999999916
11
125.928687999999994
21
-84.601666999999992
0
LINE
8
BLACK
6
CONTINUOUS
10
125.928687999999994
20
-84.601666999999992
11
125.8743869999999987
21
-84.647634999999994
0
LINE
8
BLACK
6
CONTINUOUS
10
125.8743869999999987
20
-84.647634999999994
11
125.8183239999999898
21
-84.6901869999999946
0
LINE
8
BLACK
6
CONTINUOUS
10
125.8183239999999898
20
-84.6901869999999946
11
125.7605989999999991
21
-84.7293590000000023
0
LINE
8
BLACK
6
CONTINUOUS
10
125.7605989999999991
20
-84.7293590000000023
11
125.7013139999999964
21
-84.7651859999999999
0
LINE
8
BLACK
6
CONTINUOUS
10
125.7013139999999964
20
-84.7651859999999999
11
125.6405689999999993
21
-84.797703999999996
0
LINE
8
BLACK
6
CONTINUOUS
10
125.6405689999999993
20
-84.797703999999996
11
125.5784659999999917
21
-84.8269469999999899
0
LINE
8
BLACK
6
CONTINUOUS
10
125.5784659999999917
20
-84.8269469999999899
11
125.5151049999999913
21
-84.8529509999999902
0
LINE
8
BLACK
6
CONTINUOUS
10
125.5151049999999913
20
-84.8529509999999902
11
125.4505879999999962
21
-84.875750999999994
0
LINE
8
BLACK
6
CONTINUOUS
10
125.4505879999999962
20
-84.875750999999994
11
125.3850149999999957
21
-84.8953829999999954
0
LINE
8
BLACK
6
CONTINUOUS
10
125.3850149999999957
20
-84.8953829999999954
11
125.3184869999999904
21
-84.9118819999999914
0
LINE
8
BLACK
6
CONTINUOUS
10
125.3184869999999904
20
-84.9118819999999914
11
125.1829719999999924
21
-84.9356200000000001
0
LINE
8
BLACK
6
CONTINUOUS
10
125.1829719999999924
20
-84.9356200000000001
11
125.0448499999999967
21
-84.9472489999999993
0
LINE
8
BLACK
6
CONTINUOUS
10
125.0448499999999967
20
-84.9472489999999993
11
124.9049279999999982
21
-84.9470510000000019
0
LINE
8
BLACK
6
CONTINUOUS
10
124.9049279999999982
20
-84.9470510000000019
11
124.764015999999998
21
-84.9353069999999946
0
LINE
8
BLACK
6
CONTINUOUS
10
124.764015999999998
20
-84.9353069999999946
11
124.6229199999999935
21
-84.9123000000000019
0
LINE
8
BLACK
6
CONTINUOUS
10
124.6229199999999935
20
-84.9123000000000019
11
124.4824479999999909
21
-84.8783129999999915
0
LINE
8
BLACK
6
CONTINUOUS
10
124.4824479999999909
20
-84.8783129999999915
11
124.3434079999999966
21
-84.8336279999999903
0
LINE
8
BLACK
6
CONTINUOUS
10
124.3434079999999966
20
-84.8336279999999903
11
124.2066090000000003
21
-84.7785259999999994
0
LINE
8
BLACK
6
CONTINUOUS
10
124.2066090000000003
20
-84.7785259999999994
11
123.3796940000000006
21
-84.4459229999999934
0
LINE
8
BLACK
6
CONTINUOUS
10
123.3796940000000006
20
-84.4459229999999934
11
122.5359959999999973
21
-84.1730999999999909
0
LINE
8
BLACK
6
CONTINUOUS
10
122.5359959999999973
20
-84.1730999999999909
11
121.6787099999999953
21
-83.9592529999999897
0
LINE
8
BLACK
6
CONTINUOUS
10
121.6787099999999953
20
-83.9592529999999897
11
120.8110250000000008
21
-83.8035780000000017
0
LINE
8
BLACK
6
CONTINUOUS
10
120.8110250000000008
20
-83.8035780000000017
11
119.9361349999999931
21
-83.7052740000000028
0
LINE
8
BLACK
6
CONTINUOUS
10
119.9361349999999931
20
-83.7052740000000028
11
119.0572310000000016
21
-83.663534999999996
0
LINE
8
BLACK
6
CONTINUOUS
10
119.0572310000000016
20
-83.663534999999996
11
118.1775049999999965
21
-83.6775609999999972
0
LINE
8
BLACK
6
CONTINUOUS
10
118.1775049999999965
20
-83.6775609999999972
11
117.3001499999999879
21
-83.746545999999995
0
LINE
8
BLACK
6
CONTINUOUS
10
117.3001499999999879
20
-83.746545999999995
11
116.4283569999999912
21
-83.8696889999999939
0
LINE
8
BLACK
6
CONTINUOUS
10
116.4283569999999912
20
-83.8696889999999939
11
115.5653189999999881
21
-84.0461849999999941
0
LINE
8
BLACK
6
CONTINUOUS
10
115.5653189999999881
20
-84.0461849999999941
11
114.7142279999999914
21
-84.2752320000000026
0
LINE
8
BLACK
6
CONTINUOUS
10
114.7142279999999914
20
-84.2752320000000026
11
113.8782759999999996
21
-84.5560270000000003
0
LINE
8
BLACK
6
CONTINUOUS
10
113.8782759999999996
20
-84.5560270000000003
11
113.0606539999999995
21
-84.8877659999999992
0
LINE
8
BLACK
6
CONTINUOUS
10
113.0606539999999995
20
-84.8877659999999992
11
112.2645559999999989
21
-85.2696459999999945
0
LINE
8
BLACK
6
CONTINUOUS
10
112.2645559999999989
20
-85.2696459999999945
11
111.4931720000000013
21
-85.7008649999999932
0
LINE
8
BLACK
6
CONTINUOUS
10
111.4931720000000013
20
-85.7008649999999932
11
110.7496960000000001
21
-86.1806179999999955
0
LINE
8
BLACK
6
CONTINUOUS
10
110.7496960000000001
20
-86.1806179999999955
11
110.687539000000001
21
-86.2207729999999941
0
LINE
8
BLACK
6
CONTINUOUS
10
110.687539000000001
20
-86.2207729999999941
11
110.6236689999999925
21
-86.2564069999999958
0
LINE
8
BLACK
6
CONTINUOUS
10
110.6236689999999925
20
-86.2564069999999958
11
110.5582529999999934
21
-86.2876069999999942
0
LINE
8
BLACK
6
CONTINUOUS
10
110.5582529999999934
20
-86.2876069999999942
11
110.4914579999999944
21
-86.3144599999999969
0
LINE
8
BLACK
6
CONTINUOUS
10
110.4914579999999944
20
-86.3144599999999969
11
110.423452999999995
21
-86.3370519999999999
0
LINE
8
BLACK
6
CONTINUOUS
10
110.423452999999995
20
-86.3370519999999999
11
110.3544049999999999
21
-86.3554709999999943
0
LINE
8
BLACK
6
CONTINUOUS
10
110.3544049999999999
20
-86.3554709999999943
11
110.2844829999999945
21
-86.369804000000002
0
LINE
8
BLACK
6
CONTINUOUS
10
110.2844829999999945
20
-86.369804000000002
11
110.2138530000000003
21
-86.3801369999999906
0
LINE
8
BLACK
6
CONTINUOUS
10
110.2138530000000003
20
-86.3801369999999906
11
110.1426839999999885
21
-86.3865569999999963
0
LINE
8
BLACK
6
CONTINUOUS
10
110.1426839999999885
20
-86.3865569999999963
11
110.0711429999999922
21
-86.3891519999999957
0
LINE
8
BLACK
6
CONTINUOUS
10
110.0711429999999922
20
-86.3891519999999957
11
109.9993989999999968
21
-86.3880079999999992
0
LINE
8
BLACK
6
CONTINUOUS
10
109.9993989999999968
20
-86.3880079999999992
11
109.9276189999999929
21
-86.3832120000000003
0
LINE
8
BLACK
6
CONTINUOUS
10
109.9276189999999929
20
-86.3832120000000003
11
109.8559709999999967
21
-86.3748509999999925
0
LINE
8
BLACK
6
CONTINUOUS
10
109.8559709999999967
20
-86.3748509999999925
11
109.7846219999999988
21
-86.3630119999999977
0
LINE
8
BLACK
6
CONTINUOUS
10
109.7846219999999988
20
-86.3630119999999977
11
109.7137409999999988
21
-86.3477819999999952
0
LINE
8
BLACK
6
CONTINUOUS
10
109.7137409999999988
20
-86.3477819999999952
11
109.643495999999999
21
-86.3292479999999927
0
LINE
8
BLACK
6
CONTINUOUS
10
109.643495999999999
20
-86.3292479999999927
11
109.5740529999999922
21
-86.3074960000000004
0
LINE
8
BLACK
6
CONTINUOUS
10
109.5740529999999922
20
-86.3074960000000004
11
109.5055819999999898
21
-86.2826139999999953
0
LINE
8
BLACK
6
CONTINUOUS
10
109.5055819999999898
20
-86.2826139999999953
11
109.438248999999999
21
-86.2546889999999991
0
LINE
8
BLACK
6
CONTINUOUS
10
109.438248999999999
20
-86.2546889999999991
11
109.3722229999999911
21
-86.2238069999999936
0
LINE
8
BLACK
6
CONTINUOUS
10
109.3722229999999911
20
-86.2238069999999936
11
109.3076719999999966
21
-86.190055000000001
0
LINE
8
BLACK
6
CONTINUOUS
10
109.3076719999999966
20
-86.190055000000001
11
109.2447619999999944
21
-86.1535209999999978
0
LINE
8
BLACK
6
CONTINUOUS
10
109.2447619999999944
20
-86.1535209999999978
11
109.1836629999999957
21
-86.1142909999999944
0
LINE
8
BLACK
6
CONTINUOUS
10
109.1836629999999957
20
-86.1142909999999944
11
109.1245409999999936
21
-86.0724519999999984
0
LINE
8
BLACK
6
CONTINUOUS
10
109.1245409999999936
20
-86.0724519999999984
11
109.0675650000000019
21
-86.0280909999999892
0
LINE
8
BLACK
6
CONTINUOUS
10
109.0675650000000019
20
-86.0280909999999892
11
109.0129029999999943
21
-85.9812939999999912
0
LINE
8
BLACK
6
CONTINUOUS
10
109.0129029999999943
20
-85.9812939999999912
11
108.9607209999999924
21
-85.9321499999999929
0
LINE
8
BLACK
6
CONTINUOUS
10
108.9607209999999924
20
-85.9321499999999929
11
108.9111889999999931
21
-85.8807449999999903
0
LINE
8
BLACK
6
CONTINUOUS
10
108.9111889999999931
20
-85.8807449999999903
11
108.8644740000000013
21
-85.8271649999999937
0
LINE
8
BLACK
6
CONTINUOUS
10
108.8644740000000013
20
-85.8271649999999937
11
108.8207429999999931
21
-85.771497999999994
0
LINE
8
BLACK
6
CONTINUOUS
10
108.8207429999999931
20
-85.771497999999994
11
108.7801639999999992
21
-85.7138300000000015
0
LINE
8
BLACK
6
CONTINUOUS
10
108.7801639999999992
20
-85.7138300000000015
11
108.7429059999999907
21
-85.654248999999993
0
LINE
8
BLACK
6
CONTINUOUS
10
108.7429059999999907
20
-85.654248999999993
11
108.7056319999999943
21
-85.5863709999999998
0
LINE
8
BLACK
6
CONTINUOUS
10
108.7056319999999943
20
-85.5863709999999998
11
108.6724869999999896
21
-85.5179139999999904
0
LINE
8
BLACK
6
CONTINUOUS
10
108.6724869999999896
20
-85.5179139999999904
11
108.6434029999999922
21
-85.4489700000000028
0
LINE
8
BLACK
6
CONTINUOUS
10
108.6434029999999922
20
-85.4489700000000028
11
108.618315999999993
21
-85.3796299999999917
0
LINE
8
BLACK
6
CONTINUOUS
10
108.618315999999993
20
-85.3796299999999917
11
108.5971589999999907
21
-85.309985999999995
0
LINE
8
BLACK
6
CONTINUOUS
10
108.5971589999999907
20
-85.309985999999995
11
108.5798649999999981
21
-85.2401299999999935
0
LINE
8
BLACK
6
CONTINUOUS
10
108.5798649999999981
20
-85.2401299999999935
11
108.5663689999999946
21
-85.1701529999999991
0
LINE
8
BLACK
6
CONTINUOUS
10
108.5663689999999946
20
-85.1701529999999991
11
108.556603999999993
21
-85.1001459999999952
0
LINE
8
BLACK
6
CONTINUOUS
10
108.556603999999993
20
-85.1001459999999952
11
108.5505039999999894
21
-85.030200999999991
0
LINE
8
BLACK
6
CONTINUOUS
10
108.5505039999999894
20
-85.030200999999991
11
108.5480019999999968
21
-84.960409999999996
0
LINE
8
BLACK
6
CONTINUOUS
10
108.5480019999999968
20
-84.960409999999996
11
108.5490319999999969
21
-84.890862999999996
0
LINE
8
BLACK
6
CONTINUOUS
10
108.5490319999999969
20
-84.890862999999996
11
108.5535289999999975
21
-84.8216529999999977
0
LINE
8
BLACK
6
CONTINUOUS
10
108.5535289999999975
20
-84.8216529999999977
11
108.5614249999999998
21
-84.752870999999999
0
LINE
8
BLACK
6
CONTINUOUS
10
108.5614249999999998
20
-84.752870999999999
11
108.5726549999999975
21
-84.6846089999999947
0
LINE
8
BLACK
6
CONTINUOUS
10
108.5726549999999975
20
-84.6846089999999947
11
108.5871509999999915
21
-84.6169569999999993
0
LINE
8
BLACK
6
CONTINUOUS
10
108.5871509999999915
20
-84.6169569999999993
11
108.6048490000000015
21
-84.5500079999999912
0
LINE
8
BLACK
6
CONTINUOUS
10
108.6048490000000015
20
-84.5500079999999912
11
108.6256819999999976
21
-84.4838529999999963
0
LINE
8
BLACK
6
CONTINUOUS
10
108.6256819999999976
20
-84.4838529999999963
11
108.6495829999999927
21
-84.4185839999999956
0
LINE
8
BLACK
6
CONTINUOUS
10
108.6495829999999927
20
-84.4185839999999956
11
108.676485999999997
21
-84.3542909999999893
0
LINE
8
BLACK
6
CONTINUOUS
10
108.676485999999997
20
-84.3542909999999893
11
108.7063249999999925
21
-84.2910669999999982
0
LINE
8
BLACK
6
CONTINUOUS
10
108.7063249999999925
20
-84.2910669999999982
11
108.7390339999999895
21
-84.2290029999999916
0
LINE
8
BLACK
6
CONTINUOUS
10
108.7390339999999895
20
-84.2290029999999916
11
108.7745460000000008
21
-84.1681899999999956
0
LINE
8
BLACK
6
CONTINUOUS
10
108.7745460000000008
20
-84.1681899999999956
11
108.8127949999999942
21
-84.1087210000000027
0
LINE
8
BLACK
6
CONTINUOUS
10
108.8127949999999942
20
-84.1087210000000027
11
108.853714999999994
21
-84.0506859999999989
0
LINE
8
BLACK
6
CONTINUOUS
10
108.853714999999994
20
-84.0506859999999989
11
108.8972399999999965
21
-83.9941769999999934
0
LINE
8
BLACK
6
CONTINUOUS
10
108.8972399999999965
20
-83.9941769999999934
11
108.9433030000000002
21
-83.9392859999999956
0
LINE
8
BLACK
6
CONTINUOUS
10
108.9433030000000002
20
-83.9392859999999956
11
108.9918380000000013
21
-83.8861029999999914
0
LINE
8
BLACK
6
CONTINUOUS
10
108.9918380000000013
20
-83.8861029999999914
11
109.0427789999999959
21
-83.8347210000000018
0
LINE
8
BLACK
6
CONTINUOUS
10
109.0427789999999959
20
-83.8347210000000018
11
109.0960589999999968
21
-83.7852319999999935
0
LINE
8
BLACK
6
CONTINUOUS
10
109.0960589999999968
20
-83.7852319999999935
11
109.1516129999999976
21
-83.7377249999999975
0
LINE
8
BLACK
6
CONTINUOUS
10
109.1516129999999976
20
-83.7377249999999975
11
109.2093739999999968
21
-83.6922939999999898
0
LINE
8
BLACK
6
CONTINUOUS
10
109.2093739999999968
20
-83.6922939999999898
11
109.2692749999999933
21
-83.6490299999999962
0
LINE
8
BLACK
6
CONTINUOUS
10
109.2692749999999933
20
-83.6490299999999962
11
110.1872539999999958
21
-83.0601580000000013
0
LINE
8
BLACK
6
CONTINUOUS
10
110.1872539999999958
20
-83.0601580000000013
11
111.1369539999999887
21
-82.5388689999999912
0
LINE
8
BLACK
6
CONTINUOUS
10
111.1369539999999887
20
-82.5388689999999912
11
112.1146639999999906
21
-82.0849999999999937
0
LINE
8
BLACK
6
CONTINUOUS
10
112.1146639999999906
20
-82.0849999999999937
11
113.1166729999999916
21
-81.6983919999999983
0
LINE
8
BLACK
6
CONTINUOUS
10
113.1166729999999916
20
-81.6983919999999983
11
114.1392709999999937
21
-81.3788839999999993
0
LINE
8
BLACK
6
CONTINUOUS
10
114.1392709999999937
20
-81.3788839999999993
11
115.1787479999999988
21
-81.1263149999999911
0
LINE
8
BLACK
6
CONTINUOUS
10
115.1787479999999988
20
-81.1263149999999911
11
116.2313919999999996
21
-80.9405249999999938
0
LINE
8
BLACK
6
CONTINUOUS
10
116.2313919999999996
20
-80.9405249999999938
11
117.293492999999998
21
-80.8213519999999903
0
LINE
8
BLACK
6
CONTINUOUS
10
117.293492999999998
20
-80.8213519999999903
11
118.361339000000001
21
-80.7686369999999982
0
LINE
8
BLACK
6
CONTINUOUS
10
118.361339000000001
20
-80.7686369999999982
11
119.4312219999999911
21
-80.7822180000000003
0
LINE
8
BLACK
6
CONTINUOUS
10
139.2461409999999944
20
-80.378703999999999
11
139.7213279999999997
21
-80.4081800000000015
0
LINE
8
BLACK
6
CONTINUOUS
10
139.7213279999999997
20
-80.4081800000000015
11
140.1966830000000073
21
-80.4579090000000008
0
LINE
8
BLACK
6
CONTINUOUS
10
140.1966830000000073
20
-80.4579090000000008
11
140.6946629999999914
21
-80.5276750000000021
0
LINE
8
BLACK
6
CONTINUOUS
10
140.6946629999999914
20
-80.5276750000000021
11
141.191125999999997
21
-80.6104660000000024
0
LINE
8
BLACK
6
CONTINUOUS
10
141.191125999999997
20
-80.6104660000000024
11
141.6861350000000073
21
-80.7050979999999925
0
LINE
8
BLACK
6
CONTINUOUS
10
141.6861350000000073
20
-80.7050979999999925
11
142.1797509999999818
21
-80.8103869999999915
0
LINE
8
BLACK
6
CONTINUOUS
10
142.1797509999999818
20
-80.8103869999999915
11
143.1630509999999958
21
-81.0481999999999942
0
LINE
8
BLACK
6
CONTINUOUS
10
143.1630509999999958
20
-81.0481999999999942
11
144.141524000000004
21
-81.314432999999994
0
LINE
8
BLACK
6
CONTINUOUS
10
144.141524000000004
20
-81.314432999999994
11
148.017044999999996
21
-82.4740929999999963
0
LINE
8
BLACK
6
CONTINUOUS
10
148.017044999999996
20
-82.4740929999999963
11
148.1794349999999838
21
-82.5295830000000024
0
LINE
8
BLACK
6
CONTINUOUS
10
148.1794349999999838
20
-82.5295830000000024
11
148.3269449999999949
21
-82.5975490000000008
0
LINE
8
BLACK
6
CONTINUOUS
10
148.3269449999999949
20
-82.5975490000000008
11
148.4598569999999995
21
-82.6769549999999924
0
LINE
8
BLACK
6
CONTINUOUS
10
148.4598569999999995
20
-82.6769549999999924
11
148.5784559999999885
21
-82.7667659999999898
0
LINE
8
BLACK
6
CONTINUOUS
10
148.5784559999999885
20
-82.7667659999999898
11
148.6830249999999864
21
-82.8659449999999964
0
LINE
8
BLACK
6
CONTINUOUS
10
148.6830249999999864
20
-82.8659449999999964
11
148.7738459999999918
21
-82.9734559999999988
0
LINE
8
BLACK
6
CONTINUOUS
10
148.7738459999999918
20
-82.9734559999999988
11
148.8512039999999956
21
-83.0882649999999927
0
LINE
8
BLACK
6
CONTINUOUS
10
148.8512039999999956
20
-83.0882649999999927
11
148.9153819999999939
21
-83.2093339999999984
0
LINE
8
BLACK
6
CONTINUOUS
10
148.9153819999999939
20
-83.2093339999999984
11
148.9666629999999827
21
-83.3356289999999973
0
LINE
8
BLACK
6
CONTINUOUS
10
148.9666629999999827
20
-83.3356289999999973
11
149.005330999999984
21
-83.4661129999999929
0
LINE
8
BLACK
6
CONTINUOUS
10
149.005330999999984
20
-83.4661129999999929
11
149.0316689999999937
21
-83.5997509999999977
0
LINE
8
BLACK
6
CONTINUOUS
10
149.0316689999999937
20
-83.5997509999999977
11
149.0459599999999796
21
-83.7355060000000009
0
LINE
8
BLACK
6
CONTINUOUS
10
149.0459599999999796
20
-83.7355060000000009
11
149.0484879999999919
21
-83.8723439999999982
0
LINE
8
BLACK
6
CONTINUOUS
10
149.0484879999999919
20
-83.8723439999999982
11
149.0395359999999982
21
-84.0092269999999957
0
LINE
8
BLACK
6
CONTINUOUS
10
149.0395359999999982
20
-84.0092269999999957
11
149.0193889999999897
21
-84.1451210000000032
0
LINE
8
BLACK
6
CONTINUOUS
10
149.0193889999999897
20
-84.1451210000000032
11
148.9883279999999957
21
-84.2789899999999932
0
LINE
8
BLACK
6
CONTINUOUS
10
148.9883279999999957
20
-84.2789899999999932
11
148.9466369999999813
21
-84.4097969999999975
0
LINE
8
BLACK
6
CONTINUOUS
10
148.9466369999999813
20
-84.4097969999999975
11
148.8946009999999944
21
-84.5365070000000003
0
LINE
8
BLACK
6
CONTINUOUS
10
148.8946009999999944
20
-84.5365070000000003
11
148.8325020000000052
21
-84.6580849999999998
0
LINE
8
BLACK
6
CONTINUOUS
10
148.8325020000000052
20
-84.6580849999999998
11
148.7606240000000071
21
-84.7734939999999995
0
LINE
8
BLACK
6
CONTINUOUS
10
148.7606240000000071
20
-84.7734939999999995
11
148.6792489999999987
21
-84.8816980000000001
0
LINE
8
BLACK
6
CONTINUOUS
10
148.6792489999999987
20
-84.8816980000000001
11
148.5886619999999994
21
-84.981662
0
LINE
8
BLACK
6
CONTINUOUS
10
148.5886619999999994
20
-84.981662
11
148.4891470000000027
21
-85.0723490000000027
0
LINE
8
BLACK
6
CONTINUOUS
10
148.4891470000000027
20
-85.0723490000000027
11
148.3809849999999813
21
-85.1527249999999896
0
LINE
8
BLACK
6
CONTINUOUS
10
148.3809849999999813
20
-85.1527249999999896
11
148.264460999999983
21
-85.2217529999999925
0
LINE
8
BLACK
6
CONTINUOUS
10
148.264460999999983
20
-85.2217529999999925
11
148.1398590000000013
21
-85.2783979999999957
0
LINE
8
BLACK
6
CONTINUOUS
10
148.1398590000000013
20
-85.2783979999999957
11
148.0074610000000064
21
-85.3216230000000024
0
LINE
8
BLACK
6
CONTINUOUS
10
148.0074610000000064
20
-85.3216230000000024
11
147.8675499999999943
21
-85.3503929999999968
0
LINE
8
BLACK
6
CONTINUOUS
10
147.8675499999999943
20
-85.3503929999999968
11
147.7204119999999818
21
-85.363671999999994
0
LINE
8
BLACK
6
CONTINUOUS
10
147.7204119999999818
20
-85.363671999999994
11
147.5663279999999986
21
-85.3604239999999947
0
LINE
8
BLACK
6
CONTINUOUS
10
147.5663279999999986
20
-85.3604239999999947
11
147.4055819999999812
21
-85.3396139999999974
0
LINE
8
BLACK
6
CONTINUOUS
10
147.4055819999999812
20
-85.3396139999999974
11
147.2384569999999826
21
-85.3002049999999912
0
LINE
8
BLACK
6
CONTINUOUS
10
147.2384569999999826
20
-85.3002049999999912
11
143.836433999999997
21
-84.2782089999999897
0
LINE
8
BLACK
6
CONTINUOUS
10
143.836433999999997
20
-84.2782089999999897
11
142.9800999999999931
21
-84.0343209999999914
0
LINE
8
BLACK
6
CONTINUOUS
10
142.9800999999999931
20
-84.0343209999999914
11
142.1206619999999816
21
-83.8076729999999941
0
LINE
8
BLACK
6
CONTINUOUS
10
142.1206619999999816
20
-83.8076729999999941
11
141.2577359999999942
21
-83.6045589999999947
0
LINE
8
BLACK
6
CONTINUOUS
10
141.2577359999999942
20
-83.6045589999999947
11
140.3909349999999847
21
-83.4312779999999918
0
LINE
8
BLACK
6
CONTINUOUS
10
140.3909349999999847
20
-83.4312779999999918
11
139.9996930000000077
21
-83.3699960000000004
0
LINE
8
BLACK
6
CONTINUOUS
10
139.9996930000000077
20
-83.3699960000000004
11
139.6087399999999832
21
-83.3264729999999929
0
LINE
8
BLACK
6
CONTINUOUS
10
139.6087399999999832
20
-83.3264729999999929
11
139.2184759999999812
21
-83.3005890000000022
0
LINE
8
BLACK
6
CONTINUOUS
10
139.2184759999999812
20
-83.3005890000000022
11
138.8292999999999893
21
-83.2922200000000004
0
LINE
8
BLACK
6
CONTINUOUS
10
138.8292999999999893
20
-83.2922200000000004
11
138.4416109999999946
21
-83.3012459999999919
0
LINE
8
BLACK
6
CONTINUOUS
10
138.4416109999999946
20
-83.3012459999999919
11
138.0558079999999848
21
-83.3275440000000032
0
LINE
8
BLACK
6
CONTINUOUS
10
138.0558079999999848
20
-83.3275440000000032
11
137.6722910000000013
21
-83.370993999999996
0
LINE
8
BLACK
6
CONTINUOUS
10
137.6722910000000013
20
-83.370993999999996
11
137.2914590000000032
21
-83.4314739999999944
0
LINE
8
BLACK
6
CONTINUOUS
10
137.2914590000000032
20
-83.4314739999999944
11
136.9137120000000039
21
-83.508860999999996
0
LINE
8
BLACK
6
CONTINUOUS
10
136.9137120000000039
20
-83.508860999999996
11
136.5394469999999956
21
-83.6030349999999913
0
LINE
8
BLACK
6
CONTINUOUS
10
136.5394469999999956
20
-83.6030349999999913
11
136.1690659999999866
21
-83.7138739999999899
0
LINE
8
BLACK
6
CONTINUOUS
10
136.1690659999999866
20
-83.7138739999999899
11
135.8029659999999978
21
-83.8412560000000013
0
LINE
8
BLACK
6
CONTINUOUS
10
135.8029659999999978
20
-83.8412560000000013
11
135.4415479999999832
21
-83.9850589999999926
0
LINE
8
BLACK
6
CONTINUOUS
10
135.4415479999999832
20
-83.9850589999999926
11
135.0852109999999868
21
-84.1451619999999991
0
LINE
8
BLACK
6
CONTINUOUS
10
135.0852109999999868
20
-84.1451619999999991
11
134.7343529999999987
21
-84.3214439999999996
0
LINE
8
BLACK
6
CONTINUOUS
10
134.7343529999999987
20
-84.3214439999999996
11
134.3893750000000011
21
-84.513781999999992
0
LINE
8
BLACK
6
CONTINUOUS
10
134.3893750000000011
20
-84.513781999999992
11
134.236896999999999
21
-84.593441999999996
0
LINE
8
BLACK
6
CONTINUOUS
10
134.236896999999999
20
-84.593441999999996
11
134.0858939999999961
21
-84.6535709999999995
0
LINE
8
BLACK
6
CONTINUOUS
10
134.0858939999999961
20
-84.6535709999999995
11
133.9369030000000009
21
-84.6950959999999924
0
LINE
8
BLACK
6
CONTINUOUS
10
133.9369030000000009
20
-84.6950959999999924
11
133.7904629999999884
21
-84.7189479999999975
0
LINE
8
BLACK
6
CONTINUOUS
10
133.7904629999999884
20
-84.7189479999999975
11
133.6471119999999928
21
-84.7260550000000023
0
LINE
8
BLACK
6
CONTINUOUS
10
133.6471119999999928
20
-84.7260550000000023
11
133.5073869999999943
21
-84.7173449999999946
0
LINE
8
BLACK
6
CONTINUOUS
10
133.5073869999999943
20
-84.7173449999999946
11
133.3718279999999936
21
-84.6937479999999994
0
LINE
8
BLACK
6
CONTINUOUS
10
133.3718279999999936
20
-84.6937479999999994
11
133.2409719999999993
21
-84.6561919999999901
0
LINE
8
BLACK
6
CONTINUOUS
10
133.2409719999999993
20
-84.6561919999999901
11
133.1153579999999863
21
-84.605606999999992
0
LINE
8
BLACK
6
CONTINUOUS
10
133.1153579999999863
20
-84.605606999999992
11
132.9955229999999915
21
-84.5429199999999952
0
LINE
8
BLACK
6
CONTINUOUS
10
132.9955229999999915
20
-84.5429199999999952
11
132.8820049999999924
21
-84.4690609999999964
0
LINE
8
BLACK
6
CONTINUOUS
10
132.8820049999999924
20
-84.4690609999999964
11
132.7753429999999923
21
-84.3849589999999949
0
LINE
8
BLACK
6
CONTINUOUS
10
132.7753429999999923
20
-84.3849589999999949
11
132.6760749999999973
21
-84.2915429999999901
0
LINE
8
BLACK
6
CONTINUOUS
10
132.6760749999999973
20
-84.2915429999999901
11
132.5847399999999823
21
-84.1897400000000005
0
LINE
8
BLACK
6
CONTINUOUS
10
132.5847399999999823
20
-84.1897400000000005
11
132.5018739999999866
21
-84.0804809999999918
0
LINE
8
BLACK
6
CONTINUOUS
10
132.5018739999999866
20
-84.0804809999999918
11
132.4280159999999853
21
-83.9646929999999969
0
LINE
8
BLACK
6
CONTINUOUS
10
132.4280159999999853
20
-83.9646929999999969
11
132.3637049999999817
21
-83.8433069999999958
0
LINE
8
BLACK
6
CONTINUOUS
10
132.3637049999999817
20
-83.8433069999999958
11
132.3094779999999844
21
-83.7172489999999954
0
LINE
8
BLACK
6
CONTINUOUS
10
132.3094779999999844
20
-83.7172489999999954
11
132.2658739999999966
21
-83.5874510000000015
0
LINE
8
BLACK
6
CONTINUOUS
10
132.2658739999999966
20
-83.5874510000000015
11
132.2334299999999985
21
-83.4548389999999927
0
LINE
8
BLACK
6
CONTINUOUS
10
132.2334299999999985
20
-83.4548389999999927
11
132.2126849999999934
21
-83.320342999999994
0
LINE
8
BLACK
6
CONTINUOUS
10
132.2126849999999934
20
-83.320342999999994
11
132.2041779999999846
21
-83.1848919999999907
0
LINE
8
BLACK
6
CONTINUOUS
10
132.2041779999999846
20
-83.1848919999999907
11
132.2084449999999833
21
-83.0494149999999962
0
LINE
8
BLACK
6
CONTINUOUS
10
132.2084449999999833
20
-83.0494149999999962
11
132.2260259999999903
21
-82.9148399999999981
0
LINE
8
BLACK
6
CONTINUOUS
10
132.2260259999999903
20
-82.9148399999999981
11
132.2574579999999855
21
-82.7820959999999957
0
LINE
8
BLACK
6
CONTINUOUS
10
132.2574579999999855
20
-82.7820959999999957
11
132.3032800000000009
21
-82.6521129999999999
0
LINE
8
BLACK
6
CONTINUOUS
10
132.3032800000000009
20
-82.6521129999999999
11
132.3640289999999879
21
-82.525818000000001
0
LINE
8
BLACK
6
CONTINUOUS
10
132.3640289999999879
20
-82.525818000000001
11
132.440244000000007
21
-82.4041409999999956
0
LINE
8
BLACK
6
CONTINUOUS
10
132.440244000000007
20
-82.4041409999999956
11
132.5324619999999811
21
-82.2880099999999999
0
LINE
8
BLACK
6
CONTINUOUS
10
132.5324619999999811
20
-82.2880099999999999
11
132.6412229999999965
21
-82.1783549999999963
0
LINE
8
BLACK
6
CONTINUOUS
10
132.6412229999999965
20
-82.1783549999999963
11
132.7670640000000049
21
-82.0761040000000008
0
LINE
8
BLACK
6
CONTINUOUS
10
132.7670640000000049
20
-82.0761040000000008
11
132.9105229999999835
21
-81.9821859999999987
0
LINE
8
BLACK
6
CONTINUOUS
10
132.9105229999999835
20
-81.9821859999999987
11
133.3272240000000011
21
-81.7488290000000006
0
LINE
8
BLACK
6
CONTINUOUS
10
133.3272240000000011
20
-81.7488290000000006
11
133.751577999999995
21
-81.5329629999999952
0
LINE
8
BLACK
6
CONTINUOUS
10
133.751577999999995
20
-81.5329629999999952
11
134.1830510000000061
21
-81.334785999999994
0
LINE
8
BLACK
6
CONTINUOUS
10
134.1830510000000061
20
-81.334785999999994
11
134.621106999999995
21
-81.1544939999999997
0
LINE
8
BLACK
6
CONTINUOUS
10
134.621106999999995
20
-81.1544939999999997
11
135.0652120000000025
21
-80.9922849999999954
0
LINE
8
BLACK
6
CONTINUOUS
10
135.0652120000000025
20
-80.9922849999999954
11
135.5148309999999867
21
-80.8483559999999954
0
LINE
8
BLACK
6
CONTINUOUS
10
135.5148309999999867
20
-80.8483559999999954
11
135.9694309999999859
21
-80.7229059999999947
0
LINE
8
BLACK
6
CONTINUOUS
10
135.9694309999999859
20
-80.7229059999999947
11
136.4284749999999917
21
-80.6161299999999983
0
LINE
8
BLACK
6
CONTINUOUS
10
136.4284749999999917
20
-80.6161299999999983
11
136.891428999999988
21
-80.5282259999999894
0
LINE
8
BLACK
6
CONTINUOUS
10
136.891428999999988
20
-80.5282259999999894
11
137.3577589999999873
21
-80.4593929999999915
0
LINE
8
BLACK
6
CONTINUOUS
10
137.3577589999999873
20
-80.4593929999999915
11
137.8269300000000044
21
-80.4098269999999928
0
LINE
8
BLACK
6
CONTINUOUS
10
137.8269300000000044
20
-80.4098269999999928
11
138.2984069999999974
21
-80.3797249999999934
0
LINE
8
BLACK
6
CONTINUOUS
10
138.2984069999999974
20
-80.3797249999999934
11
138.7716549999999813
21
-80.3692849999999908
0
LINE
8
BLACK
6
CONTINUOUS
10
138.7716549999999813
20
-80.3692849999999908
11
139.2461409999999944
21
-80.378703999999999
0
LINE
8
BLACK
6
CONTINUOUS
10
147.6209580000000017
20
-67.5362329999999957
11
147.7506249999999852
21
-67.5552330000000012
0
LINE
8
BLACK
6
CONTINUOUS
10
147.7506249999999852
20
-67.5552330000000012
11
147.8749430000000018
21
-67.5874060000000014
0
LINE
8
BLACK
6
CONTINUOUS
10
147.8749430000000018
20
-67.5874060000000014
11
147.9935930000000042
21
-67.6319089999999932
0
LINE
8
BLACK
6
CONTINUOUS
10
147.9935930000000042
20
-67.6319089999999932
11
148.1062560000000019
21
-67.6879009999999965
0
LINE
8
BLACK
6
CONTINUOUS
10
148.1062560000000019
20
-67.6879009999999965
11
148.2126120000000071
21
-67.7545379999999966
0
LINE
8
BLACK
6
CONTINUOUS
10
148.2126120000000071
20
-67.7545379999999966
11
148.312343999999996
21
-67.8309780000000018
0
LINE
8
BLACK
6
CONTINUOUS
10
148.312343999999996
20
-67.8309780000000018
11
148.405130999999983
21
-67.9163789999999921
0
LINE
8
BLACK
6
CONTINUOUS
10
148.405130999999983
20
-67.9163789999999921
11
148.4906550000000038
21
-68.0098979999999926
0
LINE
8
BLACK
6
CONTINUOUS
10
148.4906550000000038
20
-68.0098979999999926
11
148.5685979999999802
21
-68.1106920000000002
0
LINE
8
BLACK
6
CONTINUOUS
10
148.5685979999999802
20
-68.1106920000000002
11
148.6386389999999835
21
-68.2179199999999923
0
LINE
8
BLACK
6
CONTINUOUS
10
148.6386389999999835
20
-68.2179199999999923
11
148.7004599999999925
21
-68.3307379999999966
0
LINE
8
BLACK
6
CONTINUOUS
10
148.7004599999999925
20
-68.3307379999999966
11
148.7537429999999858
21
-68.4483049999999906
0
LINE
8
BLACK
6
CONTINUOUS
10
148.7537429999999858
20
-68.4483049999999906
11
148.798168000000004
21
-68.569777000000002
0
LINE
8
BLACK
6
CONTINUOUS
10
148.798168000000004
20
-68.569777000000002
11
148.8334150000000022
21
-68.694312999999994
0
LINE
8
BLACK
6
CONTINUOUS
10
148.8334150000000022
20
-68.694312999999994
11
148.8591669999999851
21
-68.8210689999999943
0
LINE
8
BLACK
6
CONTINUOUS
10
148.8591669999999851
20
-68.8210689999999943
11
148.8751039999999932
21
-68.9492039999999946
0
LINE
8
BLACK
6
CONTINUOUS
10
148.8751039999999932
20
-68.9492039999999946
11
148.8809069999999792
21
-69.0778739999999942
0
LINE
8
BLACK
6
CONTINUOUS
10
148.8809069999999792
20
-69.0778739999999942
11
148.8762580000000071
21
-69.206237999999999
0
LINE
8
BLACK
6
CONTINUOUS
10
148.8762580000000071
20
-69.206237999999999
11
148.8608360000000062
21
-69.3334519999999941
0
LINE
8
BLACK
6
CONTINUOUS
10
148.8608360000000062
20
-69.3334519999999941
11
148.8418989999999837
21
-69.4228999999999985
0
LINE
8
BLACK
6
CONTINUOUS
10
148.8418989999999837
20
-69.4228999999999985
11
149.1468109999999854
21
-69.4027529999999899
0
LINE
8
BLACK
6
CONTINUOUS
10
149.1468109999999854
20
-69.4027529999999899
11
149.7292410000000018
21
-69.3783069999999924
0
LINE
8
BLACK
6
CONTINUOUS
10
149.7292410000000018
20
-69.3783069999999924
11
150.3114049999999793
21
-69.3679729999999921
0
LINE
8
BLACK
6
CONTINUOUS
10
150.3114049999999793
20
-69.3679729999999921
11
150.893289999999979
21
-69.3718109999999939
0
LINE
8
BLACK
6
CONTINUOUS
10
150.893289999999979
20
-69.3718109999999939
11
151.355290999999994
21
-69.3861610000000013
0
LINE
8
BLACK
6
CONTINUOUS
10
151.355290999999994
20
-69.3861610000000013
11
151.4376289999999869
21
-69.3232809999999944
0
LINE
8
BLACK
6
CONTINUOUS
10
151.4376289999999869
20
-69.3232809999999944
11
151.5338319999999896
21
-69.2605319999999978
0
LINE
8
BLACK
6
CONTINUOUS
10
151.5338319999999896
20
-69.2605319999999978
11
151.6318619999999839
21
-69.2066549999999978
0
LINE
8
BLACK
6
CONTINUOUS
10
151.6318619999999839
20
-69.2066549999999978
11
151.7313839999999914
21
-69.1614560000000012
0
LINE
8
BLACK
6
CONTINUOUS
10
151.7313839999999914
20
-69.1614560000000012
11
151.8320609999999817
21
-69.1247410000000002
0
LINE
8
BLACK
6
CONTINUOUS
10
151.8320609999999817
20
-69.1247410000000002
11
151.9335569999999791
21
-69.0963139999999925
0
LINE
8
BLACK
6
CONTINUOUS
10
151.9335569999999791
20
-69.0963139999999925
11
152.035537000000005
21
-69.0759829999999937
0
LINE
8
BLACK
6
CONTINUOUS
10
152.035537000000005
20
-69.0759829999999937
11
152.1376640000000009
21
-69.0635529999999989
0
LINE
8
BLACK
6
CONTINUOUS
10
152.1376640000000009
20
-69.0635529999999989
11
152.2396009999999933
21
-69.0588300000000004
0
LINE
8
BLACK
6
CONTINUOUS
10
152.2396009999999933
20
-69.0588300000000004
11
152.3410130000000038
21
-69.0616199999999907
0
LINE
8
BLACK
6
CONTINUOUS
10
152.3410130000000038
20
-69.0616199999999907
11
152.4415630000000021
21
-69.0717269999999957
0
LINE
8
BLACK
6
CONTINUOUS
10
152.4415630000000021
20
-69.0717269999999957
11
152.540914999999984
21
-69.0889590000000027
0
LINE
8
BLACK
6
CONTINUOUS
10
152.540914999999984
20
-69.0889590000000027
11
152.638733000000002
21
-69.1131209999999925
0
LINE
8
BLACK
6
CONTINUOUS
10
152.638733000000002
20
-69.1131209999999925
11
152.7346809999999948
21
-69.1440190000000001
0
LINE
8
BLACK
6
CONTINUOUS
10
152.7346809999999948
20
-69.1440190000000001
11
152.8284219999999891
21
-69.1814579999999921
0
LINE
8
BLACK
6
CONTINUOUS
10
152.8284219999999891
20
-69.1814579999999921
11
152.9196210000000065
21
-69.225245000000001
0
LINE
8
BLACK
6
CONTINUOUS
10
152.9196210000000065
20
-69.225245000000001
11
153.0079409999999882
21
-69.2751849999999934
0
LINE
8
BLACK
6
CONTINUOUS
10
153.0079409999999882
20
-69.2751849999999934
11
153.0930459999999869
21
-69.3310839999999899
0
LINE
8
BLACK
6
CONTINUOUS
10
153.0930459999999869
20
-69.3310839999999899
11
153.1745999999999981
21
-69.3927479999999974
0
LINE
8
BLACK
6
CONTINUOUS
10
153.1745999999999981
20
-69.3927479999999974
11
153.2522669999999891
21
-69.4599819999999966
0
LINE
8
BLACK
6
CONTINUOUS
10
153.2522669999999891
20
-69.4599819999999966
11
153.3257089999999891
21
-69.5325929999999914
0
LINE
8
BLACK
6
CONTINUOUS
10
153.3257089999999891
20
-69.5325929999999914
11
153.337192999999985
21
-69.5455609999999922
0
LINE
8
BLACK
6
CONTINUOUS
10
153.337192999999985
20
-69.5455609999999922
11
153.7980320000000063
21
-69.6055609999999945
0
LINE
8
BLACK
6
CONTINUOUS
10
153.7980320000000063
20
-69.6055609999999945
11
154.3779480000000035
21
-69.6956249999999926
0
LINE
8
BLACK
6
CONTINUOUS
10
154.3779480000000035
20
-69.6956249999999926
11
154.9574869999999862
21
-69.8002609999999919
0
LINE
8
BLACK
6
CONTINUOUS
10
154.9574869999999862
20
-69.8002609999999919
11
155.5366369999999847
21
-69.9195270000000022
0
LINE
8
BLACK
6
CONTINUOUS
10
155.5366369999999847
20
-69.9195270000000022
11
155.6302129999999977
21
-69.9441669999999931
0
LINE
8
BLACK
6
CONTINUOUS
10
155.6302129999999977
20
-69.9441669999999931
11
155.7205040000000054
21
-69.9761120000000005
0
LINE
8
BLACK
6
CONTINUOUS
10
155.7205040000000054
20
-69.9761120000000005
11
155.8073669999999993
21
-70.0149679999999961
0
LINE
8
BLACK
6
CONTINUOUS
10
155.8073669999999993
20
-70.0149679999999961
11
155.890656000000007
21
-70.060338999999999
0
LINE
8
BLACK
6
CONTINUOUS
10
155.890656000000007
20
-70.060338999999999
11
155.9702259999999967
21
-70.1118280000000027
0
LINE
8
BLACK
6
CONTINUOUS
10
155.9702259999999967
20
-70.1118280000000027
11
156.0459319999999934
21
-70.1690409999999929
0
LINE
8
BLACK
6
CONTINUOUS
10
156.0459319999999934
20
-70.1690409999999929
11
156.1176299999999912
21
-70.2315820000000031
0
LINE
8
BLACK
6
CONTINUOUS
10
156.1176299999999912
20
-70.2315820000000031
11
156.1851749999999868
21
-70.2990549999999956
0
LINE
8
BLACK
6
CONTINUOUS
10
156.1851749999999868
20
-70.2990549999999956
11
156.248422000000005
21
-70.3710650000000015
0
LINE
8
BLACK
6
CONTINUOUS
10
156.248422000000005
20
-70.3710650000000015
11
156.3072249999999883
21
-70.4472169999999949
0
LINE
8
BLACK
6
CONTINUOUS
10
156.3072249999999883
20
-70.4472169999999949
11
156.361440999999985
21
-70.5271139999999974
0
LINE
8
BLACK
6
CONTINUOUS
10
156.361440999999985
20
-70.5271139999999974
11
156.4109239999999943
21
-70.6103609999999975
0
LINE
8
BLACK
6
CONTINUOUS
10
156.4109239999999943
20
-70.6103609999999975
11
156.4555299999999818
21
-70.6965620000000001
0
LINE
8
BLACK
6
CONTINUOUS
10
156.4555299999999818
20
-70.6965620000000001
11
156.4951130000000035
21
-70.7853229999999911
0
LINE
8
BLACK
6
CONTINUOUS
10
156.4951130000000035
20
-70.7853229999999911
11
156.5295289999999966
21
-70.8762469999999922
0
LINE
8
BLACK
6
CONTINUOUS
10
156.5295289999999966
20
-70.8762469999999922
11
156.5586319999999887
21
-70.9689389999999918
0
LINE
8
BLACK
6
CONTINUOUS
10
156.5586319999999887
20
-70.9689389999999918
11
156.5822789999999998
21
-71.0630029999999948
0
LINE
8
BLACK
6
CONTINUOUS
10
156.5822789999999998
20
-71.0630029999999948
11
156.6003240000000005
21
-71.1580440000000038
0
LINE
8
BLACK
6
CONTINUOUS
10
156.6003240000000005
20
-71.1580440000000038
11
156.6126219999999876
21
-71.2536659999999955
0
LINE
8
BLACK
6
CONTINUOUS
10
156.6126219999999876
20
-71.2536659999999955
11
156.6190279999999859
21
-71.3494740000000007
0
LINE
8
BLACK
6
CONTINUOUS
10
156.6190279999999859
20
-71.3494740000000007
11
156.6193979999999897
21
-71.4450709999999987
0
LINE
8
BLACK
6
CONTINUOUS
10
156.6193979999999897
20
-71.4450709999999987
11
156.6135869999999954
21
-71.5400630000000035
0
LINE
8
BLACK
6
CONTINUOUS
10
156.6135869999999954
20
-71.5400630000000035
11
156.6014490000000023
21
-71.6340539999999919
0
LINE
8
BLACK
6
CONTINUOUS
10
156.6014490000000023
20
-71.6340539999999919
11
156.5828410000000019
21
-71.7266489999999948
0
LINE
8
BLACK
6
CONTINUOUS
10
156.5828410000000019
20
-71.7266489999999948
11
156.5576159999999959
21
-71.8174509999999913
0
LINE
8
BLACK
6
CONTINUOUS
10
156.5576159999999959
20
-71.8174509999999913
11
156.5256310000000042
21
-71.9060649999999981
0
LINE
8
BLACK
6
CONTINUOUS
10
156.5256310000000042
20
-71.9060649999999981
11
156.4867399999999975
21
-71.9920960000000036
0
LINE
8
BLACK
6
CONTINUOUS
10
156.4867399999999975
20
-71.9920960000000036
11
156.4407989999999984
21
-72.0751479999999987
0
LINE
8
BLACK
6
CONTINUOUS
10
156.4407989999999984
20
-72.0751479999999987
11
156.3876630000000034
21
-72.1548259999999999
0
LINE
8
BLACK
6
CONTINUOUS
10
156.3876630000000034
20
-72.1548259999999999
11
156.3271859999999833
21
-72.2307330000000007
0
LINE
8
BLACK
6
CONTINUOUS
10
156.3271859999999833
20
-72.2307330000000007
11
156.259223999999989
21
-72.3024750000000012
0
LINE
8
BLACK
6
CONTINUOUS
10
156.259223999999989
20
-72.3024750000000012
11
156.1836329999999862
21
-72.369655999999992
0
LINE
8
BLACK
6
CONTINUOUS
10
156.1836329999999862
20
-72.369655999999992
11
155.1990700000000061
21
-73.1398899999999941
0
LINE
8
BLACK
6
CONTINUOUS
10
155.1990700000000061
20
-73.1398899999999941
11
154.6840229999999963
21
-73.5132040000000018
0
LINE
8
BLACK
6
CONTINUOUS
10
154.6840229999999963
20
-73.5132040000000018
11
154.1550809999999956
21
-73.8708549999999917
0
LINE
8
BLACK
6
CONTINUOUS
10
154.1550809999999956
20
-73.8708549999999917
11
153.613205999999991
21
-74.2069999999999936
0
LINE
8
BLACK
6
CONTINUOUS
10
153.613205999999991
20
-74.2069999999999936
11
153.0593590000000006
21
-74.5157939999999996
0
LINE
8
BLACK
6
CONTINUOUS
10
153.0593590000000006
20
-74.5157939999999996
11
152.4945009999999854
21
-74.7913909999999902
0
LINE
8
BLACK
6
CONTINUOUS
10
152.4945009999999854
20
-74.7913909999999902
11
151.9195949999999868
21
-75.027946
0
LINE
8
BLACK
6
CONTINUOUS
10
151.9195949999999868
20
-75.027946
11
151.3356009999999969
21
-75.219616000000002
0
LINE
8
BLACK
6
CONTINUOUS
10
151.3356009999999969
20
-75.219616000000002
11
151.0404969999999878
21
-75.2967919999999964
0
LINE
8
BLACK
6
CONTINUOUS
10
151.0404969999999878
20
-75.2967919999999964
11
150.7434810000000027
21
-75.3605539999999934
0
LINE
8
BLACK
6
CONTINUOUS
10
150.7434810000000027
20
-75.3605539999999934
11
150.4446749999999895
21
-75.4101730000000003
0
LINE
8
BLACK
6
CONTINUOUS
10
150.4446749999999895
20
-75.4101730000000003
11
150.1441969999999912
21
-75.4449169999999896
0
LINE
8
BLACK
6
CONTINUOUS
10
150.1441969999999912
20
-75.4449169999999896
11
149.8421689999999842
21
-75.4640559999999994
0
LINE
8
BLACK
6
CONTINUOUS
10
149.8421689999999842
20
-75.4640559999999994
11
149.5387110000000064
21
-75.4668589999999995
0
LINE
8
BLACK
6
CONTINUOUS
10
149.5387110000000064
20
-75.4668589999999995
11
149.2339419999999848
21
-75.4525959999999998
0
LINE
8
BLACK
6
CONTINUOUS
10
149.2339419999999848
20
-75.4525959999999998
11
148.9279829999999833
21
-75.420535000000001
0
LINE
8
BLACK
6
CONTINUOUS
10
148.9279829999999833
20
-75.420535000000001
11
148.6209539999999834
21
-75.3699479999999937
0
LINE
8
BLACK
6
CONTINUOUS
10
148.6209539999999834
20
-75.3699479999999937
11
148.3129759999999919
21
-75.3001019999999954
0
LINE
8
BLACK
6
CONTINUOUS
10
148.3129759999999919
20
-75.3001019999999954
11
148.0041669999999954
21
-75.2102670000000018
0
LINE
8
BLACK
6
CONTINUOUS
10
148.0041669999999954
20
-75.2102670000000018
11
147.6946499999999958
21
-75.0997119999999967
0
LINE
8
BLACK
6
CONTINUOUS
10
147.6946499999999958
20
-75.0997119999999967
11
147.3845429999999794
21
-74.9677080000000018
0
LINE
8
BLACK
6
CONTINUOUS
10
147.3845429999999794
20
-74.9677080000000018
11
147.0739679999999794
21
-74.8135230000000035
0
LINE
8
BLACK
6
CONTINUOUS
10
147.0739679999999794
20
-74.8135230000000035
11
146.8355530000000044
21
-74.6755119999999977
0
LINE
8
BLACK
6
CONTINUOUS
10
146.8355530000000044
20
-74.6755119999999977
11
146.6095259999999882
21
-74.5223790000000008
0
LINE
8
BLACK
6
CONTINUOUS
10
146.6095259999999882
20
-74.5223790000000008
11
146.3961099999999931
21
-74.3551029999999997
0
LINE
8
BLACK
6
CONTINUOUS
10
146.3961099999999931
20
-74.3551029999999997
11
146.1955299999999909
21
-74.1746639999999928
0
LINE
8
BLACK
6
CONTINUOUS
10
146.1955299999999909
20
-74.1746639999999928
11
146.008010999999982
21
-73.9820380000000029
0
LINE
8
BLACK
6
CONTINUOUS
10
146.008010999999982
20
-73.9820380000000029
11
145.8337779999999952
21
-73.7782069999999948
0
LINE
8
BLACK
6
CONTINUOUS
10
145.8337779999999952
20
-73.7782069999999948
11
145.6730550000000051
21
-73.5641469999999913
0
LINE
8
BLACK
6
CONTINUOUS
10
145.6730550000000051
20
-73.5641469999999913
11
145.5260659999999859
21
-73.3408390000000026
0
LINE
8
BLACK
6
CONTINUOUS
10
145.5260659999999859
20
-73.3408390000000026
11
145.3930359999999951
21
-73.1092589999999944
0
LINE
8
BLACK
6
CONTINUOUS
10
145.3930359999999951
20
-73.1092589999999944
11
145.2741900000000044
21
-72.870389000000003
0
LINE
8
BLACK
6
CONTINUOUS
10
145.2741900000000044
20
-72.870389000000003
11
145.1697529999999858
21
-72.625204999999994
0
LINE
8
BLACK
6
CONTINUOUS
10
145.1697529999999858
20
-72.625204999999994
11
145.1170410000000004
21
-72.4781600000000026
0
LINE
8
BLACK
6
CONTINUOUS
10
145.1170410000000004
20
-72.4781600000000026
11
145.1133399999999938
21
-72.485486999999992
0
LINE
8
BLACK
6
CONTINUOUS
10
145.1133399999999938
20
-72.485486999999992
11
145.0774159999999995
21
-72.5495319999999992
0
LINE
8
BLACK
6
CONTINUOUS
10
145.0774159999999995
20
-72.5495319999999992
11
145.0386660000000063
21
-72.6121160000000003
0
LINE
8
BLACK
6
CONTINUOUS
10
145.0386660000000063
20
-72.6121160000000003
11
144.9971929999999816
21
-72.6730539999999934
0
LINE
8
BLACK
6
CONTINUOUS
10
144.9971929999999816
20
-72.6730539999999934
11
144.9531000000000063
21
-72.7321589999999958
0
LINE
8
BLACK
6
CONTINUOUS
10
144.9531000000000063
20
-72.7321589999999958
11
144.9064919999999859
21
-72.789244999999994
0
LINE
8
BLACK
6
CONTINUOUS
10
144.9064919999999859
20
-72.789244999999994
11
144.8574720000000013
21
-72.8441260000000028
0
LINE
8
BLACK
6
CONTINUOUS
10
144.8574720000000013
20
-72.8441260000000028
11
144.8061429999999916
21
-72.8966159999999945
0
LINE
8
BLACK
6
CONTINUOUS
10
144.8061429999999916
20
-72.8966159999999945
11
144.7526100000000042
21
-72.9465289999999982
0
LINE
8
BLACK
6
CONTINUOUS
10
144.7526100000000042
20
-72.9465289999999982
11
144.6969749999999806
21
-72.9936780000000027
0
LINE
8
BLACK
6
CONTINUOUS
10
144.6969749999999806
20
-72.9936780000000027
11
144.6393419999999992
21
-73.0378769999999946
0
LINE
8
BLACK
6
CONTINUOUS
10
144.6393419999999992
20
-73.0378769999999946
11
144.5798139999999989
21
-73.0789400000000029
0
LINE
8
BLACK
6
CONTINUOUS
10
144.5798139999999989
20
-73.0789400000000029
11
144.518495999999999
21
-73.1166819999999973
0
LINE
8
BLACK
6
CONTINUOUS
10
144.518495999999999
20
-73.1166819999999973
11
144.4554899999999975
21
-73.1509149999999977
0
LINE
8
BLACK
6
CONTINUOUS
10
144.4554899999999975
20
-73.1509149999999977
11
144.3909009999999853
21
-73.1814540000000022
0
LINE
8
BLACK
6
CONTINUOUS
10
144.3909009999999853
20
-73.1814540000000022
11
144.324830999999989
21
-73.2081119999999999
0
LINE
8
BLACK
6
CONTINUOUS
10
144.324830999999989
20
-73.2081119999999999
11
144.2573849999999993
21
-73.2307040000000029
0
LINE
8
BLACK
6
CONTINUOUS
10
144.2573849999999993
20
-73.2307040000000029
11
144.1886659999999836
21
-73.2490430000000003
0
LINE
8
BLACK
6
CONTINUOUS
10
144.1886659999999836
20
-73.2490430000000003
11
144.1187769999999944
21
-73.2629429999999928
0
LINE
8
BLACK
6
CONTINUOUS
10
144.1187769999999944
20
-73.2629429999999928
11
144.047822999999994
21
-73.2722169999999977
0
LINE
8
BLACK
6
CONTINUOUS
10
144.047822999999994
20
-73.2722169999999977
11
143.9759059999999806
21
-73.2766809999999964
0
LINE
8
BLACK
6
CONTINUOUS
10
143.9759059999999806
20
-73.2766809999999964
11
143.9031300000000044
21
-73.2761459999999971
0
LINE
8
BLACK
6
CONTINUOUS
10
143.9031300000000044
20
-73.2761459999999971
11
143.8295980000000043
21
-73.2704279999999954
0
LINE
8
BLACK
6
CONTINUOUS
10
143.8295980000000043
20
-73.2704279999999954
11
140.2993239999999844
21
-72.9241949999999974
0
LINE
8
BLACK
6
CONTINUOUS
10
140.2993239999999844
20
-72.9241949999999974
11
139.5610289999999907
21
-73.1612930000000006
0
LINE
8
BLACK
6
CONTINUOUS
10
139.5610289999999907
20
-73.1612930000000006
11
136.7846799999999803
21
-74.0098660000000024
0
LINE
8
BLACK
6
CONTINUOUS
10
136.7846799999999803
20
-74.0098660000000024
11
134.3039540000000045
21
-74.7212420000000037
0
LINE
8
BLACK
6
CONTINUOUS
10
134.3039540000000045
20
-74.7212420000000037
11
131.8065039999999897
21
-75.3827009999999973
0
LINE
8
BLACK
6
CONTINUOUS
10
131.8065039999999897
20
-75.3827009999999973
11
129.2932289999999966
21
-75.9847170000000034
0
LINE
8
BLACK
6
CONTINUOUS
10
129.2932289999999966
20
-75.9847170000000034
11
126.7650299999999959
21
-76.5177599999999956
0
LINE
8
BLACK
6
CONTINUOUS
10
126.7650299999999959
20
-76.5177599999999956
11
124.2228049999999939
21
-76.9723029999999966
0
LINE
8
BLACK
6
CONTINUOUS
10
124.2228049999999939
20
-76.9723029999999966
11
121.6674539999999922
21
-77.3388180000000034
0
LINE
8
BLACK
6
CONTINUOUS
10
121.6674539999999922
20
-77.3388180000000034
11
119.0998769999999922
21
-77.6077769999999987
0
LINE
8
BLACK
6
CONTINUOUS
10
119.0998769999999922
20
-77.6077769999999987
11
117.8117839999999887
21
-77.7026960000000031
0
LINE
8
BLACK
6
CONTINUOUS
10
117.8117839999999887
20
-77.7026960000000031
11
116.5209720000000004
21
-77.769652999999991
0
LINE
8
BLACK
6
CONTINUOUS
10
116.5209720000000004
20
-77.769652999999991
11
115.3298829999999953
21
-77.8166989999999998
0
LINE
8
BLACK
6
CONTINUOUS
10
115.3298829999999953
20
-77.8166989999999998
11
114.1097139999999968
21
-77.8484710000000035
0
LINE
8
BLACK
6
CONTINUOUS
10
114.1097139999999968
20
-77.8484710000000035
11
112.8741239999999948
21
-77.8454359999999923
0
LINE
8
BLACK
6
CONTINUOUS
10
112.8741239999999948
20
-77.8454359999999923
11
112.2548139999999961
21
-77.8247609999999952
0
LINE
8
BLACK
6
CONTINUOUS
10
112.2548139999999961
20
-77.8247609999999952
11
111.636770999999996
21
-77.7880600000000015
0
LINE
8
BLACK
6
CONTINUOUS
10
111.636770999999996
20
-77.7880600000000015
11
111.0217009999999931
21
-77.7328890000000001
0
LINE
8
BLACK
6
CONTINUOUS
10
111.0217009999999931
20
-77.7328890000000001
11
110.4113139999999902
21
-77.6568089999999955
0
LINE
8
BLACK
6
CONTINUOUS
10
110.4113139999999902
20
-77.6568089999999955
11
109.807313999999991
21
-77.5573770000000025
0
LINE
8
BLACK
6
CONTINUOUS
10
109.807313999999991
20
-77.5573770000000025
11
109.2114109999999982
21
-77.4321520000000021
0
LINE
8
BLACK
6
CONTINUOUS
10
109.2114109999999982
20
-77.4321520000000021
11
108.6253119999999939
21
-77.2786909999999949
0
LINE
8
BLACK
6
CONTINUOUS
10
108.6253119999999939
20
-77.2786909999999949
11
108.0507229999999907
21
-77.0945540000000022
0
LINE
8
BLACK
6
CONTINUOUS
10
108.0507229999999907
20
-77.0945540000000022
11
107.4893519999999967
21
-76.8772989999999936
0
LINE
8
BLACK
6
CONTINUOUS
10
107.4893519999999967
20
-76.8772989999999936
11
106.9429069999999911
21
-76.6244829999999979
0
LINE
8
BLACK
6
CONTINUOUS
10
106.9429069999999911
20
-76.6244829999999979
11
106.6928179999999884
21
-76.4914770000000033
0
LINE
8
BLACK
6
CONTINUOUS
10
106.6928179999999884
20
-76.4914770000000033
11
106.4500230000000016
21
-76.3482690000000019
0
LINE
8
BLACK
6
CONTINUOUS
10
106.4500230000000016
20
-76.3482690000000019
11
106.2148129999999924
21
-76.1952500000000015
0
LINE
8
BLACK
6
CONTINUOUS
10
106.2148129999999924
20
-76.1952500000000015
11
105.9874789999999933
21
-76.0328080000000028
0
LINE
8
BLACK
6
CONTINUOUS
10
105.9874789999999933
20
-76.0328080000000028
11
105.7683109999999971
21
-75.8613349999999969
0
LINE
8
BLACK
6
CONTINUOUS
10
105.7683109999999971
20
-75.8613349999999969
11
105.5575989999999962
21
-75.6812219999999911
0
LINE
8
BLACK
6
CONTINUOUS
10
105.5575989999999962
20
-75.6812219999999911
11
105.162707999999995
21
-75.2966349999999949
0
LINE
8
BLACK
6
CONTINUOUS
10
105.162707999999995
20
-75.2966349999999949
11
104.8051299999999912
21
-74.8821689999999904
0
LINE
8
BLACK
6
CONTINUOUS
10
104.8051299999999912
20
-74.8821689999999904
11
104.4871909999999957
21
-74.4409490000000034
0
LINE
8
BLACK
6
CONTINUOUS
10
104.4871909999999957
20
-74.4409490000000034
11
104.3438119999999998
21
-74.2112809999999996
0
LINE
8
BLACK
6
CONTINUOUS
10
104.3438119999999998
20
-74.2112809999999996
11
104.2112139999999982
21
-73.9760959999999983
0
LINE
8
BLACK
6
CONTINUOUS
10
104.2112139999999982
20
-73.9760959999999983
11
104.0896879999999953
21
-73.7357839999999953
0
LINE
8
BLACK
6
CONTINUOUS
10
104.0896879999999953
20
-73.7357839999999953
11
103.9795239999999978
21
-73.4907359999999983
0
LINE
8
BLACK
6
CONTINUOUS
10
103.9795239999999978
20
-73.4907359999999983
11
103.8810139999999933
21
-73.2413399999999939
0
LINE
8
BLACK
6
CONTINUOUS
10
103.8810139999999933
20
-73.2413399999999939
11
103.794446999999991
21
-72.9879889999999989
0
LINE
8
BLACK
6
CONTINUOUS
10
103.794446999999991
20
-72.9879889999999989
11
103.7201139999999953
21
-72.731072999999995
0
LINE
8
BLACK
6
CONTINUOUS
10
103.7201139999999953
20
-72.731072999999995
11
103.6583059999999961
21
-72.4709809999999948
0
LINE
8
BLACK
6
CONTINUOUS
10
103.6583059999999961
20
-72.4709809999999948
11
103.6093130000000002
21
-72.2081050000000033
0
LINE
8
BLACK
6
CONTINUOUS
10
103.6093130000000002
20
-72.2081050000000033
11
103.5734259999999978
21
-71.9428339999999906
0
LINE
8
BLACK
6
CONTINUOUS
10
103.5734259999999978
20
-71.9428339999999906
11
103.5509349999999955
21
-71.6755589999999927
0
LINE
8
BLACK
6
CONTINUOUS
10
103.5509349999999955
20
-71.6755589999999927
11
103.5421319999999952
21
-71.4066710000000029
0
LINE
8
BLACK
6
CONTINUOUS
10
103.5421319999999952
20
-71.4066710000000029
11
103.5473059999999919
21
-71.1365589999999912
0
LINE
8
BLACK
6
CONTINUOUS
10
103.5473059999999919
20
-71.1365589999999912
11
103.5667479999999898
21
-70.8656149999999911
0
LINE
8
BLACK
6
CONTINUOUS
10
103.5667479999999898
20
-70.8656149999999911
11
103.6007489999999933
21
-70.5942289999999986
0
LINE
8
BLACK
6
CONTINUOUS
10
103.6007489999999933
20
-70.5942289999999986
11
103.6495989999999949
21
-70.3227899999999977
0
LINE
8
BLACK
6
CONTINUOUS
10
103.6495989999999949
20
-70.3227899999999977
11
103.7135889999999989
21
-70.051690999999991
0
LINE
8
BLACK
6
CONTINUOUS
10
103.7135889999999989
20
-70.051690999999991
11
103.7930099999999953
21
-69.7813199999999938
0
LINE
8
BLACK
6
CONTINUOUS
10
103.7930099999999953
20
-69.7813199999999938
11
103.8881509999999935
21
-69.5120679999999993
0
LINE
8
BLACK
6
CONTINUOUS
10
103.8881509999999935
20
-69.5120679999999993
11
103.9993049999999926
21
-69.2443260000000009
0
LINE
8
BLACK
6
CONTINUOUS
10
103.9993049999999926
20
-69.2443260000000009
11
103.99930599999999
21
-69.2443260000000009
0
LINE
8
BLACK
6
CONTINUOUS
10
103.99930599999999
20
-69.2443260000000009
11
103.9993070000000017
21
-69.2443250000000035
0
LINE
8
BLACK
6
CONTINUOUS
10
103.9993070000000017
20
-69.2443250000000035
11
103.9993079999999992
21
-69.2443250000000035
0
LINE
8
BLACK
6
CONTINUOUS
10
103.9993079999999992
20
-69.2443250000000035
11
103.9993079999999992
21
-69.2443239999999918
0
LINE
8
BLACK
6
CONTINUOUS
10
103.9993079999999992
20
-69.2443239999999918
11
103.9993089999999967
21
-69.2443229999999943
0
LINE
8
BLACK
6
CONTINUOUS
10
103.9993089999999967
20
-69.2443229999999943
11
103.9993099999999941
21
-69.2443209999999993
0
LINE
8
BLACK
6
CONTINUOUS
10
103.9993099999999941
20
-69.2443209999999993
11
103.9993109999999916
21
-69.2443189999999902
0
LINE
8
BLACK
6
CONTINUOUS
10
103.9993109999999916
20
-69.2443189999999902
11
103.9993130000000008
21
-69.2443179999999927
0
LINE
8
BLACK
6
CONTINUOUS
10
103.9993130000000008
20
-69.2443179999999927
11
104.0318219999999911
21
-69.177818000000002
0
LINE
8
BLACK
6
CONTINUOUS
10
104.0318219999999911
20
-69.177818000000002
11
104.068404000000001
21
-69.1146090000000015
0
LINE
8
BLACK
6
CONTINUOUS
10
104.068404000000001
20
-69.1146090000000015
11
104.1088479999999947
21
-69.0546849999999921
0
LINE
8
BLACK
6
CONTINUOUS
10
104.1088479999999947
20
-69.0546849999999921
11
104.152940000000001
21
-68.9980400000000031
0
LINE
8
BLACK
6
CONTINUOUS
10
104.152940000000001
20
-68.9980400000000031
11
104.2004680000000008
21
-68.9446700000000021
0
LINE
8
BLACK
6
CONTINUOUS
10
104.2004680000000008
20
-68.9446700000000021
11
104.2512179999999944
21
-68.8945700000000016
0
LINE
8
BLACK
6
CONTINUOUS
10
104.2512179999999944
20
-68.8945700000000016
11
104.3049769999999938
21
-68.8477340000000027
0
LINE
8
BLACK
6
CONTINUOUS
10
104.3049769999999938
20
-68.8477340000000027
11
104.3615329999999943
21
-68.8041570000000036
0
LINE
8
BLACK
6
CONTINUOUS
10
104.3615329999999943
20
-68.8041570000000036
11
104.4206739999999911
21
-68.7638340000000028
0
LINE
8
BLACK
6
CONTINUOUS
10
104.4206739999999911
20
-68.7638340000000028
11
104.4821850000000012
21
-68.7267609999999962
0
LINE
8
BLACK
6
CONTINUOUS
10
104.4821850000000012
20
-68.7267609999999962
11
104.5458549999999889
21
-68.6929299999999898
0
LINE
8
BLACK
6
CONTINUOUS
10
104.5458549999999889
20
-68.6929299999999898
11
104.6114699999999971
21
-68.6623390000000029
0
LINE
8
BLACK
6
CONTINUOUS
10
104.6114699999999971
20
-68.6623390000000029
11
104.6788179999999926
21
-68.6349799999999988
0
LINE
8
BLACK
6
CONTINUOUS
10
104.6788179999999926
20
-68.6349799999999988
11
104.7476849999999899
21
-68.6108499999999992
0
LINE
8
BLACK
6
CONTINUOUS
10
104.7476849999999899
20
-68.6108499999999992
11
104.817859999999996
21
-68.589942999999991
0
LINE
8
BLACK
6
CONTINUOUS
10
104.817859999999996
20
-68.589942999999991
11
104.8891279999999995
21
-68.5722540000000009
0
LINE
8
BLACK
6
CONTINUOUS
10
104.8891279999999995
20
-68.5722540000000009
11
105.034095999999991
21
-68.5465090000000004
0
LINE
8
BLACK
6
CONTINUOUS
10
105.034095999999991
20
-68.5465090000000004
11
105.1808849999999893
21
-68.5335729999999899
0
LINE
8
BLACK
6
CONTINUOUS
10
105.1808849999999893
20
-68.5335729999999899
11
105.3277939999999973
21
-68.5334059999999994
0
LINE
8
BLACK
6
CONTINUOUS
10
105.3277939999999973
20
-68.5334059999999994
11
105.473118999999997
21
-68.5459659999999928
0
LINE
8
BLACK
6
CONTINUOUS
10
105.473118999999997
20
-68.5459659999999928
11
105.6151589999999914
21
-68.571210999999991
0
LINE
8
BLACK
6
CONTINUOUS
10
105.6151589999999914
20
-68.571210999999991
11
105.6844139999999896
21
-68.5885779999999983
0
LINE
8
BLACK
6
CONTINUOUS
10
105.6844139999999896
20
-68.5885779999999983
11
105.7522089999999935
21
-68.6091009999999955
0
LINE
8
BLACK
6
CONTINUOUS
10
105.7522089999999935
20
-68.6091009999999955
11
105.8183310000000006
21
-68.6327739999999977
0
LINE
8
BLACK
6
CONTINUOUS
10
105.8183310000000006
20
-68.6327739999999977
11
105.882567999999992
21
-68.6595939999999985
0
LINE
8
BLACK
6
CONTINUOUS
10
105.882567999999992
20
-68.6595939999999985
11
105.944704999999999
21
-68.6895530000000036
0
LINE
8
BLACK
6
CONTINUOUS
10
105.944704999999999
20
-68.6895530000000036
11
106.0045319999999975
21
-68.7226479999999924
0
LINE
8
BLACK
6
CONTINUOUS
10
106.0045319999999975
20
-68.7226479999999924
11
106.0715999999999894
21
-68.7641160000000013
0
LINE
8
BLACK
6
CONTINUOUS
10
106.0715999999999894
20
-68.7641160000000013
11
106.1350669999999923
21
-68.8079699999999974
0
LINE
8
BLACK
6
CONTINUOUS
10
106.1350669999999923
20
-68.8079699999999974
11
106.1949659999999938
21
-68.8541079999999965
0
LINE
8
BLACK
6
CONTINUOUS
10
106.1949659999999938
20
-68.8541079999999965
11
106.2513309999999933
21
-68.9024280000000005
0
LINE
8
BLACK
6
CONTINUOUS
10
106.2513309999999933
20
-68.9024280000000005
11
106.3041949999999929
21
-68.9528279999999967
0
LINE
8
BLACK
6
CONTINUOUS
10
106.3041949999999929
20
-68.9528279999999967
11
106.3535919999999919
21
-69.0052069999999986
0
LINE
8
BLACK
6
CONTINUOUS
10
106.3535919999999919
20
-69.0052069999999986
11
106.3995559999999898
21
-69.0594619999999964
0
LINE
8
BLACK
6
CONTINUOUS
10
106.3995559999999898
20
-69.0594619999999964
11
106.4421199999999885
21
-69.1154920000000033
0
LINE
8
BLACK
6
CONTINUOUS
10
106.4421199999999885
20
-69.1154920000000033
11
106.48131699999999
21
-69.1731949999999927
0
LINE
8
BLACK
6
CONTINUOUS
10
106.48131699999999
20
-69.1731949999999927
11
106.5171809999999937
21
-69.2324689999999947
0
LINE
8
BLACK
6
CONTINUOUS
10
106.5171809999999937
20
-69.2324689999999947
11
106.549745999999999
21
-69.2932119999999969
0
LINE
8
BLACK
6
CONTINUOUS
10
106.549745999999999
20
-69.2932119999999969
11
106.5790449999999936
21
-69.355322000000001
0
LINE
8
BLACK
6
CONTINUOUS
10
106.5790449999999936
20
-69.355322000000001
11
106.6051119999999912
21
-69.418697999999992
0
LINE
8
BLACK
6
CONTINUOUS
10
106.6051119999999912
20
-69.418697999999992
11
106.6185339999999968
21
-69.4565789999999907
0
LINE
8
BLACK
6
CONTINUOUS
10
106.6185339999999968
20
-69.4565789999999907
11
106.6322239999999937
21
-69.4459480000000013
0
LINE
8
BLACK
6
CONTINUOUS
10
106.6322239999999937
20
-69.4459480000000013
11
106.7426320000000004
21
-69.375821000000002
0
LINE
8
BLACK
6
CONTINUOUS
10
106.7426320000000004
20
-69.375821000000002
11
106.8605459999999994
21
-69.316205999999994
0
LINE
8
BLACK
6
CONTINUOUS
10
106.8605459999999994
20
-69.316205999999994
11
106.9857769999999988
21
-69.2679820000000035
0
LINE
8
BLACK
6
CONTINUOUS
10
106.9857769999999988
20
-69.2679820000000035
11
107.1181359999999927
21
-69.2320289999999972
0
LINE
8
BLACK
6
CONTINUOUS
10
107.1181359999999927
20
-69.2320289999999972
11
107.257435000000001
21
-69.2092250000000035
0
LINE
8
BLACK
6
CONTINUOUS
10
107.257435000000001
20
-69.2092250000000035
11
107.4034860000000009
21
-69.2004489999999919
0
LINE
8
BLACK
6
CONTINUOUS
10
107.4034860000000009
20
-69.2004489999999919
11
116.5205139999999915
21
-69.1374199999999917
0
LINE
8
BLACK
6
CONTINUOUS
10
116.5205139999999915
20
-69.1374199999999917
11
121.0800289999999961
21
-69.1503060000000005
0
LINE
8
BLACK
6
CONTINUOUS
10
121.0800289999999961
20
-69.1503060000000005
11
125.638276999999988
21
-69.2155300000000011
0
LINE
8
BLACK
6
CONTINUOUS
10
125.638276999999988
20
-69.2155300000000011
11
130.19380799999999
21
-69.3501499999999993
0
LINE
8
BLACK
6
CONTINUOUS
10
130.19380799999999
20
-69.3501499999999993
11
134.7451709999999991
21
-69.5712180000000018
0
LINE
8
BLACK
6
CONTINUOUS
10
134.7451709999999991
20
-69.5712180000000018
11
136.7034549999999911
21
-69.7110430000000036
0
LINE
8
BLACK
6
CONTINUOUS
10
136.7034549999999911
20
-69.7110430000000036
11
139.9525059999999996
21
-69.3020970000000034
0
LINE
8
BLACK
6
CONTINUOUS
10
139.9525059999999996
20
-69.3020970000000034
11
141.1359070000000031
21
-69.166877999999997
0
LINE
8
BLACK
6
CONTINUOUS
10
141.1359070000000031
20
-69.166877999999997
11
142.3197299999999927
21
-69.0467689999999976
0
LINE
8
BLACK
6
CONTINUOUS
10
142.3197299999999927
20
-69.0467689999999976
11
142.9321919999999864
21
-68.9949769999999916
0
LINE
8
BLACK
6
CONTINUOUS
10
142.9321919999999864
20
-68.9949769999999916
11
147.0551769999999863
21
-67.6088110000000029
0
LINE
8
BLACK
6
CONTINUOUS
10
147.0551769999999863
20
-67.6088110000000029
11
147.2030509999999879
21
-67.5666949999999957
0
LINE
8
BLACK
6
CONTINUOUS
10
147.2030509999999879
20
-67.5666949999999957
11
147.3468519999999842
21
-67.541121000000004
0
LINE
8
BLACK
6
CONTINUOUS
10
147.3468519999999842
20
-67.541121000000004
11
147.4862599999999873
21
-67.5312479999999908
0
LINE
8
BLACK
6
CONTINUOUS
10
147.4862599999999873
20
-67.5312479999999908
11
147.6209580000000017
21
-67.5362329999999957
0
CIRCLE
8
BLACK
10
115.9699999999999989
20
-94.3999999999999915
40
0.4
0
CIRCLE
8
BLACK
10
113.4299999999999926
20
-94.3999999999999915
40
0.4
0
CIRCLE
8
BLACK
10
142.3199999999999932
20
-94.3999999999999915
40
0.4
0
CIRCLE
8
BLACK
10
139.7800000000000011
20
-94.3999999999999915
40
0.4
0
LINE
8
BLACK
6
CONTINUOUS
10
134.7468920000000026
20
-67.7204579999999936
11
134.9870489999999847
21
-67.7812739999999962
0
LINE
8
BLACK
6
CONTINUOUS
10
134.9870489999999847
20
-67.7812739999999962
11
135.2139209999999991
21
-67.8807889999999929
0
LINE
8
BLACK
6
CONTINUOUS
10
135.2139209999999991
20
-67.8807889999999929
11
135.4213189999999827
21
-68.0162890000000004
0
LINE
8
BLACK
6
CONTINUOUS
10
135.4213189999999827
20
-68.0162890000000004
11
135.6035860000000071
21
-68.1840779999999995
0
LINE
8
BLACK
6
CONTINUOUS
10
135.6035860000000071
20
-68.1840779999999995
11
135.7557500000000061
21
-68.3795779999999951
0
LINE
8
BLACK
6
CONTINUOUS
10
135.7557500000000061
20
-68.3795779999999951
11
135.873660000000001
21
-68.5974569999999915
0
LINE
8
BLACK
6
CONTINUOUS
10
135.873660000000001
20
-68.5974569999999915
11
135.9540999999999826
21
-68.8317720000000008
0
LINE
8
BLACK
6
CONTINUOUS
10
135.9540999999999826
20
-68.8317720000000008
11
135.9948770000000025
21
-69.0761310000000037
0
LINE
8
BLACK
6
CONTINUOUS
10
135.9948770000000025
20
-69.0761310000000037
11
135.9948770000000025
21
-69.323869000000002
0
LINE
8
BLACK
6
CONTINUOUS
10
135.9948770000000025
20
-69.323869000000002
11
135.9540999999999826
21
-69.5682279999999906
0
LINE
8
BLACK
6
CONTINUOUS
10
135.9540999999999826
20
-69.5682279999999906
11
135.873660000000001
21
-69.802543
0
LINE
8
BLACK
6
CONTINUOUS
10
135.873660000000001
20
-69.802543
11
135.7557500000000061
21
-70.0204219999999964
0
LINE
8
BLACK
6
CONTINUOUS
10
135.7557500000000061
20
-70.0204219999999964
11
135.6035860000000071
21
-70.215921999999992
0
LINE
8
BLACK
6
CONTINUOUS
10
135.6035860000000071
20
-70.215921999999992
11
135.4213189999999827
21
-70.383710999999991
0
LINE
8
BLACK
6
CONTINUOUS
10
135.4213189999999827
20
-70.383710999999991
11
135.2139209999999991
21
-70.5192109999999985
0
LINE
8
BLACK
6
CONTINUOUS
10
135.2139209999999991
20
-70.5192109999999985
11
134.9870489999999847
21
-70.6187259999999952
0
LINE
8
BLACK
6
CONTINUOUS
10
134.9870489999999847
20
-70.6187259999999952
11
134.7468920000000026
21
-70.6795419999999979
0
LINE
8
BLACK
6
CONTINUOUS
10
134.7468920000000026
20
-70.6795419999999979
11
134.5
21
-70.7000000000000028
0
LINE
8
BLACK
6
CONTINUOUS
10
134.5
20
-70.7000000000000028
11
125.5
21
-70.7000000000000028
0
LINE
8
BLACK
6
CONTINUOUS
10
125.5
20
-70.7000000000000028
11
125.2531079999999974
21
-70.6795419999999979
0
LINE
8
BLACK
6
CONTINUOUS
10
125.2531079999999974
20
-70.6795419999999979
11
125.012951000000001
21
-70.6187259999999952
0
LINE
8
BLACK
6
CONTINUOUS
10
125.012951000000001
20
-70.6187259999999952
11
124.7860790000000009
21
-70.5192109999999985
0
LINE
8
BLACK
6
CONTINUOUS
10
124.7860790000000009
20
-70.5192109999999985
11
124.5786809999999889
21
-70.383710999999991
0
LINE
8
BLACK
6
CONTINUOUS
10
124.5786809999999889
20
-70.383710999999991
11
124.3964139999999929
21
-70.215921999999992
0
LINE
8
BLACK
6
CONTINUOUS
10
124.3964139999999929
20
-70.215921999999992
11
124.2442499999999939
21
-70.0204219999999964
0
LINE
8
BLACK
6
CONTINUOUS
10
124.2442499999999939
20
-70.0204219999999964
11
124.126339999999999
21
-69.802543
0
LINE
8
BLACK
6
CONTINUOUS
10
124.126339999999999
20
-69.802543
11
124.0458999999999889
21
-69.5682279999999906
0
LINE
8
BLACK
6
CONTINUOUS
10
124.0458999999999889
20
-69.5682279999999906
11
124.0051229999999975
21
-69.323869000000002
0
LINE
8
BLACK
6
CONTINUOUS
10
124.0051229999999975
20
-69.323869000000002
11
124.0051229999999975
21
-69.0761310000000037
0
LINE
8
BLACK
6
CONTINUOUS
10
124.0051229999999975
20
-69.0761310000000037
11
124.0458999999999889
21
-68.8317720000000008
0
LINE
8
BLACK
6
CONTINUOUS
10
124.0458999999999889
20
-68.8317720000000008
11
124.126339999999999
21
-68.5974569999999915
0
LINE
8
BLACK
6
CONTINUOUS
10
124.126339999999999
20
-68.5974569999999915
11
124.2442499999999939
21
-68.3795779999999951
0
LINE
8
BLACK
6
CONTINUOUS
10
124.2442499999999939
20
-68.3795779999999951
11
124.3964139999999929
21
-68.1840779999999995
0
LINE
8
BLACK
6
CONTINUOUS
10
124.3964139999999929
20
-68.1840779999999995
11
124.5786809999999889
21
-68.0162890000000004
0
LINE
8
BLACK
6
CONTINUOUS
10
124.5786809999999889
20
-68.0162890000000004
11
124.7860790000000009
21
-67.8807889999999929
0
LINE
8
BLACK
6
CONTINUOUS
10
124.7860790000000009
20
-67.8807889999999929
11
125.012951000000001
21
-67.7812739999999962
0
LINE
8
BLACK
6
CONTINUOUS
10
125.012951000000001
20
-67.7812739999999962
11
125.2531079999999974
21
-67.7204579999999936
0
LINE
8
BLACK
6
CONTINUOUS
10
125.2531079999999974
20
-67.7204579999999936
11
125.5
21
-67.7000000000000028
0
LINE
8
BLACK
6
CONTINUOUS
10
125.5
20
-67.7000000000000028
11
134.5
21
-67.7000000000000028
0
LINE
8
BLACK
6
CONTINUOUS
10
134.5
20
-67.7000000000000028
11
134.7468920000000026
21
-67.7204579999999936
0
CIRCLE
8
BLACK
10
110.0999999999999943
20
-84.5360000000000014
40
0.4
0
CIRCLE
8
BLACK
10
110.0999999999999943
20
-92.6640000000000015
40
0.4
0
CIRCLE
8
BLACK
10
147.1999999999999886
20
-83.0360000000000014
40
0.4
0
CIRCLE
8
BLACK
10
147.1999999999999886
20
-91.1640000000000015
40
0.4
0
CIRCLE
8
BLACK
10
116.
20
-82.
40
0.65
0
CIRCLE
8
BLACK
10
118.1999999999999886
20
-82.
40
0.65
0
CIRCLE
8
BLACK
10
138.0999999999999943
20
-82.
40
0.65
0
CIRCLE
8
BLACK
10
143.
20
-82.
40
0.65
  0
ENDSEC
  0
EOF
